<svg xmlns="http://www.w3.org/2000/svg" width="40" height="44" viewBox="0 0 40 44" fill="none">
  <path fill-rule="evenodd" clip-rule="evenodd" d="M2 9.64346C2 7.65523 3.61178 6.04346 5.6 6.04346H34.3353C36.3235 6.04346 37.9353 7.65523 37.9353 9.64346V37.6496C37.9353 39.6379 36.3235 41.2496 34.3353 41.2496H5.60001C3.61178 41.2496 2 39.6379 2 37.6496V9.64346Z" stroke="#C28C7E" stroke-width="3.6" stroke-linecap="round" stroke-linejoin="round"/>
  <path d="M2 15.9679H37.9353" stroke="#C28C7E" stroke-width="3.6" stroke-linecap="round" stroke-linejoin="round"/>
  <path d="M10.3873 2.66001V8.9345" stroke="#C28C7E" stroke-width="3.6" stroke-linecap="round" stroke-linejoin="round"/>
  <path d="M29.5553 2.66001V8.9345" stroke="#C28C7E" stroke-width="3.6" stroke-linecap="round" stroke-linejoin="round"/>
  <path d="M8.7105 25.2176H9.66877C10.7273 25.2176 11.5853 24.145 11.5853 22.8219C11.5853 21.4988 10.7273 20.4263 9.66877 20.4263H8.7105C7.65201 20.4263 6.79395 21.4988 6.79395 22.8219C6.79395 24.145 7.65201 25.2176 8.7105 25.2176Z" fill="#C28C7E"/>
  <path d="M18.2906 25.2176H19.2488C20.3073 25.2176 21.1654 24.145 21.1654 22.8219C21.1654 21.4988 20.3073 20.4263 19.2488 20.4263H18.2906C17.2321 20.4263 16.374 21.4988 16.374 22.8219C16.374 24.145 17.2321 25.2176 18.2906 25.2176Z" fill="#C28C7E"/>
  <path d="M27.8677 25.2176H28.826C29.8845 25.2176 30.7425 24.145 30.7425 22.8219C30.7425 21.4988 29.8845 20.4263 28.826 20.4263H27.8677C26.8092 20.4263 25.9512 21.4988 25.9512 22.8219C25.9512 24.145 26.8092 25.2176 27.8677 25.2176Z" fill="#C28C7E"/>
  <path d="M8.7105 34.7957H9.66877C10.7273 34.7957 11.5853 33.7231 11.5853 32.4001C11.5853 31.077 10.7273 30.0044 9.66877 30.0044H8.7105C7.65201 30.0044 6.79395 31.077 6.79395 32.4001C6.79395 33.7231 7.65201 34.7957 8.7105 34.7957Z" fill="#C28C7E"/>
  <path d="M18.2905 34.7957H19.2488C20.3073 34.7957 21.1653 33.7231 21.1653 32.4001C21.1653 31.077 20.3073 30.0044 19.2488 30.0044H18.2905C17.232 30.0044 16.374 31.077 16.374 32.4001C16.374 33.7231 17.232 34.7957 18.2905 34.7957Z" fill="#C28C7E"/>
  <path d="M27.8678 34.7957H28.8261C29.8846 34.7957 30.7427 33.7231 30.7427 32.4001C30.7427 31.077 29.8846 30.0044 28.8261 30.0044H27.8678C26.8094 30.0044 25.9513 31.077 25.9513 32.4001C25.9513 33.7231 26.8094 34.7957 27.8678 34.7957Z" fill="#C28C7E"/>
</svg>