<svg width="21" height="21" viewBox="0 0 21 21" fill="none" xmlns="http://www.w3.org/2000/svg">
<rect x="0.954688" y="0.65" width="19.2" height="19.2" rx="9.6" fill="#FEF3F2"/>
<rect x="0.954688" y="0.65" width="19.2" height="19.2" rx="9.6" stroke="#EAECF0" stroke-width="0.8"/>
<path d="M15.0804 5.72452C15.3846 6.02872 15.3846 6.52194 15.0804 6.82614L11.6642 10.2423L15.0804 13.6584C15.3888 13.9669 15.3888 14.467 15.0804 14.7755C14.7719 15.084 14.2718 15.084 13.9633 14.7755L10.5471 11.3594L7.13102 14.7755C6.82681 15.0797 6.3336 15.0797 6.02939 14.7755C5.72518 14.4713 5.72518 13.9781 6.02939 13.6739L9.44552 10.2577L6.02939 6.84159C5.72092 6.53312 5.72092 6.03299 6.02939 5.72452C6.33786 5.41604 6.83799 5.41604 7.14647 5.72452L10.5626 9.14065L13.9787 5.72452C14.2829 5.42031 14.7762 5.42031 15.0804 5.72452Z" fill="#D92D20"/>
</svg>
