<svg width="371" height="334" viewBox="0 0 371 334" fill="none" xmlns="http://www.w3.org/2000/svg">
<path d="M66.1147 220.543C57.1135 203.832 43.7316 194.616 31.3578 184.216C18.9961 173.797 6.4783 160.232 1.80964 139.747C-4.46724 112.099 6.37029 80.6576 22.2125 64.502C38.0668 48.365 57.6775 44.1827 76.6042 41.6103C95.5189 39.038 114.986 37.4836 132.316 25.5103C143.37 17.8859 153.343 6.13475 165.129 1.8414C186.096 -5.81999 207.339 11.668 224.693 31.3581C249.405 59.3944 272.868 94.4074 303.004 103.142C314.514 106.473 326.395 105.696 337.917 108.879C349.451 112.062 361.296 120.315 366.901 136.175C373.43 154.625 369.746 177.406 365.449 197.355C358.98 227.408 351.443 256.925 342.886 285.72C339.753 296.25 336.393 306.909 331.088 315.126C320.671 331.263 304.444 335.149 289.802 332.096C254.181 324.638 223.277 282.149 187.344 284.018C171.766 284.832 156.944 294.085 141.641 298.73C121.07 304.985 96.0949 304.17 76.6282 290.791C66.6908 283.944 72.2596 275.264 73.7598 262.181C75.44 247.543 72.2236 231.868 66.1147 220.543Z" fill="#F8E1C1"/>
<path d="M340.345 49.1836H123.025C118.973 49.1836 115.697 52.4756 115.697 56.5273V192.702V242.969C115.697 248.049 121.68 250.787 125.526 247.448L180.081 200.03H340.345C344.396 200.03 347.673 196.754 347.673 192.702V56.5273C347.673 52.4756 344.396 49.1836 340.345 49.1836Z" fill="#CAC0D0"/>
<path d="M289.713 97.1727H173.654V96.4922H289.713V97.1727Z" fill="black"/>
<path d="M289.713 127.813H173.654V127.133H289.713V127.813Z" fill="black"/>
<path d="M289.713 158.438H173.654V157.773H289.713V158.438Z" fill="black"/>
<path d="M291.534 106.16H74.2146C70.1629 106.16 66.8867 109.452 66.8867 113.504V249.679V299.945C66.8867 305.041 72.8693 307.764 76.7152 304.424L131.271 257.023H291.534C295.586 257.023 298.862 253.73 298.862 249.679V113.504C298.862 109.452 295.586 106.16 291.534 106.16Z" fill="#C28C7E"/>
<path d="M240.903 154.149H124.844V153.469H240.903V154.149Z" fill="black"/>
<path d="M240.903 184.79H124.844V184.109H240.903V184.79Z" fill="black"/>
<path d="M240.903 215.431H124.844V214.75H240.903V215.431Z" fill="black"/>
<path d="M127.265 22.2948C125.714 15.1516 124.163 8.01365 122.612 0.880973C122.438 0.0737989 121.219 0.469472 121.393 1.26082C122.944 8.39349 124.495 15.5314 126.046 22.6747C126.22 23.4818 127.439 23.0862 127.265 22.2948Z" fill="black"/>
<path d="M188.723 10.5473C185.589 17.4162 182.461 24.2798 179.338 31.1382C178.99 31.882 180.129 32.4676 180.477 31.7238L189.863 11.1329C190.195 10.3891 189.071 9.80347 188.723 10.5473Z" fill="black"/>
<path d="M84.8946 61.3361C79.1969 60.8824 73.494 60.4287 67.7857 59.975C66.9627 59.9116 67.026 61.1778 67.849 61.2411C73.5467 61.6948 79.2444 62.1485 84.9421 62.6022C85.7651 62.6655 85.7018 61.3994 84.8946 61.3361Z" fill="black"/>
<path d="M102.276 35.3637C98.8151 32.6942 95.3543 30.0248 91.8934 27.3553C91.2445 26.8488 90.3741 27.7984 91.0388 28.3049C94.4996 30.9744 97.9605 33.6438 101.421 36.3133C102.07 36.8198 102.925 35.8702 102.276 35.3637Z" fill="black"/>
<path d="M155.311 5.70268C155.421 4.89551 154.155 4.78472 154.029 5.59189C153.406 9.63303 152.784 13.6742 152.161 17.7153C152.035 18.5383 153.317 18.6491 153.443 17.8261C154.066 13.785 154.688 9.74382 155.311 5.70268Z" fill="black"/>
</svg>
