<svg width="442" height="416" viewBox="0 0 442 416" fill="none" xmlns="http://www.w3.org/2000/svg">
<path d="M96.7949 75.2764L86.8102 78.7903L86.542 91.897L53.9548 70.168L96.7949 75.2764Z" fill="white"/>
<path d="M79.8546 82.6299L64.5024 89.5896L53.9548 70.168L79.8546 82.6299Z" fill="#F8E1C1"/>
<path d="M86.8102 78.7903L86.5597 91.0428L86.542 91.897L79.8546 82.6299L53.9548 70.168L86.8102 78.7903ZM193.139 139.784C192.426 141.769 191.913 142.932 191.891 142.98L190.658 142.497C190.663 142.485 191.177 141.321 191.874 139.381L193.139 139.784ZM189.777 97.7682L188.844 98.6695C188.034 97.9263 187.138 97.2329 186.188 96.6075L186.951 95.5772C187.963 96.2401 188.914 96.9778 189.777 97.7682ZM176.956 91.5809L176.66 92.8067C175.562 92.571 174.406 92.374 173.218 92.2229L173.399 90.9777C174.624 91.1344 175.82 91.3368 176.956 91.5809ZM183.806 93.8301L183.213 94.956C182.209 94.4887 181.13 94.0658 180.01 93.7025L180.446 92.5141C181.619 92.894 182.751 93.3378 183.806 93.8301ZM193.868 132.988L195.164 133.295C194.851 134.462 194.533 135.556 194.221 136.556L192.939 136.202C193.247 135.216 193.562 134.139 193.868 132.988ZM195.284 126.474L196.603 126.668C196.416 127.81 196.196 128.924 195.962 129.998L194.655 129.745C194.885 128.689 195.097 127.595 195.284 126.474ZM169.726 91.9054C168.599 91.8416 167.428 91.8083 166.213 91.8097L166.211 90.552C167.456 90.552 168.655 90.5839 169.807 90.6504L169.726 91.9054ZM195.773 113.275L197.102 113.134C197.234 114.225 197.319 115.368 197.357 116.531L196.022 116.569C195.986 115.44 195.902 114.332 195.773 113.275ZM191.103 101.116L192.179 100.371C192.886 101.278 193.534 102.265 194.101 103.304L192.912 103.879C192.379 102.899 191.769 101.97 191.103 101.116ZM195.994 119.877L197.331 119.927C197.285 121.01 197.197 122.149 197.069 123.309L195.74 123.179C195.863 122.046 195.95 120.934 195.994 119.877ZM194.272 106.874L195.533 106.464C195.919 107.515 196.249 108.624 196.512 109.761L195.208 110.029C194.957 108.941 194.642 107.878 194.272 106.874ZM114.058 101.552C112.798 101.704 111.608 101.814 110.482 101.892L110.386 100.639C111.487 100.564 112.652 100.454 113.889 100.304L114.058 101.552ZM106.874 100.772L106.881 102.028C105.631 102.034 104.414 101.992 103.267 101.902L103.376 100.65C104.486 100.737 105.664 100.777 106.874 100.772ZM99.9405 100.191L99.6694 101.421C98.3876 101.171 97.2031 100.84 96.1496 100.438L96.6506 99.2727C97.6303 99.6471 98.7383 99.955 99.9405 100.191ZM121.129 100.413C119.906 100.655 118.733 100.867 117.609 101.049L117.382 99.8107C118.488 99.6305 119.648 99.4211 120.853 99.1826L121.129 100.413ZM162.69 91.9012C161.554 91.958 160.381 92.0426 159.17 92.1536L159.04 90.9014C160.272 90.7891 161.463 90.7031 162.619 90.6449L162.69 91.9012ZM92.6858 96.6769C92.6888 96.681 92.9658 97.1262 93.7378 97.7155L92.895 98.6917C91.9713 97.9845 91.5956 97.4132 91.5293 97.3064L92.6858 96.6769ZM148.686 93.6637C147.529 93.8843 146.374 94.1187 145.223 94.3667L144.926 93.1423C146.116 92.8843 147.283 92.6486 148.422 92.4323L148.686 93.6637ZM155.665 92.5446C154.529 92.6902 153.359 92.8594 152.167 93.0535L151.94 91.8152C153.118 91.6244 154.299 91.4529 155.482 91.3008L155.665 92.5446ZM141.776 95.1502C140.653 95.4178 139.511 95.7021 138.347 96.0043L137.992 94.7938C139.167 94.4887 140.319 94.2031 141.447 93.9327L141.776 95.1502ZM134.554 95.7173L134.932 96.9223C134.225 97.1206 133.51 97.3231 132.788 97.5324L131.523 97.893L131.144 96.688L132.395 96.3316C133.121 96.1208 133.842 95.9156 134.554 95.7173ZM128.086 98.8193C126.892 99.1257 125.739 99.4072 124.62 99.6638L124.302 98.4435C125.41 98.187 126.553 97.9096 127.733 97.6073L128.086 98.8193Z" fill="#C28C7E"/>
<path d="M233.928 385.385C315.564 385.385 381.743 379.99 381.743 373.335C381.743 366.68 315.564 361.285 233.928 361.285C152.292 361.285 86.1133 366.68 86.1133 373.335C86.1133 379.99 152.292 385.385 233.928 385.385Z" fill="#C28C7E"/>
<path d="M279.503 361.69C279.503 361.69 276.213 350.887 277.812 350.074C279.409 349.262 283.238 348.817 284.156 349.513C285.074 350.209 285.279 361.83 283.857 363.396C282.434 364.963 280.487 364.539 279.503 361.69Z" fill="#EFD9D3"/>
<path d="M268.089 369.448C268.089 369.448 267.998 371.05 269.507 371.763C273.253 373.529 285.657 371.578 286.263 370.499C286.868 369.421 286.649 368.055 286.649 368.055L268.089 369.448Z" fill="#3E4268"/>
<path d="M280.234 357.823C280.234 357.823 283.44 357.886 284.891 357.381C286.211 356.922 287.405 368.021 286.304 369.352C285.205 370.683 277.309 369.636 277.309 369.636C277.309 369.636 278.327 366.978 278.924 363.89C279.522 360.803 277.262 358.409 280.234 357.823Z" fill="#3E4268"/>
<path d="M277.121 362.131C277.121 362.131 274.399 357.195 276.646 356.755C278.893 356.316 279.544 356.672 280.805 357.385C282.067 358.097 279.982 361.909 279.755 362.483C279.53 363.059 277.121 362.131 277.121 362.131Z" fill="#575E84"/>
<path d="M273.815 365.398C273.815 365.398 276.635 365.599 277.698 367.012C278.762 368.425 281.625 363.832 280.785 362.236C279.945 360.642 276.427 361.77 276.427 361.77C276.427 361.77 277.112 364.872 273.815 365.398Z" fill="#575E84"/>
<path d="M268.402 370.439C270.458 371.995 277.513 372.291 278.954 370.67C280.396 369.05 278.702 363.143 272.296 364.524C269.654 365.094 266.961 369.349 268.402 370.439Z" fill="#575E84"/>
<path opacity="0.2" d="M273.48 364.833C272.602 364.889 271.901 365.091 271.347 365.392C271.554 365.685 271.777 365.965 272.016 366.234C272.662 365.862 273.535 365.566 274.606 365.678C277.071 365.937 277.137 366.02 277.137 366.02C277.137 366.02 275.547 364.702 273.48 364.833ZM270.564 366.269C270.401 366.529 270.522 366.866 270.825 366.968C271.017 367.031 271.23 366.983 271.366 366.839C271.478 366.721 271.637 366.568 271.836 366.407C271.6 366.138 271.378 365.86 271.17 365.571C270.928 365.783 270.725 366.016 270.564 366.269Z" fill="white"/>
<path d="M302.505 174.73L259.789 178.158C259.789 178.158 274.92 308.595 276.697 353.494L286.387 352.508C286.387 352.508 326.025 187.308 302.505 174.73Z" fill="#595A57"/>
<path opacity="0.2" d="M298.437 284.706C295.881 281.332 294.03 277.509 292.777 273.546C291.48 269.445 290.783 265.191 290.421 260.934C290.223 258.609 290.064 256.255 290.154 253.923C290.264 251.053 290.62 248.197 290.869 245.338C291.339 239.958 291.418 234.504 288.719 229.591C286.242 225.082 282.484 221.331 279.711 216.991C278.301 214.783 277.153 212.421 276.648 209.878C276.172 207.482 276.206 204.978 276.639 202.578C277.326 198.781 279.296 193.811 276.593 190.33C274.179 187.219 270.068 186.087 266.252 187.409C264.27 188.095 262.548 189.333 261.24 190.881C260.338 182.903 259.787 178.158 259.787 178.158L302.503 174.73C315.964 181.929 308.737 239.109 300.095 286.709C299.52 286.06 298.96 285.398 298.437 284.706Z" fill="#3E4268"/>
<path d="M324.272 362.811C324.696 364.283 325.066 365.321 325.066 365.321C325.066 365.321 330.693 374.358 333.772 363.982V363.978C333.977 363.287 334.146 362.495 334.354 361.626C336.411 352.983 328.43 356.01 328.43 356.01C328.43 356.01 325.813 354.626 323.85 356.763C322.529 358.202 323.407 359.805 324.272 362.811Z" fill="#3E4268"/>
<path d="M331.497 347.027C331.421 351.279 332.175 359.829 332.175 359.829C330.965 363.545 328.45 364.136 326.566 362.132C325.159 360.636 323.497 351.871 321.996 347.144L331.497 347.027Z" fill="#EFD9D3"/>
<path d="M337.203 369.127C337.203 369.127 337.62 371.226 336.997 371.799C334.482 374.109 324.524 374.325 322.461 372.359C321.434 371.38 322.694 368.695 322.694 368.695L337.203 369.127Z" fill="#3E4268"/>
<path d="M331.845 353.152C331.845 353.152 332.224 361.272 331.297 362.826C330.369 364.381 327.902 365.573 326.98 363.69C326.058 361.807 324.724 354.057 325.806 353.304C326.887 352.552 331.603 352.003 331.845 353.152Z" fill="#575E84"/>
<path d="M331.086 363.598C331.086 363.598 334.559 356.047 332.139 357.207C329.056 358.685 327.584 358.07 325.262 357.637C323.429 357.296 326.432 363.331 326.735 363.848C327.039 364.365 331.086 363.598 331.086 363.598Z" fill="#575E84"/>
<path opacity="0.2" d="M324.272 362.811C324.696 364.282 325.066 365.321 325.066 365.321C325.066 365.321 330.693 374.358 333.772 363.982V363.977C333.666 363.56 333.564 363.129 333.467 362.689C332.718 362.121 331.908 361.703 331.105 361.541C327.99 360.921 325.755 361.608 324.272 362.811Z" fill="#231F20"/>
<path d="M336.802 370.432C334.17 372.493 325.023 373.024 323.114 370.951C321.204 368.879 323.264 361.179 331.61 362.838C335.051 363.521 338.647 368.989 336.802 370.432Z" fill="#575E84"/>
<path opacity="0.2" d="M330.08 363.257C331.222 363.311 332.136 363.559 332.861 363.938C332.599 364.322 332.316 364.689 332.014 365.044C331.167 364.575 330.027 364.208 328.639 364.377C325.446 364.765 325.362 364.874 325.362 364.874C325.362 364.874 327.394 363.129 330.08 363.257ZM333.896 365.059C334.114 365.394 333.965 365.833 333.574 365.97C333.327 366.058 333.05 365.998 332.87 365.815C332.676 365.619 332.469 365.436 332.25 365.266C332.55 364.912 332.832 364.546 333.094 364.168C333.414 364.435 333.683 364.733 333.896 365.059Z" fill="white"/>
<path d="M332.855 170.532C332.437 168.217 279.046 172.951 279.046 172.951L321.05 351.042L332.923 350.897C332.923 350.898 337.029 193.588 332.855 170.532Z" fill="#5F6750"/>
<path opacity="0.2" d="M324.606 190.381C319.529 194.1 313.334 196.176 308.282 199.938C305.924 201.692 303.838 203.841 302.646 206.466C301.286 209.464 301.227 212.837 301.855 216C302.464 219.071 303.53 222.076 302.954 225.234C302.601 227.172 301.627 228.885 300.775 230.657C299.95 232.372 299.147 234.097 298.415 235.847C297.31 238.487 296.402 241.2 295.798 243.98L279.046 172.952C279.046 172.952 332.437 168.217 332.855 170.532C333.233 172.614 333.541 175.799 333.791 179.853C331.588 183.918 328.503 187.527 324.606 190.381Z" fill="#3E4268"/>
<path d="M135.508 352.358L135.411 356.172L135.053 374.745L122.9 374.717C116.628 374.642 111.487 369.642 111.695 363.491C111.796 360.169 113.339 357.206 115.804 355.096C117.878 353.357 120.483 352.354 123.358 352.332L135.508 352.358Z" fill="#575E84"/>
<path d="M297.818 354.345C296.699 353.822 295.467 353.547 294.217 353.541L135.535 352.762L135.115 374.437L293.819 375.216C295.056 375.222 296.277 374.965 297.392 374.464L319.565 364.505L297.818 354.345Z" fill="#EBC0B8"/>
<path d="M314.088 366.964L319.563 364.504L314.07 361.938C313.955 363.62 313.956 365.296 314.088 366.964Z" fill="#575E84"/>
<path d="M135.542 352.414L293.665 353.191C294.026 356.477 294.191 360.055 294.119 363.796C294.038 367.982 293.669 371.961 293.074 375.558L135.108 374.781L135.542 352.414Z" fill="#FAB60C"/>
<path opacity="0.5" d="M231.987 356.996C231.987 356.996 273.166 367.526 282.087 358.894C291.007 350.261 231.987 356.996 231.987 356.996ZM135.508 352.356L135.411 356.169C130.194 357.194 122.083 356.15 115.802 355.092C117.877 353.353 120.482 352.35 123.356 352.328L135.508 352.356Z" fill="white"/>
<path opacity="0.1" d="M293.665 353.189L287.739 353.16C288.822 356.38 288.023 359.63 283.368 362.461C276.806 366.45 266.34 365.962 258.854 365.823C248.93 365.639 239.321 362.755 229.439 362.66C223.749 362.605 218.721 364.581 213.216 365.533C208.726 366.31 204.129 366.604 199.565 366.622C189.362 366.662 179.988 363.731 170.002 362.462C161.629 361.4 153.32 363.908 144.983 362.742C140.636 362.135 137.668 360.228 135.441 357.595L135.108 374.781L293.073 375.556C293.668 371.959 294.036 367.981 294.117 363.794C294.191 360.053 294.026 356.477 293.665 353.189Z" fill="#231F20"/>
<path d="M363.831 52.6955C344.781 49.7973 357.233 40.7202 346.641 36.4146C336.05 32.1201 317.878 44.1009 312.684 41.1279C307.489 38.1563 304.476 26.3696 287.863 32.22C282.414 34.1391 272.77 42.7947 277.222 51.6999C279.804 56.8624 279.325 60.5759 279.27 63.3534C279.183 68.2483 278.109 71.1395 282.842 79.3833C290.263 92.307 303.356 80.0711 318.336 89.9483C334.818 100.829 349.274 104.134 360.641 102.538C374.004 100.666 383.118 92.0019 386.296 80.8684C392.17 60.2403 382.893 55.5936 363.831 52.6955Z" fill="black"/>
<path opacity="0.2" d="M348.305 96.6635C345.892 95.3711 343.385 94.094 341.414 92.2178C339.235 90.1434 338.491 87.4463 337.676 84.7132C337.221 83.1851 336.704 81.6792 335.848 80.3022C334.895 78.7699 333.561 77.4429 332.2 76.2254C329.535 73.8445 326.442 71.9531 323.379 70.0658C320.709 68.4212 318.021 66.7115 316.395 64.0449C315.615 62.7622 315.125 61.2744 315.016 59.7976C314.888 58.0587 315.402 56.3503 315.341 54.6128C315.286 53.0792 314.706 51.7008 313.514 50.6469C312.394 49.6582 310.982 48.9663 309.678 48.2244C307.884 47.2025 306.272 45.9517 304.797 44.5664C305.783 47.9818 306.552 51.4512 307.108 54.9525C308.224 61.9885 308.593 69.1298 308.411 76.2379C308.329 79.4868 308.17 82.7538 307.791 85.9917C311.158 86.4576 314.691 87.5461 318.336 89.9506C332.689 99.4271 345.504 103.153 356.084 102.903C356.03 102.812 355.985 102.718 355.928 102.628C354.147 99.8445 351.222 98.2262 348.305 96.6635Z" fill="#3E4268"/>
<path d="M334.79 177.171C334.307 160.46 332.832 133.782 328.334 119.51C335.913 118.68 345.656 117.035 348.191 116.896C341.365 76.8826 307.743 68.3088 303.258 68.5681C273.386 70.2959 270.152 101.859 259.106 112.241C248.062 122.625 261.757 134.096 263.778 145.8C265.8 157.505 258.862 176.52 259.699 177.169C274.177 188.419 334.79 177.171 334.79 177.171Z" fill="#916D63"/>
<path opacity="0.15" d="M324.39 166.998C326.782 170.08 331.222 173.806 320.852 179.36L334.79 177.172C334.307 160.461 332.831 133.783 328.334 119.511C328.486 119.495 328.643 119.475 328.798 119.459C327.936 117.257 326.731 115.134 325.571 113.126C324.667 111.56 323.634 110.064 322.526 108.62C321.803 107.679 321.087 106.732 320.281 105.855C321.458 107.92 322.613 109.995 323.613 112.144C325.467 116.125 327.067 120.582 326.491 124.99C326.36 125.998 326.153 127.063 325.686 127.984C325.162 129.017 324.354 129.879 323.59 130.759C322.919 131.528 321.974 132.488 321.915 133.536C321.863 134.426 322.69 135.111 322.862 135.968C323.233 137.824 322.13 139.359 320.687 140.514C319.086 141.795 317.201 142.753 315.495 143.903C311.252 146.762 307.071 149.816 302.16 151.56C306.234 154.023 310.501 156.19 314.546 158.696C318.234 160.978 321.767 163.617 324.39 166.998Z" fill="#3E4268"/>
<path d="M328.297 119.381L330.893 139.691C310.502 150.782 293.171 150.808 293.171 150.808L291.113 156.99C291.113 156.99 316.585 162.818 338.593 152.3C351.369 146.193 346.292 125.407 346.941 117.047C340.901 117.532 332.838 118.278 328.297 119.381Z" fill="#EBC0B8"/>
<path d="M312.232 158.321C310.673 157.336 308.715 157.59 307.055 156.87C306.228 156.513 305.49 155.929 305.04 155.177C304.585 154.419 304.727 153.635 304.563 152.817C304.301 151.505 302.91 150.582 301.633 149.916C296.373 150.8 293.173 150.807 293.173 150.807L291.115 156.988C291.115 156.988 300.321 159.09 312.442 158.486C312.369 158.432 312.311 158.371 312.232 158.321ZM329.455 140.429C331.54 140.994 333.493 141.933 335.304 143.048C336.219 143.611 337.149 144.191 337.999 144.838C338.565 145.27 339.161 145.819 339.836 146.163C339.49 145.012 338.515 144.031 337.647 143.198C336.399 142 334.98 140.932 333.878 139.605C331.932 137.262 331.082 133.971 330.8 131.063C330.511 128.076 330.884 124.844 333.679 122.983C336.26 121.264 339.561 121.057 342.504 120.203C345.005 119.478 344.988 119.064 346.64 117.07C340.552 117.579 332.766 118.295 328.297 119.379L330.893 139.69C330.408 139.953 329.937 140.178 329.455 140.429Z" fill="#E0AFA9"/>
<path d="M293.33 62.1238C293.33 62.1238 293.889 64.2287 293.671 67.8798C293.607 68.9157 292.106 76.1665 295.511 76.8793C301.31 78.0954 305.322 72.5473 305.322 72.5473L305.251 53.6055L293.33 62.1238Z" fill="#EBC0B8"/>
<path d="M293.233 65.977L293.397 70.1523C293.397 70.1523 299.742 69.7515 299.258 63.0664L293.233 65.977Z" fill="#E0AFA9"/>
<path d="M283.533 47.1607C283.533 47.1607 286.462 67.5364 292.371 66.4437C298.574 65.2969 304.053 60.1427 304.83 56.7606C305.606 53.3771 305.251 53.6059 305.251 53.6059C305.251 53.6059 307.362 53.0721 307.078 49.6775C306.794 46.2816 304.451 48.9259 304.451 48.9259C304.451 48.9259 295.722 40.183 290.459 41.2133C285.201 42.2436 283.533 47.1607 283.533 47.1607Z" fill="#EBC0B8"/>
<path d="M288.818 61.6076C288.818 61.6076 291.567 62.5782 294.465 61.082C295.227 62.208 291.898 65.475 288.818 61.6076Z" fill="#FCFAF7"/>
<path d="M304.828 49.5941L305.367 52.7419C305.367 52.7419 306.076 51.15 306.08 49.9949C306.086 48.8384 304.828 49.5941 304.828 49.5941Z" fill="#E0AFA9"/>
<path d="M284.61 48.5674C284.531 46.5137 286.273 44.0926 286.491 43.7972C285.091 45.8301 285.692 49.0444 285.827 49.6587C287.87 51.2353 290.986 52.3654 294.323 48.9764C300.965 42.2261 304.417 50.8512 304.417 50.8512C304.417 50.8512 305.416 42.3412 299.078 40.2765C292.738 38.2103 286.711 40.3111 283.385 47.0822C283.385 47.0822 283.83 47.7603 284.61 48.5674Z" fill="black"/>
<path d="M301.133 149.774L297.61 143.015L297.123 149.361L301.133 149.774ZM217.265 101.672L225.184 108.274L218.488 107.819L217.265 101.672Z" fill="#E0AFA9"/>
<path fill-rule="evenodd" clip-rule="evenodd" d="M298.565 130.578L284.06 319.529L120.056 308.383L135.899 102.086L274.38 111.51L298.565 130.578Z" fill="#F8E1C1"/>
<path fill-rule="evenodd" clip-rule="evenodd" d="M152.729 118.258L210.666 122.198L209.9 132.167L151.964 128.227L152.729 118.258Z" fill="#C28C7E"/>
<path fill-rule="evenodd" clip-rule="evenodd" d="M149.657 162.145L207.594 166.085L206.829 176.054L148.892 172.114L149.657 162.145Z" fill="#C28C7E"/>
<path fill-rule="evenodd" clip-rule="evenodd" d="M206.412 181.473L276.506 186.24L273.261 228.5L203.167 223.733L206.412 181.473Z" fill="#C28C7E"/>
<path fill-rule="evenodd" clip-rule="evenodd" d="M148.475 177.531L197.718 180.88L194.474 223.141L145.231 219.792L148.475 177.531Z" fill="#C28C7E"/>
<path fill-rule="evenodd" clip-rule="evenodd" d="M144.813 225.211L272.843 233.918L269.598 276.179L141.568 267.472L144.813 225.211Z" fill="#C28C7E"/>
<path fill-rule="evenodd" clip-rule="evenodd" d="M298.565 130.58L275.348 133.485L274.38 111.512L298.565 130.58Z" fill="white"/>
<path d="M301.499 148.127C301.499 148.127 287.34 145.921 286.605 148.355C286.261 149.493 289.632 150.436 293.348 151.156C288.77 150.432 283.657 150.188 283.91 151.539C284.104 152.577 289.563 153.583 293.23 154.437C290.659 154.068 284.869 153.424 284.567 154.453C284.184 155.765 289.531 157.095 293.089 157.586C290.95 157.431 287.139 157.277 287.019 158.246C286.911 159.104 287.867 159.985 292.343 160.585C294.956 160.936 294.801 161.395 296.022 161.335C296.964 161.29 297.946 161.34 298.686 160.95C302.249 159.077 303.334 149.338 301.499 148.127Z" fill="#EBC0B8"/>
<path opacity="0.2" d="M287.357 158.435C287.496 157.994 289.033 157.872 289.173 157.969C289.173 157.969 289.049 159.142 288.931 159.334C288.813 159.525 287.219 158.876 287.357 158.435ZM284.723 154.568C284.862 154.128 286.398 154.005 286.538 154.102C286.538 154.102 286.413 155.275 286.295 155.466C286.177 155.657 284.585 155.009 284.723 154.568ZM284.318 151.369C284.456 150.928 285.993 150.804 286.133 150.903C286.133 150.903 286.009 152.076 285.89 152.266C285.774 152.457 284.181 151.808 284.318 151.369ZM287.114 148.267C287.253 147.827 288.79 147.704 288.928 147.801C288.928 147.801 288.804 148.974 288.686 149.165C288.57 149.356 286.976 148.706 287.114 148.267Z" fill="white"/>
<path d="M299.261 159.25C299.231 159.247 299.203 159.236 299.18 159.218C299.151 159.194 299.134 159.161 299.132 159.125C299.129 159.09 299.142 159.055 299.166 159.028C301.276 156.768 300.367 154.52 300.357 154.496C300.342 154.462 300.343 154.423 300.361 154.388C301.412 152.351 300.327 150.468 300.315 150.45C300.297 150.419 300.293 150.382 300.303 150.348C300.313 150.314 300.337 150.285 300.37 150.267C300.386 150.258 300.405 150.253 300.423 150.251C300.442 150.249 300.461 150.25 300.479 150.255C300.497 150.26 300.514 150.268 300.528 150.279C300.543 150.29 300.555 150.304 300.564 150.32C300.613 150.4 301.714 152.314 300.643 154.455C300.775 154.835 301.412 157.027 299.38 159.204C299.35 159.239 299.305 159.254 299.261 159.25ZM296.147 151.684C294.306 151.525 291.988 151.017 291.873 150.992C291.855 150.988 291.838 150.981 291.823 150.971C291.808 150.96 291.795 150.947 291.785 150.932C291.775 150.917 291.768 150.901 291.765 150.883C291.762 150.866 291.763 150.848 291.767 150.831C291.785 150.759 291.862 150.713 291.938 150.731C291.971 150.738 295.28 151.462 297.111 151.465C297.149 151.465 297.185 151.479 297.212 151.504C297.239 151.53 297.254 151.564 297.254 151.599C297.254 151.635 297.239 151.669 297.212 151.695C297.185 151.72 297.149 151.734 297.111 151.734C296.818 151.731 296.491 151.713 296.147 151.684ZM295.266 154.819C293.63 154.678 291.915 154.356 291.892 154.352C291.855 154.345 291.823 154.324 291.802 154.295C291.781 154.265 291.773 154.229 291.78 154.194C291.795 154.12 291.869 154.072 291.948 154.089C291.976 154.094 294.762 154.615 296.597 154.617C296.635 154.617 296.671 154.631 296.698 154.656C296.725 154.681 296.74 154.716 296.74 154.751C296.74 154.787 296.725 154.821 296.698 154.846C296.671 154.872 296.635 154.886 296.597 154.886C296.187 154.886 295.729 154.86 295.266 154.819ZM294.779 157.977C293.193 157.839 291.601 157.529 291.582 157.525C291.563 157.521 291.546 157.514 291.53 157.505C291.515 157.495 291.502 157.482 291.491 157.467C291.481 157.453 291.474 157.436 291.47 157.419C291.467 157.402 291.467 157.384 291.471 157.367C291.487 157.295 291.562 157.246 291.639 157.263C291.664 157.267 294.25 157.772 296.084 157.773C296.122 157.773 296.158 157.787 296.185 157.812C296.212 157.838 296.227 157.872 296.227 157.907C296.227 157.943 296.212 157.977 296.185 158.003C296.158 158.028 296.122 158.042 296.084 158.042C295.673 158.041 295.227 158.016 294.779 157.977Z" fill="#E0AFA9"/>
<path d="M217.715 101.544C217.715 101.544 222.023 113.081 219.833 114.079C218.809 114.547 217.386 111.865 216.123 108.859C217.526 112.587 218.559 116.842 217.24 116.84C216.225 116.839 214.417 112.415 213.034 109.472C213.787 111.571 215.304 116.331 214.375 116.745C213.193 117.272 211.093 112.992 210.072 110.083C210.556 111.854 211.298 115.028 210.398 115.282C209.601 115.506 208.618 114.842 207.348 111.179C206.607 109.04 206.195 109.243 206.06 108.208C205.957 107.41 205.756 106.594 206.007 105.912C207.223 102.63 216.281 100.193 217.715 101.544Z" fill="#EBC0B8"/>
<path opacity="0.2" d="M210.164 115.028C210.558 114.843 210.435 113.534 210.32 113.432C210.32 113.432 209.228 113.721 209.066 113.85C208.904 113.977 209.769 115.213 210.164 115.028ZM214.24 116.634C214.635 116.45 214.511 115.141 214.396 115.038C214.396 115.038 213.305 115.327 213.143 115.456C212.981 115.583 213.845 116.819 214.24 116.634ZM217.336 116.472C217.732 116.286 217.607 114.977 217.493 114.876C217.493 114.876 216.402 115.164 216.24 115.293C216.076 115.422 216.941 116.656 217.336 116.472ZM219.836 113.639C220.231 113.455 220.107 112.146 219.992 112.043C219.992 112.043 218.9 112.331 218.738 112.46C218.576 112.589 219.443 113.825 219.836 113.639Z" fill="white"/>
<path d="M207.528 105.165C207.534 105.187 207.547 105.206 207.564 105.221C207.582 105.236 207.603 105.247 207.626 105.251C207.65 105.256 207.674 105.255 207.696 105.247C207.718 105.24 207.738 105.227 207.753 105.209C209.566 103.085 211.837 103.495 211.86 103.5C211.895 103.507 211.932 103.5 211.961 103.479C213.728 102.278 215.68 102.894 215.7 102.899C215.768 102.921 215.842 102.888 215.864 102.824C215.87 102.809 215.872 102.793 215.871 102.777C215.87 102.762 215.866 102.746 215.859 102.732C215.851 102.717 215.841 102.704 215.828 102.694C215.815 102.683 215.801 102.675 215.784 102.67C215.7 102.643 213.714 102.019 211.854 103.253C211.474 103.201 209.296 103.01 207.551 105.057C207.525 105.089 207.518 105.129 207.528 105.165ZM215.185 106.593C215.625 108.114 216.468 109.98 216.511 110.072C216.539 110.133 216.614 110.163 216.68 110.136C216.745 110.11 216.776 110.039 216.748 109.977C216.736 109.95 215.533 107.287 215.242 105.75C215.239 105.734 215.233 105.719 215.224 105.706C215.215 105.692 215.203 105.681 215.189 105.671C215.175 105.662 215.159 105.656 215.143 105.652C215.126 105.649 215.109 105.649 215.092 105.652C215.059 105.657 215.029 105.675 215.009 105.702C214.99 105.728 214.982 105.76 214.987 105.792C215.035 106.037 215.102 106.309 215.185 106.593ZM212.352 107.823C212.744 109.175 213.315 110.563 213.323 110.581C213.349 110.644 213.424 110.674 213.489 110.651C213.555 110.626 213.591 110.558 213.563 110.494C213.552 110.472 212.623 108.214 212.334 106.675C212.331 106.659 212.325 106.644 212.316 106.631C212.307 106.617 212.295 106.605 212.281 106.596C212.267 106.587 212.251 106.58 212.234 106.577C212.218 106.574 212.2 106.574 212.184 106.577C212.113 106.589 212.066 106.652 212.079 106.718C212.145 107.062 212.241 107.441 212.352 107.823ZM209.437 108.727C209.816 110.036 210.36 111.325 210.367 111.34C210.394 111.402 210.469 111.433 210.535 111.408C210.551 111.402 210.565 111.393 210.578 111.382C210.59 111.371 210.6 111.358 210.606 111.343C210.613 111.328 210.617 111.312 210.617 111.296C210.617 111.28 210.614 111.265 210.607 111.25C210.598 111.229 209.717 109.138 209.427 107.599C209.425 107.582 209.419 107.567 209.41 107.552C209.401 107.538 209.389 107.526 209.375 107.516C209.361 107.506 209.345 107.5 209.328 107.496C209.311 107.492 209.294 107.492 209.276 107.495C209.259 107.498 209.243 107.504 209.228 107.513C209.214 107.522 209.201 107.534 209.191 107.547C209.182 107.561 209.175 107.577 209.172 107.593C209.169 107.609 209.17 107.626 209.174 107.642C209.235 107.987 209.33 108.359 209.437 108.727Z" fill="#E0AFA9"/>
<path d="M312.146 309.488C312.146 309.488 297.597 317.261 310 335.479C310 335.479 326.915 322.011 312.146 309.488Z" fill="#F8E1C1"/>
<g opacity="0.52">
<path d="M310.167 334.864L311.178 328.516C311.504 326.401 311.825 324.287 312.09 322.168C312.229 321.11 312.354 320.049 312.456 318.988C312.566 317.928 312.649 316.865 312.706 315.803C312.756 314.741 312.784 313.676 312.731 312.615C312.684 311.556 312.559 310.489 312.148 309.488C312.413 309.961 312.625 310.47 312.746 310.998C312.887 311.523 312.979 312.056 313.052 312.59C313.185 313.662 313.225 314.741 313.219 315.817C313.207 317.971 313.007 320.113 312.743 322.244C312.463 324.374 312.114 326.493 311.684 328.598C311.259 330.703 310.76 332.795 310.167 334.864Z" fill="white"/>
</g>
<path d="M358.058 338.272C358.058 338.272 343.656 333.187 337.303 352.159C337.303 352.16 357.369 355.461 358.058 338.272Z" fill="#F8E1C1"/>
<g opacity="0.52">
<path d="M337.863 351.911L343.219 348.843C344.997 347.812 346.771 346.781 348.517 345.707C349.392 345.176 350.261 344.634 351.116 344.077C351.976 343.525 352.822 342.955 353.653 342.365C354.48 341.772 355.294 341.165 356.057 340.503C356.824 339.847 357.548 339.136 358.06 338.273C357.861 338.728 357.604 339.169 357.28 339.56C356.971 339.962 356.625 340.338 356.267 340.701C355.54 341.421 354.757 342.084 353.946 342.714C352.324 343.974 350.6 345.104 348.847 346.184C347.085 347.253 345.289 348.27 343.458 349.224C341.628 350.185 339.764 351.085 337.863 351.911Z" fill="white"/>
</g>
<path d="M279.147 334.623L256.851 310.344L250.116 318.725L279.147 334.623ZM333.124 328.918L347.69 316.702L342.537 313.148L333.124 328.918Z" fill="#C28C7E"/>
<path d="M285.043 313.699C285.043 315.553 283.446 317.055 281.477 317.055C279.509 317.055 277.912 315.552 277.912 313.699C277.912 311.846 279.509 310.344 281.477 310.344C283.446 310.344 285.043 311.846 285.043 313.699Z" fill="#F8E1C1"/>
<path d="M367.127 247.675C364.21 253.959 361.474 259.852 358.906 265.391C358.774 265.672 358.385 265.83 358.035 265.747C347.267 263.2 336.738 259.833 326.551 255.678C326.221 255.544 326.015 255.194 326.093 254.896C327.64 249.031 329.287 242.789 331.042 236.133C331.065 236.042 331.109 235.956 331.17 235.882C331.231 235.807 331.309 235.746 331.397 235.702L331.4 235.701C331.552 235.623 331.73 235.595 331.911 235.636C343.833 238.341 355.558 242.09 366.763 246.782C366.917 246.847 367.042 246.962 367.113 247.106C367.13 247.135 367.143 247.164 367.152 247.193C367.153 247.2 367.155 247.202 367.155 247.202C367.205 247.357 367.195 247.525 367.127 247.675Z" fill="#C28C7E"/>
<path d="M354.108 255.499C353.227 254.098 352.243 252.727 351.091 251.575C352.955 251.606 354.867 251.43 356.816 251.025C360.464 250.288 363.981 249.008 367.168 247.213L367.18 247.206L367.172 247.195C367.124 247.075 367.046 246.959 366.929 246.88C367.026 246.955 367.099 247.062 367.135 247.186C363.872 248.82 360.361 249.994 356.734 250.643C354.563 251.047 352.523 251.197 350.605 251.109C349.489 250.084 348.222 249.254 346.758 248.762C345.146 248.285 343.371 248.246 341.529 248.527C337.006 245.901 333.639 241.414 331.416 235.698C331.569 235.622 331.74 235.594 331.905 235.628C331.733 235.583 331.544 235.606 331.379 235.689L331.386 235.701C332.281 238.177 333.349 240.654 334.881 242.839C336.486 245.294 338.482 247.231 340.769 248.64C335.961 249.548 330.816 252.436 327.025 255.111C331.074 252.654 336.632 249.771 341.588 249.13C341.877 249.092 342.185 249.057 342.469 249.035C343.904 248.921 345.268 249.026 346.528 249.402C347.608 249.767 348.583 250.327 349.497 251.027C349.7 251.188 349.909 251.36 350.108 251.538C351.496 252.757 352.676 254.276 353.722 255.832C355.571 258.673 357.077 261.824 358.297 265.113C357.292 261.683 355.907 258.431 354.108 255.499Z" fill="white"/>
<path d="M205.216 48.0256C207.158 56.2555 208.978 63.9737 210.691 71.2246C210.778 71.592 210.513 72.0164 210.1 72.1731C197.425 76.9945 184.425 80.8162 171.085 83.6436C170.653 83.7337 170.18 83.5285 170.029 83.179C167.05 76.2998 163.88 68.9782 160.499 61.1726C160.402 60.9466 160.415 60.7053 160.518 60.5029L160.52 60.5001C160.612 60.3138 160.775 60.1665 160.977 60.0869C174.898 54.6428 189.427 50.3719 204.164 47.3892C204.376 47.3462 204.587 47.3822 204.763 47.4724C204.801 47.4904 204.836 47.5112 204.867 47.5334C205.044 47.6516 205.168 47.8268 205.216 48.0256Z" fill="#F8E1C1"/>
<path d="M198.315 64.675C196.361 63.8833 194.328 63.1941 192.298 62.8363C194.172 61.5967 195.936 60.1157 197.559 58.3851C200.615 55.1667 203.121 51.4976 204.904 47.5414L204.91 47.5275L204.895 47.522C204.755 47.4374 204.587 47.375 204.412 47.375C204.566 47.3833 204.718 47.4402 204.852 47.5386C202.869 51.3866 200.286 54.9462 197.185 58.0634C195.342 59.9437 193.43 61.4843 191.457 62.706C189.561 62.4481 187.661 62.4883 185.83 62.9986C183.862 63.624 182.069 64.7957 180.457 66.3321C173.943 66.8091 167.147 64.6487 160.537 60.4887C160.63 60.3084 160.779 60.1642 160.971 60.0866C160.764 60.1587 160.595 60.3112 160.496 60.5067L160.511 60.5123C163.306 62.3621 166.273 64.0926 169.476 65.2172C172.958 66.5609 176.433 67.1225 179.788 66.963C175.714 71.1425 172.828 77.5197 171.122 82.7613C173.251 77.56 176.55 70.9081 180.978 66.8923C181.235 66.6566 181.513 66.4125 181.78 66.1976C183.118 65.1049 184.553 64.2812 186.094 63.7945C187.446 63.4201 188.846 63.3106 190.293 63.3855C190.618 63.4076 190.959 63.434 191.293 63.4756C193.609 63.7404 195.952 64.4449 198.188 65.2755C202.212 66.8369 206.131 68.9377 209.876 71.3727C206.234 68.6437 202.356 66.3585 198.315 64.675Z" fill="white"/>
</svg>
