<svg width="28" height="28" viewBox="0 0 28 28" fill="none" xmlns="http://www.w3.org/2000/svg">
<rect x="0.5" y="0.5" width="27" height="27" rx="2.5" fill="white"/>
<rect x="0.5" y="0.5" width="27" height="27" rx="2.5" stroke="#EAECF0"/>
<path d="M10.6094 9.2832V10.4043H9.48828V9.14648C9.48828 8.59961 9.92578 8.13477 10.5 8.13477H15.4766C16.0508 8.13477 16.4883 8.59961 16.4883 9.14648V10.4043H15.3672V9.2832H15.4766C15.4219 9.2832 15.3672 9.22852 15.3672 9.14648V9.2832H10.6094V9.14648C10.6094 9.22852 10.5547 9.2832 10.5 9.2832H10.6094ZM18.4844 10.4043C18.7578 10.4043 18.9766 10.623 18.9766 10.8965V11.3887C18.9766 11.4707 18.9219 11.5254 18.8672 11.5254H17.9102L17.5273 19.7012C17.5 20.2207 17.0625 20.6582 16.543 20.6582H9.43359C8.91406 20.6582 8.47656 20.2207 8.44922 19.7012L8.06641 11.5254H7.10938C7.05469 11.5254 7 11.4707 7 11.3887V10.8965C7 10.623 7.21875 10.4043 7.49219 10.4043H18.4844ZM16.4062 19.5098L16.7891 11.5254H9.1875L9.57031 19.5098H16.4062Z" fill="black"/>
</svg>
