<svg width="20" height="17" viewBox="0 0 20 17" fill="none" xmlns="http://www.w3.org/2000/svg">
<path d="M18.6982 0.537109C19.0742 0.537109 19.375 0.875488 19.375 1.25146V11.8916C19.375 12.2676 19.0742 12.5684 18.6982 12.5684H10.5396V14.9746H14.2241C14.4121 14.9746 14.5625 15.1626 14.5625 15.3506V16.3657C14.5625 16.4785 14.4873 16.5537 14.3745 16.5537H5.12549C5.0127 16.5537 4.9375 16.4785 4.9375 16.3657V15.3506C4.9375 15.1626 5.08789 14.9746 5.27588 14.9746H8.96045V12.5684H0.801758C0.425781 12.5684 0.125 12.2676 0.125 11.8916V1.25146C0.125 0.875488 0.425781 0.537109 0.801758 0.537109H18.6982ZM17.8335 11.0269V2.11621H1.6665V11.0269H17.8335Z" fill="black"/>
</svg>
