<svg width="28" height="28" viewBox="0 0 28 28" fill="none" xmlns="http://www.w3.org/2000/svg">
<rect x="0.5" y="0.5" width="27" height="27" rx="2.5" fill="#C28C7E"/>
<rect x="0.5" y="0.5" width="27" height="27" rx="2.5" stroke="#EAECF0"/>
<path d="M21.3424 13.8481C21.3212 13.7994 20.8012 12.6463 19.6399 11.485C18.5624 10.4088 16.7112 9.125 13.9999 9.125C11.2887 9.125 9.43741 10.4088 8.35991 11.485C7.19866 12.6463 6.67866 13.7975 6.65741 13.8481C6.63604 13.8961 6.625 13.9481 6.625 14.0006C6.625 14.0532 6.63604 14.1051 6.65741 14.1531C6.67866 14.2012 7.19866 15.3544 8.35991 16.5156C9.43741 17.5919 11.2887 18.875 13.9999 18.875C16.7112 18.875 18.5624 17.5919 19.6399 16.5156C20.8012 15.3544 21.3212 14.2031 21.3424 14.1531C21.3638 14.1051 21.3748 14.0532 21.3748 14.0006C21.3748 13.9481 21.3638 13.8961 21.3424 13.8481ZM13.9999 18.125C12.0387 18.125 10.3262 17.4113 8.90928 16.0044C8.31533 15.4141 7.81272 14.7385 7.41803 14C7.81261 13.2616 8.31523 12.5862 8.90928 11.9963C10.3262 10.5888 12.0387 9.875 13.9999 9.875C15.9612 9.875 17.6737 10.5888 19.0905 11.9963C19.6846 12.5862 20.1872 13.2616 20.5818 14C20.1837 14.7631 18.1874 18.125 13.9999 18.125ZM13.9999 11.125C13.4313 11.125 12.8754 11.2936 12.4026 11.6095C11.9299 11.9254 11.5614 12.3744 11.3438 12.8998C11.1262 13.4251 11.0692 14.0032 11.1802 14.5609C11.2911 15.1186 11.5649 15.6309 11.967 16.0329C12.3691 16.435 12.8813 16.7088 13.439 16.8198C13.9967 16.9307 14.5748 16.8738 15.1001 16.6562C15.6255 16.4386 16.0745 16.0701 16.3904 15.5973C16.7063 15.1245 16.8749 14.5686 16.8749 14C16.8739 13.2378 16.5707 12.5071 16.0317 11.9682C15.4928 11.4292 14.7621 11.126 13.9999 11.125ZM13.9999 16.125C13.5796 16.125 13.1688 16.0004 12.8193 15.7669C12.4699 15.5334 12.1975 15.2015 12.0367 14.8132C11.8758 14.4249 11.8337 13.9976 11.9157 13.5854C11.9977 13.1732 12.2001 12.7946 12.4973 12.4974C12.7945 12.2002 13.1731 11.9978 13.5853 11.9158C13.9976 11.8338 14.4248 11.8759 14.8131 12.0368C15.2014 12.1976 15.5333 12.47 15.7668 12.8194C16.0003 13.1689 16.1249 13.5797 16.1249 14C16.1249 14.5636 15.901 15.1041 15.5025 15.5026C15.104 15.9011 14.5635 16.125 13.9999 16.125Z" fill="white" stroke="white" stroke-width="0.5"/>
</svg>
