<svg width="273" height="265" viewBox="0 0 273 265" fill="none" xmlns="http://www.w3.org/2000/svg">
<path d="M230 144.906C230 81.3928 178.513 29.6831 115 29.6831C51.4873 29.6831 0 81.1703 0 144.683V260.575H114.554C178.313 260.575 230 208.664 230 144.906Z" fill="#C9D1C2"/>
<path d="M68.9497 163.332C68.9497 163.332 67.6024 165.916 67.5435 167.287C67.4835 168.685 68.276 172.735 67.9168 173.248C67.5576 173.761 62.7997 192.327 64.4091 207.816C66.5419 228.342 65.5289 260.819 65.5289 260.819C65.5289 260.819 84.2696 264.391 91.7695 260.622C100.314 228.293 100.41 213.312 100.41 213.312C100.41 213.312 103.907 228.334 107.302 236.871C111.616 247.72 117.752 262.444 117.752 262.444L141.683 256.882L137.036 199.785L137.058 196.328C137.058 196.328 133.64 174.882 133.511 174.216C133.36 173.549 134.154 170.756 133.65 169.413C133.145 168.071 132.333 166.054 132.333 166.054L68.9497 163.332Z" fill="#323333"/>
<path fill-rule="evenodd" clip-rule="evenodd" d="M134.82 186.083C133.761 186.117 132.522 186.116 131.219 186.06C129.061 185.968 126.731 185.709 124.845 185.073C120.649 183.678 119.894 181.347 119.753 180.442C112.6 182.909 105.632 184.195 99.0285 184.361C99.1044 185.738 99.8881 201.873 100.328 212.064L99.879 212.045C99.4398 201.827 98.6572 185.666 98.5779 184.368C97.8865 184.391 97.1962 184.388 96.507 184.358L96.5047 184.411C96.4598 184.409 96.4002 184.398 96.3261 184.377C95.989 184.362 95.6519 184.348 95.3148 184.333C89.8538 184.099 84.6977 183.058 79.9834 181.165C79.5145 182.122 76.8871 186.158 65.2865 185.765C65.309 185.59 65.324 185.414 65.3316 185.238C66.0069 185.241 66.6362 185.268 67.2441 185.268C67.6091 182.536 68.1057 179.36 68.4991 179.113L68.7485 179.07L68.8137 179.126C70.3349 179.878 74.2637 181.712 78.1457 182.539C78.9842 181.888 79.3923 181.298 79.5407 180.987C75.0927 179.184 71.0608 176.607 67.5313 173.338C67.5486 173.285 67.5651 173.251 67.5808 173.234C67.6292 173.157 67.6584 172.999 67.6686 172.762C75.1341 179.794 84.9054 183.463 95.9217 183.831C95.4726 182.755 95.3612 180.108 95.614 176.842L96.0623 176.888C95.7565 180.865 96.0354 183.281 96.4184 183.799C96.4326 183.818 96.4469 183.836 96.4611 183.854C107.843 184.105 120.526 180.792 133.249 173.914C133.244 174.037 133.255 174.135 133.281 174.206C133.28 174.242 133.291 174.33 133.315 174.472C128.913 176.846 124.53 178.771 120.186 180.302C120.293 180.967 120.917 183.214 124.957 184.55C127.909 185.548 131.957 185.643 134.753 185.552C134.775 185.729 134.798 185.906 134.82 186.083ZM77.5658 182.937C73.8422 182.09 70.201 180.375 68.7023 179.623C68.4515 180.22 68.0259 182.791 67.6958 185.234C72.9007 185.141 75.8979 184.028 77.5658 182.937Z" fill="#4B4D54"/>
<path d="M127.188 52.2187C127.188 52.2187 130.008 18.7863 121.686 9.18295C110.491 -3.73479 86.3065 0.439351 81.0287 12.1963C75.7509 23.9533 77.4406 52.2187 77.4406 52.2187C77.4406 52.2187 85.0845 59.2169 102.314 59.2169C127.258 59.2169 127.188 52.2187 127.188 52.2187Z" fill="url(#paint0_linear_9022_24437)"/>
<path d="M84.1825 30.8924C83.386 29.8097 81.905 28.4531 81.1084 28.9882C80.3119 29.511 78.918 31.5769 79.6274 34.7256C80.3368 37.8744 82.0916 39.7536 83.1993 40.5999C84.3069 41.4462 86.0618 41.4462 86.0618 41.4462L84.1825 30.8924Z" fill="#FAD4AF"/>
<g style="mix-blend-mode:multiply" opacity="0.4">
<path d="M82.5397 29.2627C83.1371 29.661 83.7593 30.3206 84.1825 30.8931L86.0618 41.4469C86.0618 41.4469 84.3069 41.4469 83.1993 40.6006C83.0997 40.5259 83.0002 40.4388 82.9006 40.3517L82.5397 29.2627Z" fill="#E8BFAC"/>
</g>
<path d="M82.5994 42.122C82.5994 42.4799 82.8777 42.7582 83.2356 42.7582C83.5537 42.7582 83.832 42.4799 83.832 42.122V39.259C83.832 38.9011 83.5537 38.6228 83.2356 38.6228C82.8777 38.6228 82.5994 38.9011 82.5994 39.259V42.122Z" fill="white"/>
<path d="M111.537 42.3801C111.537 42.3801 110.529 53.0708 110.218 56.568C109.894 60.0528 110.252 64.7173 115.653 68.4136C121.055 72.1224 125.675 73.1828 129.745 76.7796C132.832 79.5052 134.512 81.596 135.146 82.9775C135.781 84.3465 135.731 86.5244 134.512 87.6321C133.292 88.7398 119.851 96.7671 101.481 96.7671C83.1117 96.7671 69.6705 88.7398 68.4508 87.6321C67.2312 86.5244 67.1814 84.3465 67.8161 82.9775C68.4508 81.596 70.131 79.5052 73.2175 76.7796C77.2872 73.1828 81.5311 71.4902 86.9325 67.7815C92.3214 64.0851 93.0681 60.0528 92.7445 56.568C92.4334 53.0708 91.4253 42.3801 91.4253 42.3801H111.537Z" fill="#FAD4AF"/>
<g style="mix-blend-mode:multiply">
<path d="M92.708 53.7345C92.3595 49.8639 91.4261 39.9946 91.4261 39.9946H111.538C111.538 39.9946 110.617 49.8639 110.256 53.7345C107.145 57.5304 103.386 59.2105 101.482 59.2105C99.5904 59.2105 95.8194 57.5304 92.708 53.7345Z" fill="#F2D5C7"/>
</g>
<path d="M118.781 30.8924C119.577 29.8097 121.058 28.4531 121.855 28.9882C122.651 29.511 124.058 31.5769 123.336 34.7256C122.626 37.8744 120.872 39.7536 119.764 40.5999C118.656 41.4462 116.901 41.4462 116.901 41.4462L118.781 30.8924Z" fill="#FAD4AF"/>
<g style="mix-blend-mode:multiply" opacity="0.4">
<path d="M120.436 29.2625C119.826 29.6607 119.204 30.3203 118.781 30.8928L116.901 41.4466C116.901 41.4466 118.656 41.4466 119.764 40.6003C119.863 40.5257 119.963 40.4385 120.075 40.3514L120.436 29.2625Z" fill="#E8BFAC"/>
</g>
<path d="M119.125 42.122C119.125 42.4799 119.403 42.7582 119.761 42.7582C120.079 42.7582 120.357 42.4799 120.357 42.122V39.259C120.357 38.9011 120.079 38.6228 119.761 38.6228C119.403 38.6228 119.125 38.9011 119.125 39.259V42.122Z" fill="white"/>
<path d="M101.482 1.40967C120.586 1.40967 120.748 18.8708 120.387 23.961C120.038 29.0388 118.682 36.531 117.835 40.6629C116.989 44.7824 115.035 48.2049 111.538 51.4781C108.053 54.7637 103.647 56.1949 101.482 56.1949C99.3163 56.1949 94.9231 54.7637 91.4259 51.4781C87.9287 48.2049 85.9747 44.7824 85.1284 40.6629C84.2821 36.531 82.9256 29.0388 82.5771 23.961C82.2162 18.8708 82.378 1.40967 101.482 1.40967Z" fill="#FFDCB9"/>
<path d="M117.112 26.2503C119.928 28.2542 120.493 27.6893 119.096 34.1445C118.807 37.4537 116.135 48.2752 110.585 52.2061C104.081 56.8122 101.753 56.2897 100.724 56.2897C98.0145 56.2897 92.2225 53.208 88.3383 48.2752C85.8211 45.0785 84.5703 39.2278 84.4937 37.5621C83.3049 31.5649 82.3296 29.5633 83.6571 27.1542C85.6763 23.4896 97.2045 25.0476 98.7185 28.4001C101.142 33.7668 99.8635 39.2982 99.7139 40.3453C99.5643 41.3923 100.591 41.8168 101.488 41.8168C102.364 41.8168 103.329 40.6423 102.743 39.8692C102.178 39.122 102.247 29.8581 103.519 27.6893C104.79 25.5205 113.284 23.5265 117.112 26.2503Z" fill="url(#paint1_linear_9022_24437)"/>
<path d="M99.0574 40.6194C99.0574 40.6194 99.638 41.468 100.903 41.468C102.168 41.468 102.972 40.6194 102.972 40.6194C102.972 40.6194 102.168 40.9276 100.903 40.9276C99.638 40.9276 99.0574 40.6194 99.0574 40.6194Z" fill="#FFEFE0"/>
<path d="M97.6198 40.0765C97.6198 40.9522 98.5353 40.9522 99.2744 40.9522C98.2899 40.0765 99.522 38.9942 99.522 37.3203C99.1255 38.3775 97.6198 39.4483 97.6198 40.0765Z" fill="#FFE1C3"/>
<path d="M104.537 40.0765C104.537 40.9522 103.622 40.9522 102.883 40.9522C103.867 40.0765 102.635 38.9942 102.635 37.3203C103.032 38.3775 104.537 39.4483 104.537 40.0765Z" fill="#FFE1C3"/>
<ellipse cx="1.43861" cy="0.718836" rx="1.43861" ry="0.718836" transform="matrix(-1 0 0 1 102.274 50.7783)" fill="url(#paint2_linear_9022_24437)"/>
<path d="M101.285 48.7863C97.2353 48.7863 95.6036 45.6861 95.6778 44.7219C95.752 43.7578 99.4603 44.4401 101.285 44.4401C103.109 44.4401 106.818 43.7578 106.892 44.7219C106.966 45.6861 105.32 48.7863 101.285 48.7863Z" fill="#73102A"/>
<path d="M96.4786 44.9595C96.1523 44.7667 95.9743 44.5887 95.9298 44.3959C96.8049 43.9508 99.7271 44.4404 101.285 44.4404C102.812 44.4404 105.69 43.9657 106.61 44.381C106.61 44.5887 106.447 44.7815 106.091 44.9595C104.815 45.36 103.213 45.627 101.285 45.627C99.3415 45.627 97.7543 45.36 96.4786 44.9595Z" fill="white"/>
<path d="M105.304 47.4062C104.399 48.1627 103.079 48.7857 101.284 48.7857C99.4895 48.7857 98.1693 48.1627 97.2645 47.4062C98.1693 46.6497 99.4895 46.0564 101.284 46.0564C103.079 46.0564 104.399 46.6497 105.304 47.4062Z" fill="#CC5050"/>
<path d="M106.769 44.3062C106.769 44.3062 107.146 44.2365 107.167 44.3636C107.226 44.7124 106.868 44.5116 106.868 44.5116C106.868 44.5116 103.275 44.837 100.949 44.8528C98.9022 44.8666 95.8212 44.5116 95.8212 44.5116C95.8212 44.5116 95.1269 44.3855 95.249 44.1611C95.3717 43.9355 95.8212 44.3062 95.8212 44.3062C95.8212 44.3062 97.8542 43.4078 101.335 43.408C104.815 43.4082 106.769 44.3062 106.769 44.3062Z" fill="#CC5050"/>
<path d="M106.922 44.4275C106.545 43.8931 105.517 48.3853 101.136 47.994C96.262 47.5587 96.3016 44.4084 95.8261 44.2898C95.02 46.0257 97.2725 49.7222 101.136 49.7222C103.677 49.7221 106.922 47.4632 106.922 44.4275Z" fill="#A83939"/>
<path d="M110.158 25.7472C112.045 25.6062 114.054 25.8021 115.236 26.0209C115.342 26.0406 115.412 25.925 115.336 25.848C114.744 25.2485 113.33 24.3426 111.017 23.9451C108.448 23.5035 106.088 23.992 105.22 24.367C105.178 24.3851 105.152 24.4267 105.152 24.4725V26.6513C105.152 26.7332 105.233 26.7904 105.31 26.7633C106.375 26.3896 108.246 25.8901 110.158 25.7472Z" fill="#1D252C"/>
<path d="M104.632 26.8748V24.5098L104.379 24.6438C104.186 24.7461 104.066 24.9464 104.066 25.1646V26.4608C104.066 26.7547 104.351 26.9638 104.632 26.8748Z" fill="#1D252C"/>
<path d="M86.6958 26.3908L86.6858 26.393C86.5801 26.4162 86.5086 26.3016 86.5818 26.2219C87.186 25.5641 88.6761 24.4068 91.0001 24.0073C93.5689 23.5658 95.929 24.0543 96.7976 24.4292C96.8396 24.4474 96.8655 24.489 96.8655 24.5347V26.7135C96.8655 26.7955 96.7845 26.8527 96.7072 26.8256C95.6418 26.4519 93.7717 25.9524 91.8596 25.8095C89.9759 25.6687 87.8923 26.1274 86.6958 26.3908Z" fill="#1D252C"/>
<path d="M97.3857 26.937V24.572L97.6384 24.7061C97.8312 24.8083 97.9517 25.0086 97.9517 25.2268V26.523C97.9517 26.817 97.6659 27.026 97.3857 26.937Z" fill="#1D252C"/>
<path d="M107.733 30.7523C107.733 31.6872 108.491 32.4452 109.426 32.4452C110.361 32.4452 111.119 31.6872 111.119 30.7523C111.119 29.8173 110.361 29.9142 109.426 29.9142C108.491 29.9142 107.733 29.8173 107.733 30.7523Z" fill="url(#paint3_linear_9022_24437)" stroke="black" stroke-width="0.117899"/>
<circle cx="0.590039" cy="0.590039" r="0.590039" transform="matrix(-1 0 0 1 110.183 30.3604)" fill="black"/>
<path d="M109.396 30.5267C109.396 30.7461 109.24 30.9239 109.049 30.9239C108.857 30.9239 108.702 30.7461 108.702 30.5267C108.702 30.3073 108.857 30.2302 109.049 30.2302C109.24 30.2302 109.396 30.3073 109.396 30.5267Z" fill="white"/>
<circle cx="0.174457" cy="0.174457" r="0.174457" transform="matrix(-1 0 0 1 108.702 31.1292)" fill="#D9D9D9"/>
<path d="M114.187 30.6324L113.346 31.3775C113.346 31.3775 111.126 30.2959 109.669 30.2959C107.457 30.2959 105.511 31.3775 105.511 31.3775C105.903 30.7445 107.126 29.5508 109.26 29.4547C111.394 29.3586 113.506 30.1597 114.187 30.6324Z" fill="#00061C"/>
<path d="M94.293 30.8783C94.293 31.8132 93.535 32.5711 92.6001 32.5711C91.6651 32.5711 90.9072 31.8132 90.9072 30.8783C90.9072 29.9433 91.6651 30.0402 92.6001 30.0402C93.535 30.0402 94.293 29.9433 94.293 30.8783Z" fill="url(#paint4_linear_9022_24437)" stroke="black" stroke-width="0.117899"/>
<circle cx="0.590039" cy="0.590039" r="0.590039" transform="matrix(-1 0 0 1 93.0247 30.6245)" fill="black"/>
<path d="M93.128 30.7637C93.128 30.9831 92.9727 31.161 92.7812 31.161C92.5896 31.161 92.4343 30.9831 92.4343 30.7637C92.4343 30.5443 92.5896 30.4673 92.7812 30.4673C92.9727 30.4673 93.128 30.5443 93.128 30.7637Z" fill="white"/>
<circle cx="0.174457" cy="0.174457" r="0.174457" transform="matrix(-1 0 0 1 92.019 31.2588)" fill="#D9D9D9"/>
<path d="M87.8772 30.8446L88.7184 31.5896C88.7184 31.5896 90.9384 30.5081 92.3958 30.5081C94.607 30.5081 96.5538 31.5896 96.5538 31.5896C96.1612 30.9567 94.9386 29.763 92.8043 29.6669C90.67 29.5707 88.5582 30.3719 87.8772 30.8446Z" fill="#00061C"/>
<path opacity="0.5" d="M99.6521 41.5724C99.51 41.396 99.1033 41.0066 98.613 40.8594" stroke="#6F4931" stroke-width="0.331506" stroke-linecap="round"/>
<path opacity="0.5" d="M102.51 41.5398C102.639 41.3795 103.009 41.0254 103.455 40.8916" stroke="#6F4931" stroke-width="0.331506" stroke-linecap="round"/>
<path d="M80.1757 13.7173C82.6506 6.77915 90.0613 -3.22864 101.864 1.07906C111.43 -3.37015 123.138 6.99696 123.138 12.9512C123.138 19.5401 123.322 24.5685 119.786 29.4867C114.944 22.6613 102.781 20.2489 101.864 10.8991C101.864 19.9391 88.0499 20.9479 83.1058 29.7877C83.1058 29.7877 78.5454 20.2048 80.1757 13.7173Z" fill="#203248"/>
<path d="M89.2147 65.5634L89.2647 65.5399C93.8085 69.133 97.8549 70.5784 101.78 70.4544C105.706 70.3304 109.474 68.6375 113.46 66.0315C114.421 66.2096 115.964 66.7089 117.795 67.3969C119.675 68.1035 121.843 69.0031 123.965 69.9407C126.086 70.8784 128.159 71.8532 129.849 72.7098C131.546 73.57 132.837 74.3018 133.411 74.7542L133.412 74.7548C133.651 74.9413 133.861 75.3377 134.019 75.9702C134.174 76.5928 134.269 77.4028 134.313 78.3647C134.402 80.2873 134.284 82.7817 134.056 85.5221C133.726 89.4796 133.168 93.9292 132.671 97.8809C132.48 99.4023 132.298 100.85 132.143 102.167L132.142 102.168C131.87 104.524 131.374 107.189 130.824 110.002C130.73 110.48 130.635 110.963 130.539 111.449C130.073 113.819 129.59 116.27 129.192 118.703C128.232 124.558 127.749 130.361 129.166 134.744C130.557 139.044 131.062 143.854 131.338 147.881C131.406 148.875 131.461 149.83 131.512 150.716C131.563 151.611 131.61 152.436 131.663 153.161C131.717 153.888 131.777 154.528 131.854 155.059C131.931 155.585 132.027 156.02 132.159 156.327C132.628 157.417 133.328 160.097 133.558 162.776C133.673 164.114 133.669 165.439 133.467 166.558C133.264 167.682 132.867 168.561 132.227 169.056C130.855 170.105 126.855 172.034 120.656 173.758C114.466 175.479 106.103 176.989 96.0191 177.215L96.0241 177.436L96.0191 177.215C93.2583 177.278 86.1324 176.87 79.777 174.78C76.5993 173.735 73.632 172.275 71.4979 170.257C69.3757 168.251 68.0767 165.695 68.2095 162.429C72.1255 148.816 72.7671 138.354 73.2582 126.921L73.2609 126.858L73.2293 126.802C72.9128 126.248 72.6088 125.725 72.3164 125.222C70.3449 121.831 68.8996 119.345 67.701 114.28C66.3218 108.452 65.2724 99.2175 64.1641 81.3201C64.3273 80.7759 64.4948 80.3755 64.7114 80.0312C64.9322 79.68 65.2106 79.3771 65.6061 79.0373C66.0043 78.6952 66.5139 78.3217 67.1965 77.8251C67.233 77.7985 67.2701 77.7716 67.3076 77.7443C67.9684 77.2638 68.7798 76.6737 69.7841 75.9023C71.8815 74.2913 76.7717 71.6897 81.1597 69.482C83.3491 68.3804 85.4064 67.3803 86.9165 66.6556C87.6715 66.2933 88.2896 65.9998 88.7189 65.797C88.9335 65.6955 89.101 65.6168 89.2147 65.5634Z" fill="url(#paint5_linear_9022_24437)" stroke="#AE2746" stroke-width="0.442008"/>
<path d="M57.1718 139.182C55.9643 136.301 53.2045 133.962 50.6134 132.315C50.0735 130.667 47.033 129.932 45.1416 132.475C43.2502 135.019 40.5187 141.445 44.9298 148.072C49.3389 154.729 60.623 176.092 61.0069 177.695C61.3908 179.299 62.8251 185.106 65.2877 188.166C71.4655 188.306 79.2845 180.79 79.2845 180.79C79.2845 180.79 76.3807 176.932 70.4905 172.945C67.548 170.154 61.066 148.37 57.1718 139.182Z" fill="url(#paint6_linear_9022_24437)"/>
<g style="mix-blend-mode:multiply">
<path d="M132.133 149.402C125.084 123.419 131.039 111.893 132.132 102.428C132.183 102.078 132.224 101.727 132.257 101.376C129.926 99.0567 125.854 93.5747 123.49 93.2618C120.841 105.024 137.397 122.232 110.98 124.646C108.615 124.862 126.87 144.27 132.133 149.402Z" fill="#E8EAF2"/>
</g>
<g style="mix-blend-mode:multiply">
<path d="M71.0669 145.3C73.0004 141.794 73.4694 130.684 73.4694 126.532C71.4361 121.618 67.7012 116.134 67.1082 112.152C64.1342 92.1841 62.756 81.9973 65.1205 81.6844C68.2554 97.8461 64.8154 121.805 82.9224 127.53C72.3551 131.989 76.3301 140.167 71.0669 145.3Z" fill="#E8EAF2"/>
</g>
<path d="M149.704 114.399L149.495 114.472L149.503 114.494L149.515 114.514L149.704 114.399ZM149.704 114.399C149.515 114.514 149.515 114.514 149.515 114.514L149.516 114.515L149.517 114.518L149.524 114.529L149.55 114.572C149.573 114.61 149.608 114.667 149.653 114.741C149.742 114.89 149.873 115.109 150.039 115.39C150.37 115.951 150.839 116.759 151.393 117.744C152.501 119.714 153.943 122.391 155.285 125.22C156.628 128.051 157.865 131.027 158.567 133.597C158.918 134.883 159.133 136.058 159.162 137.058C159.192 138.062 159.035 138.864 158.668 139.426C156.517 142.72 154.215 144.658 151.981 145.721C149.747 146.785 147.568 146.981 145.651 146.769C143.733 146.556 142.078 145.935 140.901 145.365C140.314 145.081 139.847 144.81 139.527 144.61C139.368 144.511 139.245 144.429 139.163 144.372C139.133 144.352 139.108 144.335 139.089 144.321L139.077 144.293L138.973 144.038C138.881 143.815 138.746 143.486 138.574 143.063C138.23 142.217 137.738 140.996 137.145 139.497C135.959 136.5 134.369 132.39 132.755 127.94C131.14 123.49 129.502 118.702 128.218 114.349C126.933 109.991 126.008 106.084 125.812 103.389L125.812 103.388C125.511 99.4303 126.236 91.5271 127.501 84.85C128.134 81.5122 128.899 78.4972 129.731 76.4435C130.148 75.413 130.574 74.6465 130.994 74.1998C131.203 73.9776 131.398 73.848 131.576 73.7947C131.747 73.7437 131.917 73.7578 132.099 73.8541C132.29 73.9554 132.495 74.0531 132.713 74.1566C133.791 74.6708 135.174 75.3299 136.718 77.3016C138.58 79.6805 140.675 83.9776 142.651 92.2284C143.71 96.6525 145.421 102.215 146.867 106.668C147.59 108.895 148.247 110.846 148.724 112.24C148.962 112.937 149.155 113.495 149.288 113.879C149.355 114.071 149.407 114.219 149.442 114.319L149.482 114.434L149.492 114.463L149.495 114.47L149.495 114.472L149.495 114.472C149.495 114.472 149.495 114.472 149.704 114.399Z" fill="url(#paint7_linear_9022_24437)" stroke="#AE2746" stroke-width="0.442008"/>
<g style="mix-blend-mode:multiply">
<path d="M137.5 139.454C139.429 126.848 149.849 111.026 149.849 111.026C149.849 111.026 134.62 115.352 137.5 139.454Z" fill="#E8EAF2"/>
</g>
<path d="M163.293 82.0647C159.526 92.0802 152.057 106.482 150.046 112.355C147.192 120.764 149.548 131.755 152.378 134.895C155.216 138.013 156.389 139.305 157.961 137.954C159.541 136.581 165.506 125.865 165.962 121.31C166.311 117.946 171.957 97.2659 173.535 83.6485C173.97 79.8858 164.452 78.9816 163.293 82.0647Z" fill="#F1BF98"/>
<path d="M180.564 70.4131C177.651 77.6227 174.079 79.1461 173.361 85.0489C169.45 85.8329 162.424 85.6078 162.814 82.8224C163.371 78.8442 163.392 78.2843 162.326 76.4003C161.26 74.5162 161.336 73.0809 160.218 69.5709C159.255 66.5447 155.492 61.6229 156.065 60.8358C156.638 60.0488 157.358 59.8602 158.907 60.7715C160.456 61.6829 162.509 66.0177 164.612 65.0403C166.715 64.0629 169.52 50.2315 170.099 48.5779C170.678 46.9243 171.984 47.9169 172.354 48.5758C172.725 49.2346 170.27 60.9758 171.469 61.0859C172.668 61.1961 174.512 48.4447 177.529 49.301C179.405 49.8332 174.889 62.2591 175.562 62.4111C176.234 62.5632 176.725 61.2581 178.449 57.6254C180.172 53.9928 181.1 53.0106 182.188 53.9147C183.275 54.8188 178.784 65.0023 179.376 65.3166C179.968 65.6308 182.138 62.5233 183.915 60.5749C185.691 58.6266 187.499 60.7854 186.678 61.5299C185.858 62.2743 182.097 66.617 180.564 70.4131Z" fill="#FFD2B9"/>
<path d="M172.12 74.5923C172.564 73.0741 172.618 69.2267 169.279 65.9835" stroke="#E39F76" stroke-width="0.221004" stroke-linejoin="round"/>
<path style="mix-blend-mode:multiply" d="M171.421 80.3202C166.562 83.3754 163.237 79.5999 163.255 79.7718C169.565 82.3197 171.421 78.668 171.421 78.668C171.421 78.668 172.388 81.2422 173.696 81.2422C173.696 82.4992 171.943 81.3977 171.421 80.3202Z" fill="url(#paint8_linear_9022_24437)"/>
<path d="M162.541 84.4662C163.028 85.1373 163.862 85.6256 164.819 85.9862C165.941 86.4086 167.278 86.6727 168.556 86.8384C169.835 87.0043 171.064 87.0726 171.972 87.0994C172.427 87.1129 172.801 87.116 173.063 87.1157C173.112 87.1157 173.157 87.1155 173.198 87.1153C173.215 87.1152 173.231 87.115 173.247 87.1149C173.197 92.3007 171.465 109.867 166.965 125.197C164.681 132.979 161.69 140.158 157.862 144.851C155.949 147.195 153.837 148.907 151.512 149.771C149.191 150.633 146.641 150.658 143.832 149.598C140.311 148.269 138.661 145.493 138.17 142.031C137.677 138.557 138.357 134.411 139.496 130.411C140.633 126.415 142.221 122.586 143.527 119.754C144.179 118.339 144.761 117.173 145.179 116.362C145.387 115.957 145.556 115.64 145.671 115.425C145.729 115.317 145.774 115.235 145.804 115.179L145.839 115.117L145.847 115.101L145.849 115.098L145.85 115.097C145.85 115.097 145.85 115.096 145.657 114.989L145.85 115.096L145.851 115.095L162.541 84.4662Z" fill="url(#paint9_linear_9022_24437)" stroke="#AE2746" stroke-width="0.442008"/>
<path d="M60.1517 125.238L59.8842 125.332L60.0413 125.568C60.7472 126.629 61.0213 127.551 61.0485 128.33C61.0758 129.11 60.8568 129.765 60.5504 130.294C60.243 130.825 59.8479 131.23 59.5275 131.502C59.3677 131.638 59.2278 131.74 59.1285 131.807C59.079 131.841 59.0397 131.866 59.0133 131.883C59.0079 131.886 59.003 131.889 58.9987 131.892C58.9925 131.895 58.9876 131.898 58.9839 131.901L58.977 131.905L58.9758 131.905L58.9757 131.905L58.9757 131.905L58.9756 131.905L58.8353 131.985L58.8689 132.143L62.0578 147.15L46.6341 151.981C46.5915 151.917 46.5348 151.83 46.4653 151.721C46.2985 151.46 46.0586 151.074 45.7675 150.575C45.1852 149.577 44.3984 148.127 43.582 146.325C41.9487 142.719 40.2004 137.708 39.7313 132.079C39.6161 130.696 39.8271 128.879 40.3051 126.744C40.7824 124.612 41.5226 122.176 42.4563 119.562C44.3238 114.334 46.9606 108.404 49.8002 102.78C52.6398 97.1564 55.6794 91.8447 58.3507 87.8525C59.6867 85.8559 60.9275 84.194 62.0025 82.9893C62.5401 82.3868 63.0328 81.9025 63.4722 81.5486C63.8027 81.2824 64.0946 81.0969 64.3459 80.9878L67.5551 107.537L67.5549 107.566C67.5547 107.594 67.5542 107.636 67.5533 107.692C67.5515 107.803 67.5479 107.967 67.5405 108.177C67.5259 108.596 67.4966 109.199 67.4379 109.931C67.3204 111.396 67.0857 113.375 66.6168 115.435C66.1476 117.497 65.4461 119.629 64.4001 121.408C63.3544 123.186 61.974 124.594 60.1517 125.238Z" fill="url(#paint10_linear_9022_24437)" stroke="#AE2746" stroke-width="0.442008"/>
<path d="M110.952 59.81C110.837 59.732 110.673 59.6763 110.424 59.6659C107.929 62.0117 105.225 63.2824 101.474 63.2908C97.7173 63.2993 94.8423 61.8039 92.6079 59.706C91.3847 60.2964 90.9465 61.4562 90.5045 62.7043C90.4932 62.7365 90.4818 62.7687 90.4704 62.8009C90.0423 64.0121 89.5843 65.3081 88.2456 65.9082C88.0666 66.2642 88.149 66.8439 88.5983 67.5889C89.0609 68.3561 89.8739 69.2267 90.9844 70.0475C93.2034 71.6876 96.5764 73.1039 100.604 73.1039C104.499 73.1039 107.978 72.1282 110.573 70.8044C111.871 70.1425 112.943 69.3957 113.734 68.6447C114.462 67.9533 114.94 67.27 115.149 66.6568C113.824 65.9238 112.99 65.1176 112.455 64.3094C111.899 63.4697 111.676 62.6416 111.549 61.9224C111.507 61.6813 111.475 61.4471 111.445 61.232C111.431 61.1307 111.418 61.0337 111.404 60.9422C111.36 60.6485 111.314 60.4078 111.242 60.2144C111.17 60.0249 111.079 59.8956 110.952 59.81Z" fill="url(#paint11_linear_9022_24437)" stroke="#AE2746" stroke-width="0.442008"/>
<path d="M88.0897 65.7351C86.931 67.5891 92.4457 73.325 100.604 73.325C108.465 73.325 114.659 69.3876 115.412 66.5486" stroke="#AE2746" stroke-width="0.442008"/>
<path d="M109.667 60.1504C109.916 60.0468 110.17 60.4137 110.262 60.936C110.378 61.5889 110.716 63.4683 111.417 64.9458C112.175 66.5405 114.518 68.0223 114.518 68.0223" stroke="#AE2746" stroke-width="0.442008"/>
<path d="M108.308 61.1741C108.945 61.3839 109.016 61.9905 109.108 62.5128C109.223 63.1657 109.356 64.492 110.058 65.9695C110.815 67.5642 113.158 69.0461 113.158 69.0461" stroke="#AE2746" stroke-width="0.442008"/>
<path d="M106.688 62.1113C107.325 62.3309 107.396 62.9656 107.488 63.5122C107.603 64.1953 107.736 65.5833 108.438 67.1293C109.195 68.798 111.538 70.3486 111.538 70.3486" stroke="#AE2746" stroke-width="0.442008"/>
<path d="M105.345 62.7673C105.873 63.002 105.932 63.6801 106.009 64.264C106.104 64.9939 106.214 66.4768 106.796 68.1286C107.424 69.9115 109.366 71.5681 109.366 71.5681" stroke="#AE2746" stroke-width="0.442008"/>
<path d="M104.041 62.9985C104.464 63.2452 104.511 63.9581 104.572 64.572C104.648 65.3394 104.737 66.8985 105.202 68.6351C105.705 70.5095 107.26 72.2512 107.26 72.2512" stroke="#AE2746" stroke-width="0.442008"/>
<path d="M102.755 63.283C102.911 63.6217 102.949 64.5174 102.988 65.1723C103.036 65.9908 102.918 67.3649 103.213 69.2172C103.533 71.2165 104.52 73.0743 104.52 73.0743" stroke="#AE2746" stroke-width="0.442008"/>
<path d="M101.326 63.283C101.882 65.4877 101.104 70.4459 101.882 73.2653" stroke="#AE2746" stroke-width="0.442008"/>
<path d="M99.9485 63.1401C99.4513 64.0618 99.4513 69.895 98.8031 73.1357" stroke="#AE2746" stroke-width="0.442008"/>
<path d="M92.8415 59.9295C92.6014 59.8338 92.3558 60.1728 92.2668 60.6554C92.1554 61.2586 91.8286 62.9951 91.1507 64.3602C90.4189 65.8336 88.155 67.2027 88.155 67.2027" stroke="#AE2746" stroke-width="0.442008"/>
<path d="M94.201 60.8726C93.564 61.0846 93.4931 61.6974 93.4009 62.2252C93.2857 62.8848 93.1527 64.225 92.451 65.7178C91.6937 67.3291 89.3506 68.8263 89.3506 68.8263" stroke="#AE2746" stroke-width="0.442008"/>
<path d="M95.5572 61.7871C94.9202 62.0095 94.8493 62.6522 94.7571 63.2057C94.6419 63.8975 94.5089 65.3031 93.8072 66.8687C93.0499 68.5586 90.7068 70.1288 90.7068 70.1288" stroke="#AE2746" stroke-width="0.442008"/>
<path d="M96.9001 62.3645C96.372 62.597 96.3133 63.269 96.2368 63.8477C96.1413 64.5711 96.031 66.0406 95.4493 67.6776C94.8214 69.4444 92.7034 71.2837 92.7034 71.2837" stroke="#AE2746" stroke-width="0.442008"/>
<path d="M98.4293 62.7674C97.9844 63.0192 97.8775 63.569 97.8132 64.1957C97.7327 64.979 97.6398 66.5705 97.1498 68.3432C96.6209 70.2566 95.5081 72.4346 95.5081 72.4346" stroke="#AE2746" stroke-width="0.442008"/>
<path d="M245.72 77.5017C245.397 77.4173 245.071 77.6029 244.991 77.9164C244.911 78.2299 245.108 78.5525 245.431 78.6369L245.72 77.5017ZM252.332 100.803L251.84 100.455L252.332 100.803ZM240.544 108.088L240.549 108.676L240.544 108.088ZM237.067 106.988L236.646 107.4L236.703 107.455L236.771 107.494L237.067 106.988ZM235.397 100.402L235.988 100.526L235.397 100.402ZM238.942 94.8221L238.543 94.3742L238.942 94.8221ZM245.644 92.6338L245.607 93.2197L245.632 93.2217L245.657 93.2217L245.644 92.6338ZM247.046 105.898L247.629 106.052L247.046 105.898ZM238.4 118.91L237.955 118.505L238.4 118.91ZM221.972 128.797L221.739 128.251L221.972 128.797ZM210.936 130.876L210.792 130.303L210.936 130.876ZM209.13 130.56C208.887 130.777 208.875 131.149 209.103 131.39L212.806 135.324C213.034 135.565 213.414 135.585 213.657 135.368C213.899 135.15 213.911 134.779 213.684 134.537L210.392 131.041L213.902 127.896C214.144 127.679 214.156 127.307 213.929 127.066C213.702 126.824 213.321 126.805 213.079 127.022L209.13 130.56ZM245.431 78.6369C248.64 79.4774 250.769 81.0336 252.143 82.9234C253.525 84.823 254.176 87.1031 254.345 89.4262C254.515 91.749 254.201 94.0866 253.681 96.0662C253.158 98.0567 252.44 99.6342 251.84 100.455L252.824 101.152C253.54 100.172 254.304 98.4444 254.847 96.3807C255.392 94.3061 255.726 91.8406 255.545 89.3669C255.365 86.8934 254.667 84.3836 253.119 82.2556C251.564 80.1178 249.182 78.4086 245.72 77.5017L245.431 78.6369ZM251.84 100.455C250.69 102.029 248.862 103.816 246.801 105.201C244.728 106.593 242.499 107.524 240.539 107.5L240.549 108.676C242.868 108.703 245.341 107.622 247.497 106.174C249.664 104.718 251.591 102.838 252.824 101.152L251.84 100.455ZM240.539 107.5C240.065 107.494 239.659 107.455 239.19 107.317C238.713 107.178 238.146 106.931 237.363 106.482L236.771 107.494C237.604 107.97 238.264 108.267 238.867 108.443C239.478 108.622 240.003 108.669 240.549 108.676L240.539 107.5ZM237.488 106.577C236.566 105.677 236.086 104.771 235.881 103.81C235.674 102.835 235.742 101.764 235.988 100.526L234.807 100.279C234.547 101.588 234.45 102.834 234.704 104.027C234.96 105.234 235.567 106.347 236.646 107.4L237.488 106.577ZM235.988 100.526C236.438 98.2559 237.453 96.867 239.341 95.27L238.543 94.3742C236.52 96.0853 235.321 97.6854 234.807 100.279L235.988 100.526ZM239.341 95.27C241.049 93.8254 243.312 93.0348 245.607 93.2197L245.681 92.048C243.04 91.8354 240.47 92.7444 238.543 94.3742L239.341 95.27ZM245.657 93.2217C246.045 93.2212 246.328 93.3456 246.556 93.5601C246.801 93.789 247.014 94.1502 247.179 94.6578C247.511 95.6796 247.591 97.1102 247.52 98.6558C247.378 101.729 246.651 105.005 246.462 105.744L247.629 106.052C247.829 105.273 248.575 101.914 248.722 98.7332C248.795 97.1519 248.724 95.5507 248.325 94.3232C248.124 93.7061 247.826 93.1383 247.38 92.7198C246.918 92.2867 246.329 92.0451 245.63 92.046L245.657 93.2217ZM246.462 105.744C244.978 111.533 242.13 114.101 237.955 118.505L238.845 119.314C242.975 114.957 246.059 112.177 247.629 106.052L246.462 105.744ZM237.955 118.505C233.451 123.256 228.071 125.775 221.739 128.251L222.206 129.344C228.569 126.856 234.156 124.26 238.845 119.314L237.955 118.505ZM221.739 128.251C220.03 128.919 218.252 129.228 216.41 129.47C214.588 129.71 212.669 129.888 210.792 130.303L211.08 131.45C212.89 131.05 214.71 130.884 216.595 130.636C218.46 130.39 220.357 130.066 222.206 129.344L221.739 128.251ZM210.792 130.303C210.275 130.417 210.034 130.434 209.561 130.41L209.522 131.584C210.109 131.614 210.461 131.586 211.08 131.45L210.792 130.303Z" fill="black"/>
<path d="M48.0669 31.5112C45.0955 32.1797 44.6813 32.4197 43.5071 29.1322C43.0082 27.7351 42.6406 24.2421 40.5114 26.1584C37.231 29.1108 35.7592 22.1219 32.9999 21.2021" stroke="black" stroke-width="1.1895" stroke-linecap="round"/>
<path d="M52.0317 24.019C49.0604 24.6875 48.6461 24.9275 47.472 21.64C46.973 20.2429 46.6054 16.7499 44.4762 18.6662C41.1958 21.6186 39.724 14.6297 36.9647 13.71" stroke="black" stroke-width="1.1895" stroke-linecap="round"/>
<path d="M55.9971 16.5307C53.0257 17.1992 52.6114 17.4392 51.4373 14.1517C50.9384 12.7546 50.5708 9.26164 48.4415 11.1779C45.1611 14.1303 43.6894 7.14145 40.9301 6.22168" stroke="black" stroke-width="1.1895" stroke-linecap="round"/>
<defs>
<linearGradient id="paint0_linear_9022_24437" x1="97.4615" y1="57.8188" x2="97.2595" y2="22.1243" gradientUnits="userSpaceOnUse">
<stop stop-color="#753558"/>
<stop offset="1" stop-color="#1F3147"/>
</linearGradient>
<linearGradient id="paint1_linear_9022_24437" x1="101.126" y1="25.3972" x2="101.126" y2="44.2358" gradientUnits="userSpaceOnUse">
<stop stop-color="#F5846B" stop-opacity="0.4"/>
<stop offset="1" stop-color="#FFBE7F" stop-opacity="0"/>
</linearGradient>
<linearGradient id="paint2_linear_9022_24437" x1="1.43861" y1="-1.15852" x2="1.43861" y2="3.05141" gradientUnits="userSpaceOnUse">
<stop stop-color="#F5846B" stop-opacity="0.4"/>
<stop offset="1" stop-color="#FFBE7F" stop-opacity="0"/>
</linearGradient>
<linearGradient id="paint3_linear_9022_24437" x1="107.516" y1="29.0768" x2="109.426" y2="31.1783" gradientUnits="userSpaceOnUse">
<stop stop-color="#2D404D"/>
<stop offset="1" stop-color="#071931"/>
</linearGradient>
<linearGradient id="paint4_linear_9022_24437" x1="91.1157" y1="30.2757" x2="93.4398" y2="32.5711" gradientUnits="userSpaceOnUse">
<stop stop-color="#315064"/>
<stop offset="1" stop-color="#071931"/>
</linearGradient>
<linearGradient id="paint5_linear_9022_24437" x1="105.639" y1="65.9836" x2="86.0162" y2="160.122" gradientUnits="userSpaceOnUse">
<stop stop-color="#FF003D"/>
<stop offset="1" stop-color="#93303C"/>
</linearGradient>
<linearGradient id="paint6_linear_9022_24437" x1="77.7044" y1="182.195" x2="38.081" y2="136.692" gradientUnits="userSpaceOnUse">
<stop stop-color="#FFD2B9"/>
<stop offset="1" stop-color="#F1BC9E"/>
</linearGradient>
<linearGradient id="paint7_linear_9022_24437" x1="142.292" y1="73.8797" x2="127.006" y2="132.875" gradientUnits="userSpaceOnUse">
<stop stop-color="#FF003D"/>
<stop offset="1" stop-color="#93303C"/>
</linearGradient>
<linearGradient id="paint8_linear_9022_24437" x1="-1490.99" y1="2080.07" x2="-1462.93" y2="2149.98" gradientUnits="userSpaceOnUse">
<stop stop-color="#FAD9CF"/>
<stop offset="1" stop-color="#FACFC3"/>
</linearGradient>
<linearGradient id="paint9_linear_9022_24437" x1="134.303" y1="121.675" x2="172.616" y2="117.797" gradientUnits="userSpaceOnUse">
<stop stop-color="#FF003D"/>
<stop offset="1" stop-color="#93303C"/>
</linearGradient>
<linearGradient id="paint10_linear_9022_24437" x1="53.4917" y1="81.015" x2="36.5444" y2="137.172" gradientUnits="userSpaceOnUse">
<stop stop-color="#FF003D"/>
<stop offset="1" stop-color="#93303C"/>
</linearGradient>
<linearGradient id="paint11_linear_9022_24437" x1="101.806" y1="59.5064" x2="102.52" y2="71.3504" gradientUnits="userSpaceOnUse">
<stop stop-color="#FF003D"/>
<stop offset="1" stop-color="#93303C"/>
</linearGradient>
</defs>
</svg>
