<svg width="672" height="366" viewBox="0 0 672 366" fill="none" xmlns="http://www.w3.org/2000/svg">
<path d="M209.233 261.861C196.404 246.414 177.33 237.895 159.694 228.282C142.075 218.651 124.234 206.112 117.579 187.176C108.633 161.62 124.08 132.556 146.659 117.623C169.256 102.707 197.208 98.8406 224.184 96.4629C251.143 94.0851 278.889 92.6482 303.59 81.5807C319.344 74.533 333.559 63.6707 350.357 59.7021C380.241 52.6202 410.519 68.7854 435.254 86.9861C470.475 112.902 503.918 145.266 546.871 153.34C563.275 156.419 580.21 155.701 596.632 158.643C613.071 161.585 629.955 169.215 637.943 183.874C647.249 200.929 641.997 221.987 635.873 240.427C626.653 268.207 615.91 295.491 603.714 322.108C599.249 331.841 594.46 341.694 586.899 349.289C572.051 364.206 548.923 367.798 528.054 364.975C477.284 358.082 433.236 318.806 382.021 320.534C359.817 321.287 338.691 329.84 316.881 334.133C287.561 339.915 251.964 339.162 224.218 326.795C210.054 320.466 217.991 312.443 220.13 300.349C222.524 286.818 217.94 272.329 209.233 261.861Z" fill="#F8E1C1"/>
<path d="M515.103 103.465H314.222C310.477 103.465 307.449 106.508 307.449 110.253V236.127V282.592C307.449 287.288 312.979 289.819 316.534 286.732L366.963 242.901H515.103C518.849 242.901 521.877 239.873 521.877 236.127V110.253C521.877 106.508 518.849 103.465 515.103 103.465Z" fill="#CAC0D0"/>
<path d="M468.303 147.824H361.023V147.195H468.303V147.824Z" fill="black"/>
<path d="M468.303 176.145H361.023V175.516H468.303V176.145Z" fill="black"/>
<path d="M468.303 204.454H361.023V203.84H468.303V204.454Z" fill="black"/>
<path d="M249.003 292.161C247.877 292.717 246.575 293.141 245.141 293.434C239.069 294.648 230.599 293.39 222.114 289.542C213.643 285.695 207.118 280.135 204.046 274.752C203.329 273.493 202.788 272.235 202.466 271.021V271.006C203.958 270.655 205.582 270.436 207.294 270.348C213.804 270.026 221.411 271.679 228.726 275C236.041 278.336 242.288 282.974 246.326 288.079C247.394 289.44 248.286 290.8 249.003 292.161Z" fill="black"/>
<path d="M250.291 269.644L242.917 285.386L217.037 340.657H179L214.887 263.895L218.296 256.609L250.291 269.644Z" fill="#FDF4F0"/>
<path d="M469.986 156.133H269.105C265.359 156.133 262.331 159.176 262.331 162.921V288.795V335.26C262.331 339.97 267.861 342.487 271.416 339.4L321.845 295.584H469.986C473.731 295.584 476.759 292.541 476.759 288.795V162.921C476.759 159.176 473.731 156.133 469.986 156.133Z" fill="#C28C7E"/>
<path d="M423.185 200.488H315.905V199.859H423.185V200.488Z" fill="black"/>
<path d="M423.185 228.813H315.905V228.184H423.185V228.813Z" fill="black"/>
<path d="M423.185 257.137H315.905V256.508H423.185V257.137Z" fill="black"/>
<path d="M250.291 269.644L242.917 285.386C230.292 279.812 218.339 267.611 214.887 263.895L218.295 256.609L250.291 269.644Z" fill="black"/>
<path fill-rule="evenodd" clip-rule="evenodd" d="M309.278 217.313C309.278 249.118 283.5 274.896 251.695 274.896C219.905 274.896 194.127 249.118 194.127 217.313C194.127 185.508 219.905 159.73 251.695 159.73C283.5 159.73 309.278 185.508 309.278 217.313ZM290.566 217.313C290.566 195.851 273.172 178.442 251.695 178.442C230.233 178.442 212.838 195.851 212.838 217.313C212.838 238.775 230.233 256.184 251.695 256.184C273.172 256.184 290.566 238.775 290.566 217.313Z" fill="#FDF4F0"/>
<path opacity="0.4" d="M283.851 217.312C283.851 235.073 269.455 249.469 251.694 249.469C233.948 249.469 219.553 235.073 219.553 217.312C219.553 199.552 233.948 185.156 251.694 185.156C269.455 185.156 283.851 199.552 283.851 217.312Z" fill="#C28C7E"/>
<path d="M187.471 340.758L187.046 340.553L210.805 288.164L211.229 288.369L187.471 340.758Z" fill="black"/>
<path d="M194.609 340.758L194.185 340.554L215.735 293.051L216.159 293.241L194.609 340.758Z" fill="black"/>
<path d="M201.749 340.76L201.325 340.555L222.289 294.34L222.713 294.53L201.749 340.76Z" fill="black"/>
<path d="M208.888 340.761L208.464 340.556L228.638 296.082L229.063 296.287L208.888 340.761Z" fill="black"/>
<path d="M249.003 292.16L245.229 300.469C243.736 300.82 242.127 301.04 240.401 301.128C233.891 301.449 226.283 299.796 218.968 296.461C211.668 293.14 205.406 288.502 201.369 283.382C200.301 282.036 199.408 280.675 198.691 279.315L202.466 271.02C202.788 272.234 203.329 273.492 204.046 274.75C207.118 280.134 213.643 285.693 222.114 289.541C230.599 293.388 239.07 294.647 245.141 293.432C246.575 293.14 247.877 292.715 249.003 292.16Z" fill="white"/>
<path d="M275.161 218.835C270.553 227.028 261.775 232.572 251.695 232.572C241.63 232.572 232.852 227.028 228.244 218.835C232.852 210.642 241.63 205.098 251.695 205.098C261.775 205.098 270.553 210.642 275.161 218.835Z" fill="white"/>
<path d="M262.302 218.833C262.302 224.685 257.561 229.44 251.695 229.44C245.843 229.44 241.103 224.685 241.103 218.833C241.103 212.981 245.843 208.227 251.695 208.227C257.561 208.227 262.302 212.981 262.302 218.833Z" fill="black"/>
<path d="M258.6 214.3C258.6 215.763 257.415 216.963 255.952 216.963C254.489 216.963 253.29 215.763 253.29 214.3C253.29 212.837 254.489 211.652 255.952 211.652C257.415 211.652 258.6 212.837 258.6 214.3Z" fill="white"/>
<path d="M537.926 72.332H535.805C506.326 72.332 482.45 96.2078 482.45 125.672C482.45 145.408 493.159 162.642 509.076 171.873C510.013 172.414 510.583 173.394 510.583 174.477V188.039C510.583 190.57 513.509 191.974 515.484 190.409L530.172 178.734C532.03 178.924 533.903 179.027 535.805 179.027H537.926C567.391 179.027 591.281 155.151 591.281 125.672C591.281 96.2078 567.391 72.332 537.926 72.332Z" fill="#FDF4F0"/>
<path d="M529.484 132.183C530.479 129.422 531.684 127.096 533.098 125.204C534.502 123.312 536.346 121.137 538.628 118.679C540.276 116.855 541.578 115.353 542.534 114.173C543.49 112.993 544.275 111.676 544.889 110.223C545.514 108.78 545.826 107.229 545.826 105.571V105.512C545.826 102.626 544.904 100.382 543.061 98.7828C541.217 97.193 538.638 96.3981 535.322 96.3981C531.966 96.3981 529.367 97.3881 527.524 99.368C525.681 101.338 524.739 104.137 524.7 107.765V107.809H511.841V107.765C512.007 103.377 513.04 99.6264 514.942 96.5152C516.854 93.4137 519.526 91.0485 522.959 89.4197C526.402 87.791 530.484 86.9766 535.205 86.9766C540.13 86.9766 544.353 87.7081 547.874 89.171C551.395 90.634 554.077 92.7504 555.92 95.5203C557.764 98.3 558.685 101.65 558.685 105.571V105.615C558.685 107.975 558.305 110.101 557.544 111.993C556.774 113.895 555.842 115.544 554.75 116.938C553.648 118.333 552.146 120.025 550.244 122.015C548.167 124.141 546.489 126.028 545.211 127.677C543.924 129.325 542.846 131.3 541.978 133.602C541.11 135.913 540.676 138.581 540.676 141.604H527.992C527.992 138.083 528.489 134.943 529.484 132.183ZM527.685 149.533H540.983V160.198H527.685V149.533Z" fill="#C28C7E"/>
<path d="M653.691 69.0571L652.564 68.545C637.057 61.552 618.814 68.4426 611.806 83.9502C607.124 94.3373 608.675 105.953 614.863 114.585C615.229 115.097 615.288 115.755 615.039 116.326L611.806 123.451C611.206 124.782 612.42 126.23 613.825 125.864L624.329 123.216C625.255 123.763 626.221 124.26 627.226 124.709L628.337 125.206C643.845 132.214 662.088 125.308 669.096 109.801C676.089 94.2934 669.198 76.0501 653.691 69.0571Z" fill="#D0D7C9"/>
<path d="M635.024 98.5505C636.204 97.3411 637.389 96.4048 638.579 95.7415C639.769 95.0783 641.256 94.3664 643.041 93.6056C644.348 93.0399 645.392 92.562 646.172 92.1719C646.952 91.772 647.679 91.2648 648.352 90.6504C649.025 90.0457 649.556 89.3045 649.946 88.4267L649.961 88.3974C650.644 86.8759 650.692 85.4763 650.107 84.1987C649.512 82.921 648.342 81.8872 646.596 81.0972C644.831 80.3072 643.231 80.2145 641.798 80.8192C640.354 81.4141 639.193 82.6625 638.316 84.5644L638.301 84.5937L631.527 81.5361L631.542 81.5068C632.673 79.2343 634.107 77.508 635.843 76.3279C637.589 75.1477 639.559 74.5382 641.754 74.4991C643.948 74.4504 646.289 74.9868 648.776 76.1084C651.37 77.2885 653.418 78.6784 654.92 80.2779C656.432 81.8872 657.339 83.6379 657.642 85.53C657.954 87.4318 657.646 89.4166 656.72 91.4843L656.705 91.4989C656.149 92.7473 655.442 93.7763 654.584 94.5858C653.735 95.4051 652.853 96.0488 651.936 96.5169C651.029 96.9948 649.839 97.5313 648.366 98.1262C646.767 98.7602 645.436 99.3551 644.372 99.911C643.309 100.477 642.271 101.262 641.256 102.266C640.252 103.281 639.393 104.583 638.681 106.173L632.01 103.159C632.839 101.306 633.844 99.7696 635.024 98.5505ZM629.962 107.255L636.955 110.415L634.424 116.033L627.431 112.873L629.962 107.255Z" fill="#C28C7E"/>
<path d="M468.888 23.5718L468.084 23.8937C456.936 28.3557 451.523 41.0105 456 52.1437C458.984 59.6049 465.641 64.5059 473.072 65.5738C473.497 65.647 473.862 65.925 474.023 66.3346L476.086 71.4696C476.467 72.4206 477.783 72.5083 478.295 71.6159L482.084 64.974C482.816 64.7692 483.538 64.5254 484.25 64.2425L485.054 63.9207C496.202 59.444 501.615 46.7892 497.153 35.656C492.676 24.5081 480.022 19.0951 468.888 23.5718Z" fill="#FDF4F0"/>
<path d="M474.769 47.4784C474.73 46.2885 474.832 45.2303 475.076 44.3037C475.32 43.3674 475.686 42.2604 476.173 40.9828C476.524 40.0465 476.788 39.2808 476.963 38.6859C477.149 38.1007 477.251 37.4863 477.271 36.8425C477.28 36.1988 477.158 35.5649 476.905 34.9407V34.9261C476.466 33.8337 475.778 33.1217 474.842 32.7901C473.896 32.4683 472.799 32.5609 471.55 33.0681C470.282 33.5752 469.449 34.3409 469.049 35.3649C468.649 36.389 468.717 37.5887 469.253 38.9639L469.268 38.9931L464.396 40.9389V40.9243C463.792 39.237 463.616 37.6618 463.87 36.1988C464.114 34.7359 464.762 33.4338 465.815 32.2927C466.869 31.1613 468.288 30.2348 470.073 29.513C471.936 28.7718 473.642 28.4109 475.193 28.4304C476.754 28.4499 478.09 28.8449 479.202 29.6154C480.323 30.3859 481.182 31.5124 481.777 32.9949V33.0096C482.137 33.8971 482.318 34.7602 482.318 35.599C482.308 36.428 482.206 37.1888 482.011 37.8813C481.806 38.5737 481.494 39.4418 481.074 40.4854C480.616 41.607 480.265 42.5774 480.021 43.3967C479.787 44.2062 479.68 45.1181 479.699 46.1324C479.728 47.137 479.972 48.2099 480.431 49.351L475.632 51.2675C475.096 49.9411 474.808 48.678 474.769 47.4784ZM476.715 54.3105L481.747 52.2916L483.357 56.3294L478.339 58.3483L476.715 54.3105Z" fill="#C28C7E"/>
<path d="M331.076 300.893H337.527V294.441H331.076V300.893Z" fill="white"/>
<path d="M318.143 78.6063C316.709 72.0034 315.275 65.4054 313.841 58.8123C313.68 58.0662 312.554 58.4319 312.715 59.1634C314.149 65.7565 315.582 72.3545 317.016 78.9574C317.177 79.7036 318.303 79.3378 318.143 78.6063Z" fill="black"/>
<path d="M374.95 67.7518C372.054 74.1011 369.162 80.4455 366.275 86.7851C365.953 87.4727 367.006 88.014 367.328 87.3264L376.004 68.2931C376.311 67.6055 375.272 67.0642 374.95 67.7518Z" fill="black"/>
<path d="M278.978 114.698C273.712 114.278 268.44 113.859 263.164 113.44C262.403 113.381 262.461 114.551 263.222 114.61C268.489 115.029 273.756 115.449 279.022 115.868C279.783 115.927 279.725 114.756 278.978 114.698Z" fill="black"/>
<path d="M295.042 90.6884C291.843 88.2209 288.644 85.7533 285.445 83.2858C284.845 82.8176 284.04 83.6954 284.655 84.1636C287.854 86.6311 291.053 89.0987 294.252 91.5662C294.852 92.0344 295.642 91.1566 295.042 90.6884Z" fill="black"/>
<path d="M344.066 63.2736C344.169 62.5275 342.998 62.425 342.881 63.1712C342.306 66.9066 341.731 70.6421 341.155 74.3776C341.038 75.1383 342.223 75.2407 342.34 74.48C342.916 70.7445 343.491 67.009 344.066 63.2736Z" fill="black"/>
</svg>
