    <svg width="108" height="27" viewBox="0 0 108 27" fill="none" xmlns="http://www.w3.org/2000/svg">
<path d="M4.6893 1.77212C4.12586 2.0084 3.84414 2.36283 3.84414 2.83539C3.84414 3.39883 4.28944 4.34396 5.18004 5.67078L9.02418 11.287C9.22411 11.5778 9.54218 12.0595 9.97839 12.732C10.4328 13.3863 10.7963 13.9316 11.0689 14.3678C11.1235 14.4768 11.2416 14.7222 11.4234 15.1039C11.6051 15.4674 11.7323 15.7855 11.805 16.0581C11.8596 16.3308 11.8868 16.5852 11.8868 16.8215C11.796 18.8753 9.56035 19.9023 5.18004 19.9023C4.18038 19.9023 2.50823 19.8205 0.16358 19.6569C0.0545267 19.4024 0 19.1389 0 18.8663C0 18.6663 0.045439 18.43 0.136317 18.1574C1.42678 18.3392 2.69907 18.43 3.95319 18.43C5.71622 18.43 6.89763 18.3301 7.49743 18.1301C8.06087 17.9484 8.34259 17.5303 8.34259 16.876C8.34259 16.3671 7.91547 15.4492 7.06121 14.1224L1.39043 5.67078C0.754287 4.67112 0.445302 3.72599 0.463477 2.83539C0.463477 0.94513 2.79904 0 7.47016 0C8.45164 0 9.65123 0.0727025 11.0689 0.218107C11.1235 0.436215 11.1507 0.654322 11.1507 0.872428C11.1507 1.18141 11.0962 1.47222 10.9871 1.74486C10.0602 1.52675 8.94239 1.41769 7.63374 1.41769C6.21605 1.41769 5.23457 1.53584 4.6893 1.77212Z" fill="black"/>
<path d="M20.435 18.839C20.435 18.9844 20.4077 19.1389 20.3532 19.3025C19.1536 19.6478 17.9267 19.8205 16.6726 19.8205C16.1273 19.8205 15.7457 19.7932 15.5276 19.7387C15.3094 19.7023 15.164 19.6115 15.0913 19.466C15.0368 19.3025 15.0186 19.0298 15.0368 18.6481V7.06121L13.0466 7.19753C12.9557 6.88855 12.9103 6.66135 12.9103 6.51595C12.9103 6.27966 12.9466 6.09791 13.0193 5.97068L15.0368 5.83436V1.71759C15.0368 1.46313 15.1822 1.28138 15.473 1.17233C16.1637 0.972394 16.8998 0.872428 17.6814 0.872428C17.9903 0.872428 18.1448 1.02692 18.1448 1.33591V5.64352L20.2986 5.47994C20.3895 5.78892 20.435 6.01612 20.435 6.16152C20.435 6.3978 20.3986 6.57956 20.3259 6.70679L18.1448 6.87037V16.876C18.1448 17.8757 18.2448 18.3755 18.4447 18.3755L20.3259 18.321C20.3986 18.4482 20.435 18.6209 20.435 18.839Z" fill="black"/>
<path d="M23.7404 8.39712C23.7404 7.39746 23.6405 6.89763 23.4405 6.89763L21.5594 6.95216C21.4867 6.82493 21.4503 6.65226 21.4503 6.43416C21.4503 6.28875 21.4776 6.13426 21.5321 5.97068C22.7317 5.62534 23.9585 5.45267 25.2127 5.45267C25.7579 5.45267 26.1396 5.47994 26.3577 5.53446C26.5758 5.57082 26.7121 5.67078 26.7667 5.83436C26.8394 5.97977 26.8666 6.24331 26.8485 6.625C28.6478 5.84345 29.9292 5.45267 30.6926 5.45267C31.6922 5.45267 32.4011 5.61626 32.8191 5.94342C33.2372 6.2524 33.4462 6.77949 33.4462 7.52469V10.0874C33.4462 10.3419 33.3008 10.5237 33.01 10.6327C32.3193 10.8326 31.5832 10.9326 30.8016 10.9326C30.4927 10.9326 30.3382 10.7781 30.3382 10.4691V8.20627C30.3382 7.53378 29.9837 7.19753 29.2749 7.19753C28.7115 7.19753 27.9026 7.41564 26.8485 7.85185V16.876C26.8485 17.8757 26.9484 18.3755 27.1484 18.3755L29.0295 18.321C29.1022 18.4482 29.1386 18.6209 29.1386 18.839C29.1386 18.9844 29.1113 19.1389 29.0568 19.3025C27.8572 19.6478 26.6303 19.8205 25.3762 19.8205C24.831 19.8205 24.4493 19.7932 24.2312 19.7387C24.0131 19.7023 23.8677 19.6115 23.795 19.466C23.7404 19.3025 23.7223 19.0298 23.7404 18.6481V8.39712Z" fill="black"/>
<path d="M47.0153 6.59774C47.2334 7.01577 47.3424 7.61557 47.3424 8.39712V16.767C47.3424 17.8575 46.7154 18.6391 45.4612 19.1116C44.2071 19.566 42.1805 19.7932 39.3815 19.7932C38.4546 19.7932 37.7366 19.7023 37.2277 19.5206C36.7188 19.3388 36.3462 19.0389 36.1099 18.6209C35.8918 18.2028 35.7827 17.603 35.7827 16.8215V8.47891C35.7827 7.35202 36.4189 6.56139 37.6912 6.107C38.9816 5.67078 41.0173 5.45267 43.7982 5.45267C44.7251 5.45267 45.434 5.54355 45.9247 5.72531C46.4336 5.88889 46.7971 6.1797 47.0153 6.59774ZM43.5801 18.1574C44.0345 17.8666 44.2526 17.3668 44.2344 16.6579V8.72428C44.2344 7.90638 44.1162 7.35202 43.88 7.06121C43.6619 6.75223 43.2529 6.59774 42.6531 6.59774C41.0718 6.59774 40.054 6.74314 39.5996 7.03395C39.1089 7.34293 38.8726 7.86094 38.8908 8.58796V16.5216C38.8908 17.3395 38.9998 17.8939 39.2179 18.1847C39.436 18.4755 39.8723 18.6209 40.5266 18.6209C42.126 18.5845 43.1439 18.43 43.5801 18.1574Z" fill="black"/>
<path d="M51.6694 8.39712C51.6694 7.39746 51.5694 6.89763 51.3695 6.89763L49.4883 6.95216C49.4156 6.82493 49.3793 6.65226 49.3793 6.43416C49.3793 6.28875 49.4066 6.13426 49.4611 5.97068C50.6607 5.62534 51.8875 5.45267 53.1416 5.45267C53.6869 5.45267 54.0686 5.47994 54.2867 5.53446C54.5048 5.57082 54.6411 5.67078 54.6956 5.83436C54.7683 5.97977 54.7956 6.24331 54.7774 6.625L55.7862 6.3251C56.4223 6.14335 56.8767 6.02521 57.1493 5.97068C57.1312 5.97068 57.3311 5.92524 57.7491 5.83436C58.2581 5.70713 58.876 5.59808 59.6031 5.5072C60.0393 5.47085 60.3483 5.45267 60.53 5.45267C61.5297 5.45267 62.2385 5.61626 62.6565 5.94342C63.0746 6.2524 63.2836 6.77949 63.2836 7.52469V16.2762C63.3018 17.7666 62.5021 18.6481 60.8844 18.9208C58.9215 19.3025 56.8858 19.5297 54.7774 19.6024V25.1914C54.7774 25.4458 54.632 25.6276 54.3412 25.7366C53.6506 25.9366 52.9144 26.0365 52.1329 26.0365C51.8239 26.0365 51.6694 25.882 51.6694 25.573V8.39712ZM58.6488 7.08848C58.0854 7.08848 56.7949 7.35202 54.7774 7.87911V18.3755C56.286 18.2846 57.4765 18.1483 58.3489 17.9666C59.0941 17.8212 59.5849 17.6394 59.8212 17.4213C60.0574 17.2032 60.1756 16.8033 60.1756 16.2217V8.20627C60.1756 7.46108 59.6667 7.08848 58.6488 7.08848Z" fill="black"/>
<path d="M74.9506 18.1574C76.2047 17.9575 77.1135 17.7848 77.677 17.6394C77.7678 17.8212 77.8133 18.0483 77.8133 18.321C77.8133 18.5573 77.7769 18.739 77.7042 18.8663C75.2687 19.5024 72.5969 19.8205 69.6888 19.8205C68.7073 19.8205 67.9894 19.666 67.535 19.357C67.0988 19.048 66.8807 18.5391 66.8807 17.8302V8.47891C66.8807 7.35202 67.4805 6.56139 68.6801 6.107C69.8433 5.67078 71.7335 5.45267 74.3508 5.45267C75.2778 5.45267 75.9866 5.54355 76.4774 5.72531C76.9863 5.88889 77.3498 6.1797 77.5679 6.59774C77.786 7.01577 77.8951 7.61557 77.8951 8.39712V10.3328C77.8951 11.0962 77.7042 11.696 77.3225 12.1322C76.9408 12.5502 76.332 12.8501 75.4959 13.0319C73.4784 13.3409 71.6427 13.5499 69.9887 13.6589V16.767C69.9887 17.4576 70.1159 17.912 70.3704 18.1301C70.643 18.3482 71.1883 18.4573 72.0062 18.4573C72.7332 18.4573 73.7147 18.3573 74.9506 18.1574ZM70.6157 7.06121C70.1614 7.35202 69.9523 7.86094 69.9887 8.58796V12.4048C71.2065 12.2958 72.197 12.1686 72.9604 12.0231C73.7056 11.8596 74.1963 11.6687 74.4326 11.4506C74.6689 11.2325 74.787 10.8326 74.787 10.251V8.58796C74.787 7.82459 74.6689 7.30658 74.4326 7.03395C74.2145 6.74314 73.8056 6.59774 73.2058 6.59774C71.9335 6.59774 71.0701 6.75223 70.6157 7.06121Z" fill="black"/>
<path d="M80.6657 19.5478C80.6112 19.4206 80.5839 19.1843 80.5839 18.839V17.4486C80.5839 17.1396 80.6112 16.9306 80.6657 16.8215C80.7384 16.7124 80.8929 16.6397 81.1292 16.6034L83.2012 16.5216C83.4011 16.5034 83.5284 16.558 83.5829 16.6852C83.6556 16.8124 83.6919 17.0487 83.6919 17.394V18.7845C83.6919 19.0934 83.6556 19.3025 83.5829 19.4115C83.5284 19.5206 83.383 19.5933 83.1467 19.6296L81.0747 19.7114C80.8747 19.7296 80.7384 19.6751 80.6657 19.5478Z" fill="black"/>
<path d="M99.9601 18.8392C99.9601 18.9846 99.9328 19.1391 99.8783 19.3026C98.715 19.648 97.4882 19.8207 96.1977 19.8207C95.707 19.8207 95.3435 19.7934 95.1072 19.7389C94.8891 19.7025 94.7437 19.6207 94.671 19.4935C94.5983 19.3844 94.5619 19.1936 94.5619 18.921C92.4717 19.5208 90.6723 19.8207 89.1638 19.8207C88.1641 19.8207 87.4553 19.6662 87.0372 19.3572C86.6192 19.0482 86.4102 18.512 86.4102 17.7486V13.9318C86.4102 13.1684 86.601 12.5777 86.9827 12.1596C87.3644 11.7234 87.9733 11.4144 88.8093 11.2327C90.8268 10.9237 92.7443 10.7238 94.5619 10.6329V8.50635C94.5619 7.81568 94.4256 7.36129 94.153 7.14318C93.8985 6.92508 93.3623 6.81602 92.5444 6.81602C92.0355 6.81602 91.0177 6.94325 89.4909 7.19771C88.1641 7.45217 87.2917 7.64301 86.8736 7.77024C86.7828 7.55213 86.7373 7.32494 86.7373 7.08866C86.7373 6.85237 86.7737 6.67062 86.8464 6.54339C89.1547 5.81637 91.8265 5.45286 94.8618 5.45286C95.8433 5.45286 96.5521 5.60735 96.9883 5.91633C97.4427 6.22532 97.6699 6.73423 97.6699 7.44308V16.8762C97.6699 17.8759 97.7699 18.3757 97.9698 18.3757L99.851 18.3212C99.9237 18.4484 99.9601 18.6211 99.9601 18.8392ZM91.2358 18.2939C92.09 18.2939 93.1987 18.094 94.5619 17.6941V11.8597C93.5622 11.8961 92.6171 11.9961 91.7265 12.1596C90.8177 12.3232 90.1998 12.5413 89.8726 12.814C89.6363 12.9957 89.5182 13.4047 89.5182 14.0408V17.067C89.5182 17.885 90.0907 18.2939 91.2358 18.2939Z" fill="#C28D7F"/>
<path d="M102.493 3.21726C102.166 3.25361 102.02 2.9628 102.057 2.34483V0.954399C102.057 0.645414 102.084 0.436395 102.138 0.327341C102.211 0.218288 102.366 0.145586 102.602 0.109234L104.728 0.0274433C105.056 -0.00890744 105.201 0.281902 105.165 0.899871V2.2903C105.165 2.59929 105.128 2.80831 105.056 2.91736C105.001 3.02641 104.856 3.09912 104.619 3.13547L102.493 3.21726ZM108 18.8392C108 18.9846 107.973 19.1391 107.918 19.3026C106.719 19.648 105.492 19.8207 104.238 19.8207C103.692 19.8207 103.311 19.7934 103.093 19.7389C102.874 19.7025 102.729 19.6116 102.656 19.4662C102.602 19.3026 102.584 19.03 102.602 18.6483V8.3973C102.602 7.39764 102.502 6.89781 102.302 6.89781L100.421 6.95234C100.348 6.82511 100.312 6.65244 100.312 6.43434C100.312 6.28893 100.339 6.13444 100.393 5.97086C101.593 5.62552 102.82 5.45286 104.074 5.45286C104.619 5.45286 105.001 5.48012 105.219 5.53464C105.437 5.571 105.574 5.67096 105.628 5.83454C105.701 5.97995 105.728 6.24349 105.71 6.62518V16.8762C105.71 17.8395 105.801 18.3212 105.982 18.3212H107.891C107.964 18.4484 108 18.6211 108 18.8392Z" fill="#C28D7F"/>
</svg>
