<svg width="20" height="22" viewBox="0 0 20 22" fill="none" xmlns="http://www.w3.org/2000/svg">
<g clip-path="url(#clip0_7480_26068)">
<path d="M10.915 3.16113C11.6294 3.16113 12.1934 3.7251 12.1934 4.43945V19.8545C12.1934 20.5688 11.6294 21.1328 10.915 21.1328H1.59082C0.876465 21.1328 0.3125 20.5688 0.3125 19.8545V4.43945C0.3125 3.7251 0.876465 3.16113 1.59082 3.16113H10.915ZM10.7271 19.7041V4.58984H1.77881V19.7041H10.7271ZM5.46338 17.6362C5.46338 17.4106 5.53857 17.2227 5.68896 17.0723C5.83936 16.9219 6.02734 16.8467 6.25293 16.8467C6.47852 16.8467 6.6665 16.9219 6.81689 17.0723C6.96729 17.2227 7.04248 17.4106 7.04248 17.6362C7.04248 17.8618 6.96729 18.0498 6.81689 18.2002C6.6665 18.3506 6.47852 18.4258 6.25293 18.4258C6.02734 18.4258 5.83936 18.3506 5.68896 18.2002C5.53857 18.0498 5.46338 17.8618 5.46338 17.6362Z" fill="black"/>
</g>
<defs>
<clipPath id="clip0_7480_26068">
<rect width="19.25" height="20.625" fill="white" transform="matrix(1 0 0 -1 0.3125 21.3125)"/>
</clipPath>
</defs>
</svg>
