<svg width="32" height="32" viewBox="0 0 32 32" fill="none" xmlns="http://www.w3.org/2000/svg">
<circle cx="16" cy="16" r="16" fill="#FDF4F0"/>
<g clip-path="url(#clip0_8314_17510)">
<path d="M18.9162 17.6667H18.2579L18.0245 17.4417C19.0245 16.275 19.5412 14.6833 19.2579 12.9917C18.8662 10.675 16.9329 8.825 14.5995 8.54167C11.0745 8.10834 8.10788 11.075 8.54121 14.6C8.82454 16.9333 10.6745 18.8667 12.9912 19.2583C14.6829 19.5417 16.2745 19.025 17.4412 18.025L17.6662 18.2583V18.9167L21.2079 22.4583C21.5495 22.8 22.1079 22.8 22.4495 22.4583C22.7912 22.1167 22.7912 21.5583 22.4495 21.2167L18.9162 17.6667ZM13.9162 17.6667C11.8412 17.6667 10.1662 15.9917 10.1662 13.9167C10.1662 11.8417 11.8412 10.1667 13.9162 10.1667C15.9912 10.1667 17.6662 11.8417 17.6662 13.9167C17.6662 15.9917 15.9912 17.6667 13.9162 17.6667Z" fill="#C28C7E"/>
</g>
<defs>
<clipPath id="clip0_8314_17510">
<rect width="20" height="20" fill="white" transform="translate(6 6)"/>
</clipPath>
</defs>
</svg>
