<svg xmlns="http://www.w3.org/2000/svg" width="12" height="14" viewBox="0 0 12 14" fill="none">
  <path d="M11.1534 12.0953C11.1534 12.0953 11.1534 12.1184 11.1765 12.1184V12.1646V12.2108C11.1534 12.2108 11.1534 12.2339 11.1534 12.2339L10.5296 12.8578C10.5296 12.8578 10.5065 12.8578 10.5065 12.8809H10.4602H10.414C10.3909 12.8578 10.3909 12.8578 10.3678 12.8578L6.78649 9.25332C6.04712 9.80785 5.16912 10.1082 4.2449 10.1082C3.13585 10.1082 2.0961 9.66921 1.31052 8.88363C0.524939 8.09805 0.0859375 7.05831 0.0859375 5.94925C0.0859375 4.84019 0.524939 3.80045 1.31052 3.01487C2.0961 2.22929 3.13585 1.79029 4.2449 1.79029C5.35396 1.79029 6.3937 2.22929 7.17928 3.01487C7.96487 3.80045 8.40387 4.84019 8.40387 5.94925C8.40387 6.87347 8.1035 7.75147 7.54897 8.49084L11.1534 12.0953ZM6.43991 8.14426C7.01755 7.56663 7.34102 6.78104 7.34102 5.94925C7.34102 5.11746 7.01755 4.33188 6.43991 3.75424C5.86228 3.17661 5.0767 2.85313 4.2449 2.85313C3.41311 2.85313 2.62753 3.17661 2.04989 3.75424C1.47226 4.33188 1.14878 5.11746 1.14878 5.94925C1.14878 6.78104 1.47226 7.56663 2.04989 8.14426C2.62753 8.72189 3.41311 9.04537 4.2449 9.04537C5.0767 9.04537 5.86228 8.72189 6.43991 8.14426Z" fill="black"/>
</svg>