<svg width="20" height="21" viewBox="0 0 20 21" fill="none" xmlns="http://www.w3.org/2000/svg">
<path d="M10 0.249023C4.48 0.249023 0 4.72902 0 10.249C0 15.769 4.48 20.249 10 20.249C15.52 20.249 20 15.769 20 10.249C20 4.72902 15.52 0.249023 10 0.249023ZM10 18.249C5.59 18.249 2 14.659 2 10.249C2 5.83902 5.59 2.24902 10 2.24902C14.41 2.24902 18 5.83902 18 10.249C18 14.659 14.41 18.249 10 18.249ZM14.59 5.82902L8 12.419L5.41 9.83902L4 11.249L8 15.249L16 7.24902L14.59 5.82902Z" fill="#12B76A"/>
</svg>
