<svg width="1209" height="749" viewBox="0 0 1209 749" fill="none" xmlns="http://www.w3.org/2000/svg">
<path opacity="0.2" d="M1345.71 61.8623L30.1207 778.937" stroke="black" stroke-width="0.9"/>
<path opacity="0.2" d="M1426.64 96.7653L111.051 813.84" stroke="black" stroke-width="0.9"/>
<path opacity="0.2" d="M1507.57 131.668L191.983 848.743" stroke="black" stroke-width="0.9"/>
<path opacity="0.2" d="M1588.5 166.571L272.914 883.646" stroke="black" stroke-width="0.9"/>
<path opacity="0.2" d="M1669.43 201.474L353.844 918.549" stroke="black" stroke-width="0.9"/>
<path opacity="0.2" d="M1750.36 236.377L434.775 953.452" stroke="black" stroke-width="0.9"/>
<path opacity="0.2" d="M1831.29 271.28L515.706 988.355" stroke="black" stroke-width="0.9"/>
<path opacity="0.2" d="M1912.22 306.183L596.637 1023.26" stroke="black" stroke-width="0.9"/>
<path opacity="0.2" d="M1993.15 341.086L677.569 1058.16" stroke="black" stroke-width="0.9"/>
<path opacity="0.2" d="M2074.08 375.989L758.499 1093.06" stroke="black" stroke-width="0.9"/>
<path opacity="0.2" d="M2155.01 410.892L839.429 1127.97" stroke="black" stroke-width="0.9"/>
<path opacity="0.2" d="M2235.95 445.795L920.36 1162.87" stroke="black" stroke-width="0.9"/>
<path opacity="0.2" d="M2316.88 480.698L1001.29 1197.77" stroke="black" stroke-width="0.9"/>
<path opacity="0.2" d="M2397.81 515.601L1082.22 1232.68" stroke="black" stroke-width="0.9"/>
<path opacity="0.2" d="M2478.74 550.504L1163.15 1267.58" stroke="black" stroke-width="0.9"/>
<path opacity="0.2" d="M1190.93 146.224L2566.76 739.574" stroke="black" stroke-width="0.9"/>
<path opacity="0.2" d="M1113.54 188.405L2489.37 781.755" stroke="black" stroke-width="0.9"/>
<path opacity="0.2" d="M1036.16 230.586L2411.98 823.936" stroke="black" stroke-width="0.9"/>
<path opacity="0.2" d="M958.769 272.766L2334.59 866.117" stroke="black" stroke-width="0.9"/>
<path opacity="0.2" d="M881.382 314.948L2257.21 908.298" stroke="black" stroke-width="0.9"/>
<path opacity="0.2" d="M803.994 357.128L2179.82 950.479" stroke="black" stroke-width="0.9"/>
<path opacity="0.2" d="M726.606 399.309L2102.43 992.659" stroke="black" stroke-width="0.9"/>
<path opacity="0.2" d="M649.235 441.489L2025.06 1034.84" stroke="black" stroke-width="0.9"/>
<path opacity="0.2" d="M571.848 483.67L1947.67 1077.02" stroke="black" stroke-width="0.9"/>
<path opacity="0.2" d="M494.46 525.851L1870.29 1119.2" stroke="black" stroke-width="0.9"/>
<path opacity="0.2" d="M417.073 568.032L1792.9 1161.38" stroke="black" stroke-width="0.9"/>
<path opacity="0.2" d="M339.686 610.213L1715.51 1203.56" stroke="black" stroke-width="0.9"/>
<path opacity="0.2" d="M262.299 652.394L1638.12 1245.74" stroke="black" stroke-width="0.9"/>
<path opacity="0.2" d="M184.911 694.574L1560.74 1287.92" stroke="black" stroke-width="0.9"/>
</svg>
