<svg width="40" height="40" viewBox="0 0 40 40" fill="none" xmlns="http://www.w3.org/2000/svg">
<g clip-path="url(#clip0_7532_23615)">
<path d="M18.5241 7.77816C18.5241 7.96333 18.4876 8.14668 18.4168 8.31775C18.3459 8.48882 18.2421 8.64425 18.1111 8.77518C17.9802 8.90612 17.8248 9.00998 17.6537 9.08083C17.4826 9.15169 17.2993 9.18816 17.1141 9.18816C16.9289 9.18816 16.7456 9.15169 16.5745 9.08083C16.4034 9.00998 16.248 8.90612 16.1171 8.77518C15.9862 8.64425 15.8823 8.48882 15.8114 8.31775C15.7406 8.14668 15.7041 7.96333 15.7041 7.77816C15.7041 7.40421 15.8527 7.04557 16.1171 6.78114C16.3815 6.51672 16.7401 6.36816 17.1141 6.36816C17.4881 6.36816 17.8467 6.51672 18.1111 6.78114C18.3755 7.04557 18.5241 7.40421 18.5241 7.77816ZM22.7558 9.18816C23.1297 9.18816 23.4884 9.03961 23.7528 8.77518C24.0172 8.51076 24.1658 8.15212 24.1658 7.77816C24.1658 7.40421 24.0172 7.04557 23.7528 6.78114C23.4884 6.51672 23.1297 6.36816 22.7558 6.36816C22.3818 6.36816 22.0232 6.51672 21.7587 6.78114C21.4943 7.04557 21.3458 7.40421 21.3458 7.77816C21.3458 8.15212 21.4943 8.51076 21.7587 8.77518C22.0232 9.03961 22.3818 9.18816 22.7558 9.18816Z" fill="#667085"/>
<path fill-rule="evenodd" clip-rule="evenodd" d="M10.59 0.783392C10.706 0.667234 10.8439 0.575088 10.9956 0.512219C11.1473 0.449351 11.3099 0.416992 11.4741 0.416992C11.6383 0.416992 11.801 0.449351 11.9527 0.512219C12.1044 0.575088 12.2422 0.667234 12.3583 0.783392L14.405 2.82839C16.0252 1.8624 17.877 1.35379 19.7633 1.35673H20.1083C22.0666 1.35673 23.8983 1.89339 25.4666 2.82839L27.5133 0.783392C27.7503 0.562592 28.0637 0.442387 28.3875 0.4481C28.7113 0.453814 29.0203 0.585001 29.2493 0.814022C29.4784 1.04304 29.6095 1.35202 29.6153 1.67585C29.621 1.99969 29.5008 2.3131 29.28 2.55006L27.4616 4.37006C29.2436 6.12096 30.3393 8.4524 30.55 10.9417C31.0912 10.7613 31.6676 10.7121 32.2316 10.7983C32.7956 10.8844 33.3311 11.1033 33.7938 11.437C34.2566 11.7707 34.6335 12.2096 34.8933 12.7175C35.1531 13.2254 35.2885 13.7879 35.2883 14.3584V22.8201C35.2886 23.3873 35.155 23.9465 34.8981 24.4522C34.6413 24.958 34.2687 25.3958 33.8105 25.7302C33.3523 26.0646 32.8216 26.2859 32.2617 26.3763C31.7017 26.4666 31.1284 26.4234 30.5883 26.2501V29.3584C30.5883 30.8801 29.8466 32.2267 28.7066 33.0617V35.5117C28.7066 36.5912 28.2778 37.6264 27.5146 38.3897C26.7513 39.1529 25.7161 39.5817 24.6366 39.5817C23.5572 39.5817 22.522 39.1529 21.7587 38.3897C20.9954 37.6264 20.5666 36.5912 20.5666 35.5117V33.9417H19.305V35.5134C19.305 36.5928 18.8762 37.628 18.1129 38.3913C17.3496 39.1546 16.3144 39.5834 15.235 39.5834C14.1555 39.5834 13.1203 39.1546 12.357 38.3913C11.5938 37.628 11.165 36.5928 11.165 35.5134V33.0617C10.5818 32.6364 10.1074 32.0792 9.7807 31.4356C9.45396 30.792 9.28409 30.0802 9.28496 29.3584V26.2501C8.74489 26.4234 8.17152 26.4666 7.61156 26.3763C7.05161 26.2859 6.52093 26.0646 6.06276 25.7302C5.6046 25.3958 5.23193 24.958 4.97511 24.4522C4.7183 23.9465 4.58462 23.3873 4.58496 22.8201V14.3584C4.58483 13.7881 4.72021 13.2258 4.97995 12.7181C5.23969 12.2103 5.61636 11.7715 6.07892 11.4379C6.54148 11.1042 7.0767 10.8852 7.64048 10.799C8.20426 10.7127 8.78046 10.7616 9.32163 10.9417C9.53246 8.45244 10.6281 6.12104 12.41 4.37006L10.59 2.55006C10.3559 2.31568 10.2244 1.99798 10.2244 1.66673C10.2244 1.33547 10.3559 1.01777 10.59 0.783392ZM12.1983 13.2584C12.0884 13.2593 11.9832 13.3036 11.9058 13.3816C11.8284 13.4597 11.785 13.5651 11.785 13.6751V29.3584C11.785 29.9095 12.0033 30.4381 12.3922 30.8286C12.7811 31.2191 13.3089 31.4395 13.86 31.4417H26.0116C26.5627 31.4395 27.0905 31.2191 27.4794 30.8286C27.8683 30.4381 28.0866 29.9095 28.0866 29.3584V13.6751C28.0866 13.5651 28.0432 13.4597 27.9658 13.3816C27.8884 13.3036 27.7832 13.2593 27.6733 13.2584H12.1983ZM27.6766 10.7584H28.015C27.7535 8.84693 26.8086 7.09485 25.355 5.82634C23.9014 4.55782 22.0376 3.85872 20.1083 3.85839H19.7633C17.834 3.85872 15.9702 4.55782 14.5166 5.82634C13.063 7.09485 12.1181 8.84693 11.8566 10.7584H27.6766ZM23.0666 35.5134V33.9417H26.2066V35.5134C26.2066 35.7196 26.166 35.9237 26.0871 36.1142C26.0082 36.3047 25.8926 36.4778 25.7468 36.6236C25.601 36.7693 25.4279 36.885 25.2374 36.9639C25.047 37.0428 24.8428 37.0834 24.6366 37.0834C24.4305 37.0834 24.2263 37.0428 24.0358 36.9639C23.8453 36.885 23.6723 36.7693 23.5265 36.6236C23.3807 36.4778 23.265 36.3047 23.1861 36.1142C23.1072 35.9237 23.0666 35.7196 23.0666 35.5134ZM13.8566 33.9417H16.805V35.5134C16.805 35.9298 16.6396 36.3291 16.3451 36.6236C16.0507 36.918 15.6514 37.0834 15.235 37.0834C14.8186 37.0834 14.4192 36.918 14.1248 36.6236C13.8304 36.3291 13.665 35.9298 13.665 35.5134V33.9417H13.8566ZM31.6883 23.9217C31.3971 23.9217 31.1179 23.8063 30.9117 23.6007C30.7055 23.3952 30.5892 23.1162 30.5883 22.8251V14.3534C30.589 14.0617 30.7055 13.7821 30.9122 13.5763C31.0146 13.4744 31.1361 13.3936 31.2697 13.3387C31.4032 13.2837 31.5463 13.2556 31.6908 13.2559C31.8353 13.2562 31.9782 13.285 32.1116 13.3406C32.2449 13.3962 32.366 13.4775 32.4679 13.5798C32.5698 13.6822 32.6505 13.8037 32.7055 13.9373C32.7605 14.0708 32.7886 14.2139 32.7883 14.3584V22.8201C32.7883 23.1118 32.6724 23.3916 32.4661 23.5979C32.2598 23.8042 31.98 23.9217 31.6883 23.9217ZM9.2833 14.3501C9.28241 14.0583 9.16567 13.7789 8.95876 13.5732C8.75184 13.3676 8.4717 13.2525 8.17996 13.2534C7.88822 13.2543 7.60879 13.371 7.40312 13.5779C7.19746 13.7848 7.08241 14.065 7.0833 14.3567V22.8184C7.08219 23.1101 7.19702 23.3904 7.40253 23.5974C7.60804 23.8045 7.88739 23.9215 8.17913 23.9226C8.47087 23.9237 8.7511 23.8088 8.95817 23.6033C9.16524 23.3978 9.28219 23.1185 9.2833 22.8267V14.3517V14.3501Z" fill="#667085" stroke="#FCFCFD" stroke-width="0.848153"/>
</g>
<defs>
<clipPath id="clip0_7532_23615">
<rect width="40" height="40" fill="white"/>
</clipPath>
</defs>
</svg>
