<svg width="40" height="40" viewBox="0 0 40 40" fill="none" xmlns="http://www.w3.org/2000/svg">
<path d="M32.9484 29.0393C32.4801 30.1385 31.902 31.1868 31.223 32.1678C30.3163 33.4723 29.5733 34.3751 29.0014 34.8764C28.1128 35.6996 27.1625 36.1211 26.1446 36.1452C25.414 36.1452 24.5319 35.9353 23.5059 35.5095C22.4774 35.0863 21.5312 34.8764 20.6656 34.8764C19.7588 34.8764 18.7855 35.0863 17.7446 35.5095C16.7021 35.9353 15.8629 36.1568 15.2211 36.1792C14.2444 36.2207 13.271 35.7875 12.3001 34.8764C11.6797 34.3312 10.9046 33.3959 9.97569 32.0715C8.97845 30.6575 8.15894 29.0177 7.51715 27.1472C6.83011 25.1274 6.48535 23.1723 6.48535 21.2786C6.48535 19.1094 6.95024 17.2389 7.88083 15.6713C8.6123 14.4125 9.58486 13.4191 10.8034 12.6897C12.022 11.9603 13.3377 11.5893 14.7545 11.5653C15.5296 11.5653 16.5466 11.8076 17.8104 12.2831C19.0702 12.7603 19.8798 13.0017 20.2344 13.0017C20.4994 13.0017 21.3987 12.7196 22.9225 12.1553C24.3633 11.6325 25.5802 11.4151 26.5758 11.5006C29.2754 11.7205 31.3044 12.7943 32.653 14.7278C30.2381 16.2033 29.0442 18.2696 29.0681 20.9209C29.0895 22.9856 29.8325 24.705 31.2921 26.0684C31.9374 26.6913 32.6903 27.1897 33.5137 27.5389C33.3415 28.0452 33.1536 28.5456 32.9484 29.0393ZM26.7568 4.46515C26.7568 6.08417 26.1701 7.59531 25.0018 8.99443C23.5915 10.6566 21.8858 11.6176 20.0353 11.4665C20.0105 11.2628 19.9981 11.0577 19.9983 10.8524C19.9983 9.29898 20.6689 7.63597 21.8603 6.27669C22.4552 5.58792 23.2113 5.01533 24.1279 4.55892C25.0429 4.10915 25.9085 3.86019 26.7231 3.81787C26.7469 4.03363 26.756 4.25022 26.756 4.46515H26.7568Z" stroke="#667085" stroke-width="1.69631" stroke-linecap="round" stroke-linejoin="round"/>
</svg>
