<svg width="22" height="24" viewBox="0 0 22 24" fill="none" xmlns="http://www.w3.org/2000/svg">
<g clip-path="url(#clip0_7476_19490)">
<path d="M12.3164 3.59473C13.0957 3.59473 13.7109 4.20996 13.7109 4.98926V21.8057C13.7109 22.585 13.0957 23.2002 12.3164 23.2002H2.14453C1.36523 23.2002 0.75 22.585 0.75 21.8057V4.98926C0.75 4.20996 1.36523 3.59473 2.14453 3.59473H12.3164ZM12.1113 21.6416V5.15332H2.34961V21.6416H12.1113ZM6.36914 19.3857C6.36914 19.1396 6.45117 18.9346 6.61523 18.7705C6.7793 18.6064 6.98438 18.5244 7.23047 18.5244C7.47656 18.5244 7.68164 18.6064 7.8457 18.7705C8.00977 18.9346 8.0918 19.1396 8.0918 19.3857C8.0918 19.6318 8.00977 19.8369 7.8457 20.001C7.68164 20.165 7.47656 20.2471 7.23047 20.2471C6.98438 20.2471 6.7793 20.165 6.61523 20.001C6.45117 19.8369 6.36914 19.6318 6.36914 19.3857Z" fill="#3C3E49"/>
</g>
<defs>
<clipPath id="clip0_7476_19490">
<rect width="21" height="22.5" fill="white" transform="matrix(1 0 0 -1 0.75 23.3975)"/>
</clipPath>
</defs>
</svg>
