<svg xmlns="http://www.w3.org/2000/svg" version="1.1" viewBox="0 0 1600 1568" width="1280" height="1280">
<path transform="translate(879,314)" d="m0 0h54v6c1.48 0.07 1.48 0.07 2.99 0.15 1.28 0.07 2.56 0.15 3.89 0.23 1.27 0.06 2.55 0.13 3.86 0.21 3.26 0.41 3.26 0.41 5.26 2.41v4c0.78 0.1 1.57 0.21 2.38 0.31 2.62 0.69 2.62 0.69 4.62 3.69v4c0.76 0.12 1.53 0.25 2.31 0.38 2.69 0.62 2.69 0.62 5.69 2.62 0.52 2.06 0.52 2.06 0.73 4.57 0.08 0.9 0.16 1.79 0.24 2.72 0.07 0.93 0.15 1.87 0.22 2.83 0.08 0.95 0.16 1.89 0.25 2.87 0.2 2.33 0.38 4.67 0.56 7.01 0.8 0.31 1.61 0.62 2.44 0.94 2.56 1.06 2.56 1.06 3.56 2.06 0.08 1.96 0.14 3.92 0.19 5.88 0.15 3.23 0.15 3.23 0.81 6.12 2.86 2.39 2.86 2.39 6 3v5c0.55 0.14 1.11 0.28 1.68 0.42 2.61 0.91 4.26 1.7 6.32 3.58 1.33 4.29 1.74 8.53 2 13 0.93 0.19 1.86 0.37 2.81 0.56 3.19 1.44 3.19 1.44 6.19 8.44h37v-6c2-2 2-2 5.04-2.2 1.77 0.04 1.77 0.04 3.58 0.08 1.79 0.02 1.79 0.02 3.61 0.05 0.91 0.02 1.83 0.05 2.77 0.07l1-7c3.16-0.94 5.97-1.11 9.25-1.06 1.34 0.01 1.34 0.01 2.7 0.02 0.68 0.02 1.35 0.03 2.05 0.04 0.12-1.13 0.25-2.27 0.38-3.44 0.2-1.17 0.41-2.35 0.62-3.56 2.41-1.2 4.1-1.2 6.79-1.32 0.94-0.04 1.88-0.08 2.85-0.12 0.99-0.04 1.97-0.08 2.98-0.12 1-0.05 1.99-0.09 3.01-0.13 2.46-0.11 4.91-0.21 7.37-0.31 0.14-0.8 0.29-1.61 0.44-2.44 0.56-2.56 0.56-2.56 1.56-3.56 5.05-0.4 10.6-0.84 15 2 0.62 2.08 0.62 2.08 1 4 0.84 0.06 1.69 0.12 2.55 0.18 1.65 0.13 1.65 0.13 3.33 0.26 1.63 0.12 1.63 0.12 3.3 0.24 2.82 0.32 2.82 0.32 4.82 1.32 0.27 0.97 0.54 1.94 0.81 2.94 0.59 1.51 0.59 1.51 1.19 3.06 0.83 0.31 1.65 0.62 2.5 0.94 0.83 0.35 1.65 0.7 2.5 1.06 1.31 3.62 1.31 3.62 2 7 0.78-0.04 1.57-0.08 2.38-0.12 2.62 0.12 2.62 0.12 4.62 2.12 0.4 1.99 0.74 3.99 1 6 0.78-0.04 1.57-0.08 2.38-0.12 2.62 0.12 2.62 0.12 4.62 2.12 0.12 1.21 0.12 1.21 0.25 2.44 0.25 0.84 0.49 1.69 0.75 2.56l6 3v36l-7 2-1 7h-7c0.01 0.75 0.02 1.5 0.04 2.27 0.01 1.47 0.01 1.47 0.02 2.98 0.01 0.97 0.03 1.95 0.04 2.95-0.09 2.46-0.39 4.46-1.1 6.8l-7 2-1 23h-5l-2 6 1 1c-0.29 2.05-0.63 4.09-1 6.12-0.8 5-1.09 8.9 0 13.9 0.36 2.14 0.71 4.29 1.06 6.44 0.31 1.85 0.63 3.71 0.94 5.56 0.84-0.01 1.69-0.02 2.55-0.04 1.65-0.01 1.65-0.01 3.33-0.02 1.63-0.02 1.63-0.02 3.3-0.04 2.82 0.1 2.82 0.1 4.82 1.1 0.62 2.06 0.62 2.06 1 4 0.58 0.03 1.16 0.05 1.76 0.08 5.56 0.4 9 1.22 13.2 4.92v3c1.04 0.05 2.08 0.1 3.15 0.15 3.86 0.19 7.72 0.39 11.6 0.59 1.67 0.09 3.34 0.17 5.01 0.25 2.41 0.12 4.81 0.25 7.21 0.38 0.75 0.03 1.49 0.06 2.26 0.1 7.02 0.4 7.02 0.4 9.79 2.53 0.75 3.62 0.75 3.62 1 7 0.84-0.01 1.69-0.02 2.55-0.04 1.65-0.01 1.65-0.01 3.33-0.02 1.63-0.02 1.63-0.02 3.3-0.04 2.82 0.1 2.82 0.1 4.82 1.1 0.25 0.78 0.49 1.57 0.75 2.38 1.68 3.51 3.79 4.04 7.25 5.62 0.04 0.96 0.04 0.96 0.08 1.94 0.11 2.92 0.23 5.83 0.36 8.75 0.06 1.51 0.06 1.51 0.12 3.05 0.06 1.46 0.06 1.46 0.12 2.96 0.06 1.34 0.06 1.34 0.11 2.71 0.21 2.65 0.46 5.04 1.21 7.59 2.97 1.86 2.97 1.86 6 3l-1 8c-0.8-0.02-1.61-0.04-2.44-0.06-2.49-0.24-2.49-0.24-3.56 1.06-0.16 2.14-0.25 4.29-0.32 6.44-0.06 1.96-0.06 1.96-0.12 3.96-0.04 1.39-0.08 2.77-0.12 4.16-0.05 1.4-0.09 2.79-0.13 4.18-0.11 3.42-0.21 6.84-0.31 10.3-1.69 0.38-1.69 0.38-3.41 0.77-1.18 0.41-2.37 0.81-3.59 1.23-1.54 3.51-1.54 3.51-2 7h-6v6c-3.46 1.07-6.64 1.1-10.2 1.06-1.08-0.01-2.16-0.02-3.27-0.02-0.82-0.02-1.64-0.03-2.48-0.04 0.03 1.7 0.03 1.7 0.06 3.44-0.06 3.56-0.06 3.56-1.06 4.56-1.63 0.09-3.27 0.11-4.91 0.1-0.99-0.01-1.98-0.01-3-0.01-1.56-0.01-1.56-0.01-3.15-0.03-1.05 0-2.09-0.01-3.17-0.01-2.59-0.01-5.18-0.03-7.77-0.05l-1 8c-7.59 0.33-15.2 0.66-23 1v7h-7c-1.49 3.96-1.49 3.96-3 8l-5-1c0.03 1.89 0.03 1.89 0.06 3.81 0.05 2.83-0.14 4.44-1.06 7.19-0.03 2.55 0 5.07 0.09 7.62 0.02 0.75 0.04 1.49 0.06 2.26l0.15 4.71c0.07 2.4 0.14 4.8 0.21 7.21 0.04 1.52 0.09 3.05 0.14 4.58 0.03 1.07 0.03 1.07 0.06 2.17 0.1 3.06 0.32 5.53 1.29 8.45 0.99-0.33 1.98-0.66 3-1l2 1c0.41 2.78 0.41 2.78 0.63 6.44 0.09 1.31 0.17 2.61 0.26 3.96 0.08 1.39 0.16 2.77 0.23 4.16 0.09 1.4 0.18 2.79 0.27 4.18 0.21 3.42 0.41 6.84 0.61 10.3 1.98 0.66 3.96 1.32 6 2v15c-1.98 0.66-3.96 1.32-6 2-0.02 0.59-0.04 1.18-0.06 1.78-0.1 2.72-0.21 5.44-0.32 8.16-0.03 0.92-0.06 1.85-0.09 2.8-0.25 5.99-1.06 11.4-2.53 17.3l-5 1-1 14c-2.31 0.33-4.62 0.66-7 1l-2 8h-6v6h-15l-2-5c-7.33-0.76-14.7-1.41-22-2-0.99-2.31-1.98-4.62-3-7-1.25 0-1.25 0-2.52-0.01-3.26-0.11-6.29-0.3-9.48-0.99-1.88-2.94-1.88-2.94-3-6-1.01-0.33-2.02-0.66-3.06-1-0.97-0.33-1.94-0.66-2.94-1l-2-6c-4.62-0.66-9.24-1.32-14-2l-2-5-14-1v6c-1 1-1 1-4.16 1.1-1.93-0.02-1.93-0.02-3.9-0.04-1.29-0.01-2.58-0.02-3.91-0.02-1.5-0.02-1.5-0.02-3.03-0.04 0.03 1.7 0.03 1.7 0.06 3.44-0.06 3.56-0.06 3.56-1.06 4.56-2.33 0.04-4.67 0.04-7 0v7c-3.29 0.8-4.71 1.1-8 0 0.02 1.61 0.02 1.61 0.04 3.25 0 1.39 0.01 2.79 0.02 4.19 0.01 0.7 0.02 1.41 0.03 2.14 0.01 1.81-0.04 3.61-0.09 5.42-1 1-1 1-4.06 1.06-0.97-0.02-1.94-0.04-2.94-0.06-0.06 1.07-0.12 2.14-0.18 3.25-0.09 1.39-0.17 2.79-0.26 4.19-0.06 1.06-0.06 1.06-0.12 2.14-0.33 5.31-0.33 5.31-1.44 6.42-2.33 0.04-4.67 0.04-7 0 0.02 1.61 0.02 1.61 0.04 3.25 0 1.39 0.01 2.79 0.02 4.19 0.01 0.7 0.02 1.41 0.03 2.14 0.01 1.81-0.04 3.61-0.09 5.42l-1 1h-6v15c-5 1-5 1-6 1l-1 7c-14.6 0.83-29.2 1.13-43.8 1.06-1.98 0-3.95-0.01-5.93-0.01-4.75-0.01-9.51-0.03-14.3-0.05 0.03 1.45 0.03 1.45 0.06 2.94-0.06 3.06-0.06 3.06-1.06 4.06-2.22 0.16-4.44 0.25-6.66 0.32-0.66 0.02-1.33 0.04-2.01 0.06l-6.39 0.18c-1.44 0.05-2.88 0.09-4.32 0.13-3.54 0.11-7.08 0.21-10.6 0.31l-2 7-12 1-2 7h-8c0.03 1.7 0.03 1.7 0.06 3.44-0.06 3.56-0.06 3.56-1.06 4.56-2.67 0.14-5.32 0.04-8 0v8h-6c-0.05 0.66-0.1 1.33-0.15 2.01-0.74 8.77-0.74 8.77-2.85 13h-5l-1 70-7 2-1 45-7 2-1 37-7 2-1 38h-5c-1.55 1.55-1.21 3.08-1.3 5.24-0.06 1.36-0.06 1.36-0.12 2.73-0.04 0.98-0.08 1.96-0.12 2.97-0.06 1.5-0.06 1.5-0.13 3.02-0.13 3.2-0.26 6.4-0.39 9.6-0.09 2.17-0.19 4.33-0.28 6.49-0.22 5.32-0.44 10.6-0.66 16-1.98 0.66-3.96 1.32-6 2l-2 22c-1.98 0.66-3.96 1.32-6 2l-1 7h-7l-1 7-7 2-1 6c-15.2 0.33-30.4 0.66-46 1v5c-6.51 0.17-13 0.33-19.5 0.48-2.22 0.06-4.44 0.11-6.66 0.17-3.18 0.08-6.36 0.16-9.54 0.23-1 0.03-1.99 0.05-3.02 0.08-1.38 0.03-1.38 0.03-2.79 0.06-0.81 0.02-1.63 0.04-2.46 0.06-1.99-0.08-1.99-0.08-3.99-1.08-0.72-1.64-1.39-3.31-2-5-5.81-0.95-11.6-1.3-17.4-1.56-0.92-0.05-1.84-0.09-2.79-0.13-2.26-0.11-4.51-0.21-6.77-0.31-0.42-0.96-0.84-1.92-1.27-2.91-1.5-3.46-1.5-3.46-5.42-4.47-1.09-0.2-2.18-0.41-3.31-0.62-0.03-1.14-0.03-1.14-0.06-2.31-0.31-0.89-0.62-1.78-0.94-2.69-1.73-0.74-1.73-0.74-3.5-1.5-1.73-0.74-1.73-0.74-3.5-1.5-0.94-2.69-0.94-2.69-1-5-0.8-0.12-1.61-0.25-2.44-0.38-0.84-0.2-1.69-0.41-2.56-0.62-1.26-2.52-1.21-4.41-1.32-7.23-0.06-1.54-0.06-1.54-0.12-3.12-0.04-1.08-0.08-2.16-0.12-3.27-0.05-1.09-0.09-2.18-0.13-3.3-0.11-2.69-0.21-5.39-0.31-8.08-0.97 0.02-1.94 0.04-2.94 0.06-3.06-0.06-3.06-0.06-4.06-1.06-1.22-11.9-1.28-24-1.56-36-0.05-1.76-0.09-3.52-0.13-5.27-0.11-4.25-0.21-8.49-0.31-12.7-0.62 0.21-1.24 0.41-1.88 0.62-1.05 0.19-1.05 0.19-2.12 0.38-2.88-2.88-2.3-5-2.38-9.02-0.02-0.7-0.03-1.39-0.05-2.11-0.05-2.23-0.09-4.45-0.13-6.68-0.05-2.22-0.09-4.44-0.15-6.66l-0.12-6.06c-0.14-2.95-0.49-5.6-1.17-8.47-0.8-0.12-1.61-0.25-2.44-0.38-0.84-0.2-1.69-0.41-2.56-0.62-1.17-2.35-1.2-3.95-1.32-6.57-0.06-1.34-0.06-1.34-0.12-2.72-0.04-0.93-0.08-1.87-0.12-2.83-0.05-0.95-0.09-1.89-0.13-2.87-0.11-2.34-0.21-4.67-0.31-7.01l-7-2-1-39h-6c-2-2-1.18-6-1.21-8.73-0.01-0.81-0.02-1.62-0.03-2.46-0.03-2.69-0.05-5.37-0.08-8.06l-0.06-5.58c-0.05-4.91-0.1-9.81-0.15-14.7-0.05-5-0.11-10-0.16-15-0.11-9.82-0.21-19.6-0.31-29.5-3.47-1.49-3.47-1.49-7-3v-7c-0.78 0.21-1.57 0.41-2.38 0.62-0.86 0.13-1.73 0.25-2.62 0.38-2.57-2.57-2.54-4.48-3-8-1.18 0.06-1.18 0.06-2.38 0.12-2.62-0.12-2.62-0.12-4.62-2.12-0.62-2.62-0.62-2.62-1-5-0.93-0.02-1.86-0.04-2.81-0.06-1.05-0.31-2.11-0.62-3.19-0.94-1.02-2.33-2.01-4.66-3-7-1.99-0.69-3.99-1.36-6-2-1.38-3.12-1.38-3.12-2-6-0.8-0.14-1.61-0.29-2.44-0.44-2.56-0.56-2.56-0.56-3.56-1.56-0.04-2.33-0.04-4.67 0-7h-7c-0.21-0.76-0.41-1.53-0.62-2.31-1.81-3.53-3.82-4.13-7.38-5.69-2-2-2-2-2.12-4.62 0.04-0.79 0.08-1.57 0.12-2.38-1.18 0.09-1.18 0.09-2.38 0.19-0.86-0.06-1.73-0.13-2.62-0.19-2-3-2-3-2.75-5.06-1.83-2.84-4.09-3.07-7.25-3.94-1-1-1-1-1.06-3.56 0.02-0.81 0.04-1.61 0.06-2.44-0.62-0.14-1.24-0.29-1.88-0.44-2.12-0.56-2.12-0.56-4.12-1.56v-5c-1.11-0.21-2.23-0.41-3.38-0.62-3.62-1.38-3.62-1.38-5-4.38-0.3-1.49-0.3-1.49-0.62-3l-1-2c-1.66-0.38-3.32-0.71-5-1l-2-1v-5c-1.18 0.06-1.18 0.06-2.38 0.12-2.62-0.12-2.62-0.12-4.62-2.12-0.41-2.82-0.41-2.82-0.62-6.12-0.08-1.1-0.15-2.2-0.23-3.33-0.05-0.84-0.1-1.68-0.15-2.55-0.95-0.21-1.9-0.41-2.88-0.62-1.54-0.69-1.54-0.69-3.12-1.38-0.7-1.99-1.37-3.99-2-6-2.48-1.37-2.48-1.37-5-2-2.33-2.33-1.86-7.83-2.21-11-0.47-3.08-0.47-3.08-2.74-4.41-2.01-0.68-2.01-0.68-4.05-0.59-0.06-0.76-0.12-1.52-0.18-2.3-0.09-0.99-0.17-1.99-0.26-3.01-0.08-0.99-0.16-1.97-0.24-2.99-0.24-2.79-0.24-2.79-1.32-5.7l-5-2v-13c-1.11-0.1-2.23-0.21-3.38-0.31-1.79-0.34-1.79-0.34-3.62-0.69-2.28-3.42-2.2-4.57-2.06-8.56 0.23-3.87 0.23-3.87-0.94-7.44h-5c-2.06-3.38-2.19-5.89-2.06-9.81 0.08-4.55-0.13-8.72-0.94-13.2-0.8-0.31-1.61-0.62-2.44-0.94-2.56-1.06-2.56-1.06-3.56-2.06-1.09-5.83-1.21-11.6-1.32-17.5-0.02-0.99-0.04-1.98-0.06-2.99l-0.18-9.42c-0.05-2.13-0.09-4.27-0.13-6.41-0.11-5.21-0.21-10.4-0.31-15.6l-5-1c-0.82-3.6-1.13-6.92-1.13-10.6 0-1.08-0.01-2.16-0.01-3.27 0.01-1.13 0.01-2.26 0.02-3.43v-3.51c0.04-8.76 0.38-17.4 1.12-26.2h6c-0.01-1.14-0.02-2.28-0.03-3.46-0.04-4.22-0.06-8.44-0.08-12.7-0.01-1.82-0.02-3.65-0.04-5.48-0.03-2.63-0.04-5.26-0.05-7.88-0.01-0.82-0.02-1.64-0.03-2.49 0-2.01 0.11-4.02 0.23-6.02 2-2 2-2 5.12-2.12 0.95 0.04 1.9 0.08 2.88 0.12-0.01-0.63-0.01-1.26-0.02-1.91-0.02-2.84-0.03-5.69-0.04-8.53-0.01-0.99-0.02-1.98-0.03-3.01 0-0.94 0-1.89-0.01-2.86 0-0.87-0.01-1.75-0.01-2.65 0.11-2.04 0.11-2.04 1.11-3.04 2.33-0.04 4.67-0.04 7 0-0.01-0.66-0.02-1.31-0.03-1.99-0.04-2.96-0.07-5.92-0.09-8.89-0.02-1.03-0.04-2.06-0.06-3.12 0-0.99-0.01-1.98-0.02-2.99-0.01-0.91-0.02-1.82-0.03-2.76 0.23-2.25 0.23-2.25 2.23-4.25 3.12-0.12 3.12-0.12 6 0-0.02-0.57-0.05-1.14-0.07-1.72-0.12-5.21 0.39-9.35 2.07-14.3h6v-8l4-1v2h3c-0.04-0.97-0.08-1.94-0.12-2.94-0.02-4.51 1.01-8.71 2.12-13.1 4.88-1 4.88-1 6-1l1-7h7v-14c4-2 4-2 6.25-1.62 0.58 0.2 1.15 0.41 1.75 0.62v-7c1.75-1.06 1.75-1.06 4-2l4 1v-9h7c0.29-1.13 0.58-2.27 0.88-3.44 0.55-1.76 0.55-1.76 1.12-3.56 2.49-1.25 3.41-0.78 6 0v-7c3.29-0.8 4.71-1.1 8 0v-8c2.89-0.83 4.89-1 8-1v-7c1.14-0.22 1.14-0.22 2.31-0.44 2.77-0.52 2.77-0.52 5.69-1.56v-5c2.35-1.43 3.48-2.09 6.25-1.62 0.58 0.2 1.15 0.41 1.75 0.62-0.02-0.95-0.04-1.9-0.06-2.88 0.06-3.12 0.06-3.12 1.06-5.12h14v-6l1-2c2.32-0.41 4.66-0.74 7-1l2-6c4.63-1.04 9.29-1.52 14-2v-6c2.96-0.83 5.7-1.18 8.77-1.32 0.89-0.04 1.77-0.08 2.69-0.12s1.84-0.08 2.79-0.12c0.94-0.05 1.87-0.09 2.84-0.13 2.3-0.11 4.61-0.21 6.91-0.31v-6l15-1v-6c2-2 2-2 4.98-2.23 1.25 0.01 2.49 0.02 3.78 0.03 0.99 0.01 0.99 0.01 2.01 0.01 2.12 0.01 4.24 0.04 6.35 0.07 1.44 0.01 2.88 0.01 4.31 0.02 3.53 0.02 7.05 0.06 10.6 0.1v-6c3.47-0.5 3.47-0.5 7-1v-1c15.1-0.09 30.2-0.16 45.2-0.21 7-0.02 14-0.05 21-0.09 6.75-0.05 13.5-0.07 20.2-0.08 2.58-0.01 5.16-0.02 7.74-0.04 3.6-0.03 7.21-0.04 10.8-0.03 1.07-0.02 2.15-0.03 3.26-0.05 0.98 0.01 1.96 0.01 2.97 0.02 0.85 0 1.7-0.01 2.58-0.01 2.18 0.49 2.18 0.49 3.92 2.33 1.26 2.16 1.26 2.16 2.26 5.16 3.02 1.19 3.02 1.19 6.44 0.94 3.32 0.06 4.82 0.31 7.56 2.06v5c0.63 0.03 1.25 0.05 1.9 0.08 2.82 0.11 5.65 0.23 8.48 0.36 0.98 0.04 1.96 0.08 2.98 0.12 0.94 0.04 1.88 0.08 2.85 0.12 0.87 0.04 1.74 0.08 2.64 0.11 2.15 0.21 2.15 0.21 4.15 1.21l2 6h38l1-7h7v-13c4-2 4-2 6-2 1.84-3.68 1.47-8.07 1.72-12.1 0.28-2.87 0.28-2.87 1.28-3.87 2-0.04 4-0.04 6 0-0.02-0.74-0.05-1.47-0.07-2.23-0.02-0.98-0.04-1.95-0.05-2.96-0.03-0.96-0.05-1.92-0.08-2.92 0.21-3.02 0.93-5.16 2.2-7.89h6c-0.02-0.99-0.05-1.97-0.07-2.99-0.02-1.28-0.04-2.56-0.05-3.89-0.03-1.27-0.05-2.55-0.08-3.86 0.2-3.26 0.2-3.26 2.2-5.26 2.62-0.62 2.62-0.62 5-1 0.05-0.76 0.1-1.52 0.15-2.3 0.07-0.99 0.15-1.99 0.23-3.01 0.06-0.99 0.13-1.97 0.21-2.99 0.41-2.7 0.41-2.7 2.41-5.7 3.04-0.51 3.04-0.51 6.62-0.69 1.19-0.06 2.38-0.13 3.61-0.2 1.37-0.05 1.37-0.05 2.77-0.11l2-6zm15 23v7c-1.11-0.06-2.23-0.12-3.38-0.19-1.79 0.1-1.79 0.1-3.62 0.19-1.75 2.62-2.39 4.04-3 7h-5c-1.86 3.13-2.2 5.37-2 9-2.31 0.33-4.62 0.66-7 1l-1 22h-5c-2.77 2.77-2.4 4.77-2.62 8.62-0.08 1.19-0.15 2.38-0.23 3.61-0.08 1.37-0.08 1.37-0.15 2.77-0.78-0.04-1.57-0.08-2.38-0.12-2.78-0.17-2.78-0.17-4.62 2.12-0.17 3.08-0.17 3.08 0 6-1.13 0.31-2.27 0.62-3.44 0.94-3.35 0.69-3.35 0.69-4.56 2.06-0.07 2.35-0.08 4.71-0.06 7.06 0.01 1.29 0.02 2.58 0.02 3.91 0.02 1 0.03 2 0.04 3.03-2.31-0.33-4.62-0.66-7-1-1.02 4.1-1.02 4.1 0 8-1.3-0.01-2.61-0.02-3.95-0.04-3.88 0-7.71 0.17-11.6 0.45-6.95 0.48-13.6 0.55-20.5-0.16-7-0.44-14-0.29-21-0.21-1.1 0.01-2.19 0.01-3.32 0.02-0.98 0.01-1.97 0.03-2.99 0.04-2.43-0.09-4.37-0.2-6.63-1.1-0.7-1.99-1.37-3.99-2-6-3.01-1-5.54-1.3-8.69-1.56-1.49-0.13-1.49-0.13-3.01-0.26-0.76-0.06-1.52-0.12-2.3-0.18-0.22-1.18-0.22-1.18-0.44-2.38-1.26-2.68-1.26-2.68-3.31-3.41-6.12-1.53-12.1-1.27-18.3-0.83-0.96 0.05-1.92 0.11-2.91 0.17-2.35 0.14-4.69 0.29-7.03 0.45-0.14-0.95-0.29-1.9-0.44-2.88-0.39-3.01-0.39-3.01-1.56-5.12-1.96-0.05-3.92-0.09-5.88-0.12-1.09-0.03-2.18-0.05-3.3-0.08-2.96-0.1-2.96-0.1-4.82 2.2-0.07 2.55-0.07 2.55 1 5 2.48 1.37 2.48 1.37 5 2 0.5 3.47 0.5 3.47 1 7h-7c-0.05 2.12-0.09 4.25-0.12 6.38-0.03 1.18-0.05 2.36-0.08 3.58-0.13 3.15-0.13 3.15 2.2 5.04 1.98 0.33 3.96 0.66 6 1v37l6 3 1 53h-6l-1 16h-6c-0.16 1.09-0.33 2.19-0.5 3.31-1.5 3.69-1.5 3.69-3.41 4.82-2.02 0.74-4.01 1.36-6.09 1.87v4c-3.46 1.73-7.45 0.9-11.2 0.74-1.36 0.13-1.36 0.13-2.75 0.26-2.15 3.23-2.2 4.28-2 8-0.92-0.01-1.83-0.02-2.77-0.04-1.19 0-2.38-0.01-3.61-0.02-1.18-0.01-2.36-0.03-3.58-0.04-2.96-0.11-2.96-0.11-5.04 1.1-0.5 2.97-0.5 2.97-1 6-10.4 0.99-10.4 0.99-21 2l-1 7-15 1-1 6-7 2-1 14c1.98 0.66 3.96 1.32 6 2 1.62 2.25 2.11 4.33 3 7h5c0.21 1.11 0.41 2.23 0.62 3.38 1 3.89 1 3.89 4.5 5.06 0.95 0.18 1.9 0.37 2.88 0.56l1 6c4.76 0.95 9.17 1.08 14 1 0.21 1.11 0.41 2.23 0.62 3.38 0.99 3.86 0.99 3.86 4.38 5.06 2.82 0.62 2.82 0.62 5 0.56 0.14 0.8 0.29 1.61 0.44 2.44 0.3 2.48 0.3 2.48 1.56 3.56 1.79 0.21 3.58 0.37 5.38 0.5 3.14 0.23 5.62 0.5 8.62 1.5-0.02 0.8-0.04 1.61-0.06 2.44-0.24 2.49-0.24 2.49 1.06 3.56 3.33 0.42 6.66 0.77 10 1.11 0.99 0.29 1.98 0.59 3 0.89 1.22 2.45 1.22 2.45 2 5l3 2 2-1v2h2c0.25 0.8 0.5 1.61 0.75 2.44 0.41 0.84 0.83 1.69 1.25 2.56 2.03 0.7 2.03 0.7 4 1 0.13 1 0.27 2 0.4 3.03 0.27 1.93 0.27 1.93 0.54 3.91 0.26 1.93 0.26 1.93 0.52 3.9 0.2 3.01 0.2 3.01 1.54 4.16h5v47c-1.98 0.66-3.96 1.32-6 2-0.06 1.14-0.12 2.29-0.18 3.46-0.09 1.5-0.17 2.99-0.26 4.48-0.04 0.75-0.08 1.51-0.12 2.28-0.33 5.67-0.33 5.67-1.44 6.78-0.04 2-0.04 4 0 6l-4-1c-1.54 4.8-2.26 8.84-2.27 13.9v3.86c0.01 1.96 0.01 1.96 0.02 3.97-0.01 1.34-0.01 2.68-0.02 4.02v3.84c0.01 1.73 0.01 1.73 0.01 3.5 0.05 3.09 0.05 3.09 2.26 5.89 2.58 0.25 2.58 0.25 5 0 0.12 1.13 0.25 2.27 0.38 3.44 0.2 1.17 0.41 2.35 0.62 3.56 2.43 1.22 4.01 1.13 6.73 1.13 0.95 0 1.9 0.01 2.88 0.01 0.99-0.01 1.99-0.01 3.01-0.02 0.98 0.01 1.95 0.01 2.95 0.02 5.57-0.01 10.9-0.32 16.4-1.14v-6l15-1 2-7 21-1 1-7c9.9-0.33 19.8-0.66 30-1 0.99 3.47 0.99 3.47 2 7 1.58 1.58 3.28 1.22 5.47 1.32 0.9 0.04 1.8 0.08 2.73 0.12 1.42 0.06 1.42 0.06 2.86 0.12 0.95 0.05 1.9 0.09 2.88 0.13 2.35 0.11 4.71 0.21 7.06 0.31 0.44 1.14 0.88 2.27 1.33 3.44 0.55 1.18 1.1 2.35 1.67 3.56 2.58 1.05 2.58 1.05 5 1 0.21 0.93 0.41 1.86 0.62 2.81 1.75 4.04 3.51 4.38 7.38 6.19 0.33 1.33 0.67 2.67 1 4 1.49 0.71 1.49 0.71 3 1.44 3 1.56 3 1.56 3.69 3.68 0.15 1.43 0.15 1.43 0.31 2.88 0.37 1.57 0.79 3.14 1.25 4.69 0.21 0.76 0.42 1.53 0.64 2.32 0.97 2.26 0.97 2.26 3.66 2.86 0.81 0.37 1.62 0.74 2.45 1.13 0.71 2.93 0.71 2.93 0.94 6.44 0.33 3.5 0.33 3.5 1.06 6.56 1.98 1.03 3.98 2.03 6 3 0.62 2.71 0.62 2.71 1 6 0.31 3.19 0.31 3.19 1 6 2.92 1.88 2.92 1.88 6 3 0.33 1.18 0.66 2.35 1 3.56 0.33 1.14 0.66 2.27 1 3.44 2.98 1.16 2.98 1.16 6 2 0.67 1.67 1.33 3.33 2 5 0.99 0.33 1.98 0.66 3 1 3 1 3 1 4.38 3.62 0.2 0.79 0.41 1.57 0.62 2.38h5l2-5c0.92-0.06 1.83-0.12 2.77-0.18 1.19-0.09 2.38-0.17 3.61-0.26 1.18-0.08 2.36-0.16 3.58-0.24 2.96-0.13 2.96-0.13 5.04-1.32v-7h8l1-7c1.98-0.66 3.96-1.32 6-2l1-15c2.31-0.33 4.62-0.66 7-1 1.15-2.3 1.12-3.58 1.1-6.13-0.01-1.21-0.01-1.21-0.01-2.44-0.01-0.85-0.02-1.69-0.03-2.55 0-1.28 0-1.28-0.01-2.58-0.01-2.1-0.03-4.2-0.05-6.3l7-2 1-7c1.11-0.21 2.23-0.41 3.38-0.62 3.89-1 3.89-1 5.06-4.5 0.18-0.95 0.37-1.9 0.56-2.88 0.8 0.02 1.61 0.04 2.44 0.06 2.49 0.24 2.49 0.24 3.56-1.06 0.07-1.35 0.08-2.71 0.06-4.06-0.03-1.95-0.03-1.95-0.06-3.94h8l2-7 14-1v-7h29c0.99 2.31 1.98 4.62 3 7l21 1c0.99 2.31 1.98 4.62 3 7h5v2h2l-1 4c4.68 1.43 9.14 2.35 14 3 0.99 0.33 1.98 0.66 3 1l1 5 21 1v-8c0.76 0.06 1.53 0.12 2.31 0.19 2.68 0.06 2.68 0.06 4.33-1.44 1.67-2.15 1.73-3.21 1.73-5.9 0.01-1.24 0.01-1.24 0.02-2.52-0.01-0.89-0.02-1.79-0.03-2.71v-2.82c0-1.97-0.01-3.93-0.02-5.9-0.03-2.99-0.02-5.98-0.02-8.97 0-1.92-0.01-3.83-0.02-5.75v-2.68c-0.06-5.77-0.88-10.9-2.3-16.5-0.64-0.12-1.28-0.25-1.94-0.38-1.02-0.3-1.02-0.3-2.06-0.62-1.41-2.81-1.12-5.14-1.11-8.29v-1.95c0-2.13 0-4.26 0.01-6.39 0-1.48 0.01-2.96 0.01-4.43 0-3.89 0.01-7.78 0.02-11.7 0.01-3.97 0.02-7.94 0.02-11.9 0.01-7.78 0.03-15.6 0.05-23.4l7-2c0.17-1.42 0.34-2.83 0.5-4.25 0.09-0.79 0.19-1.58 0.28-2.39 0.28-2.63 0.28-2.63 0.22-6.36 5.32-1.08 10.6-2.15 16-3-0.03-1.21-0.03-1.21-0.06-2.44 0.06-2.56 0.06-2.56 1.06-3.56 2.59-0.21 5.16-0.38 7.75-0.5 4.49-0.22 8.86-0.46 13.2-1.5l1-7 8-1 1-6h14l1-7c4.75-1 4.75-1 7-1l2-7c1.98-0.33 3.96-0.66 6-1l1-8c1.98 0.33 3.96 0.66 6 1 0.06-3.79 0.09-7.58 0.12-11.4 0.02-1.08 0.04-2.16 0.06-3.27 0-1.03 0.01-2.06 0.02-3.12 0.01-1.43 0.01-1.43 0.03-2.89 0-2.53 0-2.53-2.23-4.34-1.99-0.4-3.99-0.74-6-1 0.02-0.97 0.04-1.94 0.06-2.94 0.3-2.93 0.3-2.93-1.06-4.06-2.35-0.24-4.71-0.41-7.06-0.56-1.29-0.09-2.58-0.17-3.91-0.26-1-0.06-2-0.12-3.03-0.18l-2-7c-10.4-0.5-10.4-0.5-21-1l-1-7-16-1 1-6c-2.84-1.57-2.84-1.57-6-2v-2.31c-0.7-2.79-0.7-2.79-2.85-3.69-2.03-0.75-4.06-1.42-6.15-2v-5l-8-2-1-7-7-2v-58c3.47-0.99 3.47-0.99 7-2 1.02-5.02 1.12-9.79 1.06-14.9 0-1.17 0-1.17-0.01-2.37-0.01-1.92-0.03-3.83-0.05-5.75 3.47-0.5 3.47-0.5 7-1l1-14c3.47-0.5 3.47-0.5 7-1 0.76-7.53 1.14-14.5 0-22-4.34-2.16-4.34-2.16-9-3l-1-7c-19.7-2.5-19.7-2.5-38 2l1 6c-0.74-0.02-1.47-0.05-2.23-0.07-0.98-0.02-1.95-0.04-2.96-0.05-0.96-0.03-1.92-0.05-2.92-0.08-3.02 0.21-5.16 0.93-7.89 2.2v5c-3.47 0.5-3.47 0.5-7 1v7c-1.31 0.05-2.63 0.1-3.98 0.15-1.74 0.07-3.47 0.15-5.21 0.23-0.86 0.03-1.73 0.06-2.62 0.09-4.45 0.2-8.14 0.47-12.2 2.53l1 5h-31l-1-5-2-3c-3.35-0.59-3.35-0.59-7.12-0.69-1.29-0.06-2.57-0.13-3.89-0.2-0.99-0.03-1.97-0.07-2.99-0.11v-5c-1.11-0.37-2.23-0.74-3.38-1.12-1.95-0.82-1.95-0.82-3.62-1.88-0.69-1.99-1.36-3.99-2-6-3.02-1.45-3.02-1.45-6-2-0.11-1.25-0.11-1.25-0.23-2.52-0.39-3.27-0.85-6.32-1.77-9.48-2.87-1.89-2.87-1.89-6-3-1-2.33-2.01-4.66-3-7-2.54-0.76-2.54-0.76-5-1-0.06-0.92-0.12-1.83-0.18-2.77-0.13-1.79-0.13-1.79-0.26-3.61-0.08-1.18-0.16-2.36-0.24-3.58-0.13-2.96-0.13-2.96-1.32-5.04h-5c-0.88-2.69-0.88-2.69-1.76-5.37-1.52-2.38-1.52-2.38-7.24-2.63v-13c-1.13-0.39-2.27-0.78-3.44-1.19-1.17-0.6-2.35-1.19-3.56-1.81-0.14-0.82-0.29-1.65-0.44-2.5-0.18-0.82-0.37-1.65-0.56-2.5-2-0.89-3.95-1.44-6.09-1.93-1.91-1.07-1.91-1.07-3.16-4.17-0.37-1.43-0.37-1.43-0.75-2.9-3.12-0.2-6.25-0.38-9.38-0.56-1.33-0.09-1.33-0.09-2.69-0.17-0.85-0.05-1.7-0.1-2.58-0.15-1.18-0.07-1.18-0.07-2.38-0.14-2.05-0.12-2.05-0.12-3.97 1.02zm-260 71v7h-31c-1.35 3.86-1.35 3.86 0 7-2.29 0.03-4.58 0.05-6.88 0.06-1.27 0.01-2.55 0.03-3.86 0.04-3.26-0.1-3.26-0.1-5.26-1.1-2.33-0.04-4.67-0.04-7 0-1.04 4.62-1.04 4.62 0 9-11.4 0.5-11.4 0.5-23 1-0.78 2.33-1.42 4.61-2 7-2.97 0.5-2.97 0.5-6 1l-1 6c-1 0.06-2 0.12-3.03 0.18-1.29 0.09-2.58 0.17-3.91 0.26-1.29 0.08-2.57 0.16-3.9 0.24-3.02-0.03-3.02-0.03-4.16 1.32-0.37 2.33-0.7 4.66-1 7-0.95-0.04-1.9-0.08-2.88-0.12-3.22-0.23-3.22-0.23-5.12 2.12v4c-4.62 0.66-9.24 1.32-14 2l-1 7c-0.95-0.04-1.9-0.08-2.88-0.12-3.22-0.23-3.22-0.23-5.12 2.12 0.32 3.1 0.32 3.1 1 6-1.11-0.04-2.23-0.08-3.38-0.12-3.66-0.29-3.66-0.29-5.62 2.12-0.4 1.99-0.74 3.99-1 6-0.78-0.04-1.57-0.08-2.38-0.12-2.78-0.17-2.78-0.17-4.62 2.12-0.24 3.36-0.24 3.36-0.12 7.12 0.01 1.29 0.03 2.57 0.05 3.89 0.02 0.99 0.05 1.97 0.07 2.99-0.95-0.21-1.9-0.41-2.88-0.62-1.03-0.13-2.06-0.25-3.12-0.38-2.41 1.96-2.41 1.96-2.12 5.62 0.04 1.12 0.08 2.23 0.12 3.38h-7c-1 3.58-1 3.58 0 7-1.13-0.02-2.27-0.04-3.44-0.06-3.38-0.36-3.38-0.36-4.56 1.06-0.07 2.7-0.09 5.37-0.06 8.06 0 0.76 0.01 1.52 0.01 2.3 0.01 1.88 0.03 3.76 0.05 5.64h-2l-1-2c-2.48 0.5-2.48 0.5-5 1v9c-1.13-0.19-2.27-0.37-3.44-0.56-1.76-0.22-1.76-0.22-3.56-0.44-1.39 1.16-1.39 1.16-1.1 4.38 0.01 1.39 0.02 2.79 0.04 4.18 0 0.71 0.01 1.42 0.01 2.16 0.01 1.76 0.03 3.52 0.05 5.28-0.95-0.04-1.9-0.08-2.88-0.12-3.22-0.23-3.22-0.23-5.12 2.12-0.24 3.36-0.24 3.36-0.12 7.12 0.02 1.93 0.02 1.93 0.05 3.89 0.02 0.99 0.05 1.97 0.07 2.99-2.31-0.33-4.62-0.66-7-1l-2 16h-5c-1.77 1.77-1.21 4.32-1.28 6.71-0.04 1.17-0.08 2.33-0.11 3.52-0.04 1.23-0.07 2.45-0.11 3.71-0.07 2.4-0.14 4.81-0.22 7.21-0.03 1.07-0.06 2.15-0.09 3.25-0.19 2.6-0.19 2.6-1.19 4.6-0.23 1.7-0.41 3.41-0.56 5.12-0.09 0.92-0.17 1.83-0.26 2.76-0.06 0.7-0.12 1.4-0.18 2.12-0.64 0.14-1.28 0.29-1.94 0.44-2.04 0.37-2.04 0.37-3.06 1.56-0.11 3.06-0.15 6.11-0.15 9.17 0 0.96 0 1.92-0.01 2.92 0 3.2-0.01 6.39-0.01 9.59 0 2.22 0 4.43-0.01 6.64 0 4.65-0.01 9.3-0.01 13.9 0 5.97-0.01 11.9-0.03 17.9-0.01 4.58-0.01 9.15-0.01 13.7 0 2.2 0 4.4-0.01 6.6-0.01 3.08-0.01 6.15 0 9.22-0.01 0.92-0.01 1.83-0.02 2.78-0.22 4.75-0.22 4.75 2.26 8.52l4 1 2 28 7 2c-0.03 1.13-0.03 1.13-0.07 2.27-0.27 10-0.27 10 2.07 19.7 2.44 1.31 2.44 1.31 5 2 0.68 2 1.35 4 2 6 3.18 2.41 3.18 2.41 7 3v13l7 2 2 13 7 2v6c3.47 1.49 3.47 1.49 7 3l1 13c1.13 0.39 2.27 0.78 3.44 1.19 1.17 0.6 2.35 1.19 3.56 1.81 0.33 1.67 0.67 3.33 1 5 3.47 1.87 3.47 1.87 7 3v4c3.96 1.49 3.96 1.49 8 3v5c0.55 0.15 1.11 0.29 1.68 0.45 2.25 0.69 4.26 1.4 6.32 2.55 0.73 1.98 1.4 3.98 2 6 3.02 1.45 3.02 1.45 6 2v5h2v2h12c0.37 1.11 0.74 2.23 1.12 3.38 1.36 3.23 1.64 3.51 5.07 5.06 0.93 0.18 1.85 0.37 2.81 0.56v5c0.85 0.24 0.85 0.24 1.71 0.48 2.22 0.71 4.24 1.41 6.29 2.52 1 2.69 1 2.69 1 5 1.98 0.33 3.96 0.66 6 1 0.19 1.11 0.37 2.23 0.56 3.38 0.48 1.19 0.95 2.39 1.44 3.62 3.51 1.54 3.51 1.54 7 2v5c1.11 0.37 2.23 0.74 3.38 1.12 1.95 0.82 1.95 0.82 3.62 1.88 0.69 1.99 1.36 3.99 2 6 0.99 0.33 1.98 0.66 3 1 0.99 0.33 1.98 0.66 3 1 0.67 2 1.33 4 2 6 3.01 1.23 3.01 1.23 6 2 0.02 0.7 0.04 1.4 0.06 2.12 0.1 3.19 0.21 6.38 0.32 9.57 0.04 1.65 0.04 1.65 0.09 3.34 0.06 1.6 0.06 1.6 0.12 3.23 0.03 0.98 0.06 1.96 0.09 2.97 0.34 2.98 0.86 5.14 2.32 7.77 2.03 0.67 2.03 0.67 4 1 0.02 1.23 0.02 1.23 0.03 2.48 0.1 7.76 0.2 15.5 0.31 23.3 0.05 3.99 0.11 7.97 0.16 12l0.15 11.6c0.02 1.46 0.04 2.93 0.06 4.39 0.05 4.46 0.15 8.91 0.29 13.4 0.01 0.94 0.02 1.89 0.03 2.86 0.05 2.66 0.05 2.66 0.97 6.14l6 3 1 21c3.47 1.49 3.47 1.49 7 3 1.03 1.98 2.04 3.98 3 6 3.74 1.15 7.41 1.12 11.3 1.12h3.84c1.4 0 2.8 0 4.2-0.01h4.43c4.01 0 8.02 0 12-0.01 4.19 0 8.38-0.01 12.6-0.01 7.93 0 15.9-0.01 23.8-0.02 9.03-0.01 18.1-0.01 27.1-0.02 18.6-0.01 37.2-0.03 55.7-0.05l2-7c0.8-0.14 1.61-0.29 2.44-0.44 2.48-0.3 2.48-0.3 3.56-1.56 0.24-2.35 0.41-4.71 0.56-7.06 0.13-1.94 0.13-1.94 0.26-3.91 0.06-1 0.12-2 0.18-3.03 1.98-0.66 3.96-1.32 6-2 0.06-1 0.12-2 0.18-3.03 0.13-1.93 0.13-1.93 0.26-3.91 0.08-1.29 0.16-2.57 0.24-3.9 0.32-3.16 0.32-3.16 1.32-4.16 0.09-2.21 0.12-4.42 0.11-6.63v-2.1c0-2.3 0-4.6-0.01-6.9 0-1.59-0.01-3.18-0.01-4.77 0-4.19-0.01-8.39-0.02-12.6-0.01-4.28-0.02-8.55-0.02-12.8-0.01-8.4-0.03-16.8-0.05-25.2h6c0.02-0.77 0.04-1.53 0.06-2.32 0.1-3.48 0.21-6.95 0.32-10.4 0.03-1.21 0.06-2.41 0.09-3.66 0.04-1.16 0.08-2.32 0.12-3.51 0.04-1.6 0.04-1.6 0.09-3.24 0.32-2.8 0.73-4.52 2.32-6.84 2.63-0.75 2.63-0.75 5-1 0.06-1 0.12-2 0.18-3.03 0.13-1.93 0.13-1.93 0.26-3.91 0.08-1.29 0.16-2.57 0.24-3.9 0.32-3.16 0.32-3.16 1.32-4.16 2.35-0.24 4.71-0.41 7.06-0.56 1.29-0.09 2.58-0.17 3.91-0.26 1-0.06 2-0.12 3.03-0.18l2-7c2.31-0.33 4.62-0.66 7-1v-6l14-1c0.39-1.3 0.78-2.6 1.19-3.94 0.81-2.22 0.81-2.22 1.81-4.06 2.62-0.88 2.62-0.88 5-1 1.28-2.57 1.33-4.77 1.56-7.62 0.09-1.01 0.17-2.01 0.26-3.04 0.06-0.77 0.12-1.55 0.18-2.34 1.98-0.66 3.96-1.32 6-2l1-45c-3.96-1.49-3.96-1.49-8-3-0.73-1.98-1.4-3.98-2-6-3.02-1.45-3.02-1.45-6-2 0.31-1.42 0.31-1.42 0.62-2.88 0.13-1.03 0.25-2.06 0.38-3.12-1.96-2.41-1.96-2.41-5.62-2.12-1.68 0.06-1.68 0.06-3.38 0.12v-5c-4.87-1.59-8.81-2.21-14-2-0.99-2.31-1.98-4.62-3-7-1.58-0.03-3.17-0.05-4.75-0.06-1.32-0.02-1.32-0.02-2.67-0.04-2.36 0.09-4.32 0.43-6.58 1.1v5c-5.32 0.79-10.6 1.43-16 2v7h-15l-1 8c-7.59 0.33-15.2 0.66-23 1-1.08 3.64-1.08 3.64-1 6-2.12 0.22-4.25 0.43-6.38 0.62-1.77 0.18-1.77 0.18-3.58 0.36-1 0-2.01 0.01-3.04 0.02-2.22-2.22-2.93-4.08-4-7-1.44-0.2-2.87-0.38-4.31-0.56-0.8-0.11-1.6-0.21-2.43-0.32-2.43-0.27-2.43-0.27-5.26 0.88-0.21-1.09-0.41-2.19-0.62-3.31-1.04-3.89-1.04-3.89-4.38-5.63-2.78-1.17-2.78-1.17-5-1.06l-1-5c-0.85-0.13-1.71-0.27-2.59-0.4-1.1-0.18-2.21-0.36-3.35-0.54-1.1-0.17-2.2-0.35-3.34-0.52-2.72-0.54-2.72-0.54-3.72-1.54-0.38-3.04-0.71-6.07-1.01-9.12-0.9-3.71-0.9-3.71-6.99-5.88v-37c1.98-0.33 3.96-0.66 6-1 0.34-1.56 0.67-3.12 1-4.69 0.19-0.87 0.37-1.74 0.56-2.63 0.43-2.62 0.52-5.04 0.44-7.68 1.98-0.33 3.96-0.66 6-1v-46l-6-3c-0.33-1.01-0.66-2.02-1-3.06-0.33-0.97-0.66-1.94-1-2.94-0.99-0.33-1.98-0.66-3-1-0.99-0.33-1.98-0.66-3-1-1.38-3.13-1.38-3.13-2-6-3.47-0.75-3.47-0.75-7-1 0.04-0.78 0.08-1.57 0.12-2.38 0.17-2.78 0.17-2.78-2.12-4.62-1.99-0.03-3.97-0.06-5.96 0-2.44 0-4.67-0.41-7.04-1l-2-6c-0.76-0.04-1.52-0.07-2.3-0.11-1.49-0.1-1.49-0.1-3.01-0.2-0.99-0.06-1.97-0.12-2.99-0.18-2.7-0.51-2.7-0.51-4.56-1.8-1.14-1.71-1.14-1.71-1.14-5.71-2.64-1.32-4.44-0.89-7.38-0.69-3 0.05-3 0.05-5.62-0.31-2.38-2.88-2.38-2.88-4-6-0.85-0.33-1.69-0.66-2.56-1-2.44-1-2.44-1-3.82-4-1.4-3.38-1.4-3.38-5.31-4.38-1.09-0.2-2.18-0.41-3.31-0.62v-6c-2-1-3.83-1.49-6-2-1.09-7.71-1.15-15.4-1.13-23.1 0.01-2.2 0-4.39-0.01-6.58 0-1.41 0.01-2.81 0.01-4.22v-3.82c0.11-2.63 0.34-4.76 1.13-7.25h2v-2l4 1 1-8c1.98 0.33 3.96 0.66 6 1 0.21-1.11 0.41-2.23 0.62-3.38 0.78-1.93 0.78-1.93 2.38-3.62 4.62-1.27 9.23-1.69 14-2l2-6 13-1 2-7 15-1v-6c2-2 5.82-1.41 8.56-1.56 0.71-0.05 1.42-0.09 2.16-0.13 1.76-0.11 3.52-0.21 5.28-0.31-0.02-0.97-0.04-1.94-0.06-2.94 0.06-3.06 0.06-3.06 1.06-4.06h13v-64h-5c-2.35-2.35-1.44-8.04-1.56-11.2-0.05-1.05-0.09-2.1-0.13-3.18-0.38-10.2-0.37-20.4-0.27-30.6 0.04-5.8 0.05-11.4-1.04-17.1-1.98-0.66-3.96-1.32-6-2v-5c-3.08-1.54-6.33-1.14-9.71-1.13-1.15 0-1.15 0-2.32-0.01-1.62 0-3.24 0.01-4.85 0.01-2.48 0-4.95 0-7.42-0.01-1.58 0-3.15 0.01-4.72 0.01-1.11-0.01-1.11-0.01-2.24-0.01-3.39 0.02-6.5 0.08-9.74 1.14zm88 5v1h20v-1h-20zm-126 179 1 3zm551 58v1h6v-1h-6zm-670 228v5h1v-5h-1zm432 2v5h1v-5h-1zm-416 14 1 4zm291 51 1 4zm-165 168c-0.47 1.9-0.47 1.9-0.62 4.06-0.19 1.95-0.19 1.95-0.38 3.94-0.62-0.19-1.24-0.37-1.88-0.56-2.16-0.68-2.16-0.68-4.12 0.56-0.7 10.7-1.12 21.3-1.19 32-0.01 1.04-0.02 2.09-0.04 3.16v2.96c0 0.87-0.01 1.74-0.01 2.64 0.1 2.52 0.1 2.52 2.24 5.24h4c-0.01 0.63-0.02 1.25-0.04 1.9 0 0.82-0.01 1.63-0.02 2.48-0.01 0.81-0.03 1.62-0.04 2.46-0.04 2.21-0.04 2.21 1.1 4.16 0.15 2.1 0.25 4.21 0.32 6.32 0.06 1.89 0.06 1.89 0.12 3.81 0.04 1.32 0.08 2.64 0.12 3.99 0.05 1.34 0.09 2.68 0.13 4.02 0.11 3.29 0.21 6.57 0.31 9.86 1.13 0.26 2.27 0.52 3.44 0.78 1.17 0.4 2.35 0.81 3.56 1.22 0.67 2.33 1.33 4.67 2 7 2.31 0.74 4.65 1.41 7 2l2 5c10.9 0.49 10.9 0.49 22 1v1h6c0.31 0.97 0.62 1.94 0.94 2.94 0.76 2.9 0.76 2.9 2.06 4.06 2.67 0.09 5.31 0.12 7.97 0.1 1.2 0 1.2 0 2.42-0.01 2.56 0 5.11-0.01 7.67-0.03 1.73 0 3.46-0.01 5.19-0.01 4.25-0.01 8.5-0.03 12.8-0.05 0.99-2.31 1.98-4.62 3-7 10.4-0.49 10.4-0.49 21-1 0.98-2.93 1.08-4.96 1-8h6c1.91-5.1 3.43-9.46 3-15l4-2v2h2c1.1-6.46 1.33-12.9 1.56-19.4 0.07-1.67 0.07-1.67 0.13-3.37 0.11-2.73 0.21-5.46 0.31-8.19 4.88-1 4.88-1 6-1v-24c-4.48-1.07-4.48-1.07-7-1 0.02-1.26 0.02-1.26 0.03-2.54 0.04-3.1 0.06-6.21 0.08-9.31 0.01-2.01 0.04-4.02 0.07-6.02 0.01-1.89 0.01-1.89 0.02-3.81 0.01-1.74 0.01-1.74 0.03-3.52 0.06-2.94 0.06-2.94-2.23-4.8-7.32-1.36-15-1.14-22.4-1.13h-3.27c-3.54-0.01-7.07-0.01-10.6 0-2.46 0-4.93 0-7.4-0.01-5.15 0-10.3 0-15.4 0.01-6.62 0.01-13.2 0-19.8 0-5.08-0.01-10.2-0.01-15.3 0-2.44 0-4.88 0-7.32-0.01-3.39 0-6.79 0.01-10.2 0.01-1.01 0-2.02 0-3.07-0.01-1.38 0.01-1.38 0.01-2.79 0.01h-2.43c-2.03 0.01-2.03 0.01-3.95 1.13zm-31 70 1 3z" fill="#12B76A"/>
<path transform="translate(911,517)" d="m0 0h4c0.99 2.31 1.98 4.62 3 7 0.92-0.01 1.84-0.02 2.79-0.04 18.5-0.13 18.5-0.13 26.2 1.04 2.14 2.14 2.43 3.13 3 6 3.76 1.11 7.1 1 11 0.84 2.02 0.16 2.02 0.16 4.02 2.16-0.38 2.62-0.38 2.62-1 5 4.76 0.95 9.17 1.08 14 1 0.37 1.11 0.74 2.23 1.12 3.38 0.76 1.96 0.76 1.96 1.88 3.62 1.99 0.69 3.99 1.36 6 2 0.67 2 1.33 4 2 6 2.98 1.38 2.98 1.38 6 2 1.81 1.81 1.38 4.61 1.56 7.06 0.09 1.11 0.17 2.21 0.26 3.35 0.06 0.85 0.12 1.71 0.18 2.59 2.31 0.99 4.62 1.98 7 3l1 21 5 2c1.76 15.7 0.76 31.3 0 47-2.97-0.5-2.97-0.5-6-1v23c-2.67 0.67-5.33 1.33-8 2v14c-4 1-4 1-7 1-0.14 1.13-0.29 2.27-0.44 3.44-0.56 3.56-0.56 3.56-1.56 4.56-2.33 0.04-4.67 0.04-7 0v5c-0.57 0.22-1.13 0.44-1.71 0.66-2.26 0.98-4.27 1.93-6.29 3.34-1.13 3.12-1.13 3.12-1 6-0.84 0.06-1.69 0.12-2.55 0.18-1.1 0.09-2.2 0.17-3.33 0.26-1.09 0.08-2.18 0.16-3.3 0.24-2.77 0.15-2.77 0.15-4.82 1.32v5l-16 1v7h-63l-1-6c-0.87-0.07-0.87-0.07-1.76-0.15-4.63-0.44-8.97-0.87-13.2-2.85-1.25-2.06-1.25-2.06-2-4-3.07-1.53-6.3-1.39-9.69-1.62-2.31-0.38-2.31-0.38-4.31-2.38-0.27-0.85-0.54-1.69-0.81-2.56-0.39-0.81-0.79-1.61-1.19-2.44-2.55-0.89-2.55-0.89-5-1l-2-6c-0.76-0.02-1.53-0.04-2.31-0.06-0.89-0.31-1.78-0.62-2.69-0.94-1.03-2.32-2.04-4.65-3-7-2.02-0.73-2.02-0.73-4-1-2.03-2.94-2-4.28-2-8l-7-2-2-14h-5c-2.78-2.78-2.25-4.45-2.26-8.35 0-0.65-0.01-1.3-0.01-1.97-0.01-2.15 0-4.31 0-6.46v-4.48c0-3.14 0-6.27 0.01-9.41 0.01-4.02 0-8.04-0.01-12.1-0.01-3.09 0-6.18 0-9.26v-4.45c-0.01-2.07 0-4.14 0.01-6.21 0-1.18 0-2.36 0.01-3.58 0.25-2.77 0.25-2.77 2.25-4.77 3.62-0.12 3.62-0.12 7 0-0.16-0.55-0.32-1.11-0.49-1.68-0.56-2.54-0.68-4.85-0.7-7.44-0.01-0.87-0.03-1.74-0.04-2.64 0.23-2.24 0.23-2.24 2.23-4.24 2.62-0.62 2.62-0.62 5-1l2-6c2.48-0.5 2.48-0.5 5-1 0.31-0.97 0.62-1.94 0.94-2.94 1.06-3.06 1.06-3.06 2.06-4.06 1.67-0.04 3.33-0.04 5 0-0.04-0.95-0.08-1.9-0.12-2.88 0.12-3.12 0.12-3.12 2.12-5.12 3.62-0.12 3.62-0.12 7 0v-6c2.35-1.43 3.48-2.09 6.25-1.62 0.87 0.3 0.87 0.3 1.75 0.62v-7c5.71-2.07 10-2 16-1-0.04-0.95-0.08-1.9-0.12-2.88 0.12-3.12 0.12-3.12 2.12-5.12 7.79-1.7 16.2-1.12 24.1-1.06 1.87 0 1.87 0 3.77 0.01 3.04 0.01 6.07 0.03 9.11 0.05 0.14-0.97 0.29-1.94 0.44-2.94 0.56-3.06 0.56-3.06 1.56-4.06zm-23 31c-2.33 0.03-4.64-0.06-6.98-0.16-2.25-0.04-2.25-0.04-4.02 2.16l-1 5c-4.29 0.66-8.58 1.32-13 2l-1 5c-1.13 0.29-2.27 0.58-3.44 0.88-1.17 0.37-2.35 0.74-3.56 1.12-1.35 2.71-1.07 5.01-1 8-1.13-0.02-2.27-0.04-3.44-0.06-3.38-0.36-3.38-0.36-4.56 1.06-0.07 2.35-0.08 4.71-0.06 7.06 0.01 1.29 0.02 2.58 0.02 3.91 0.02 1 0.03 2 0.04 3.03-3.47 0.5-3.47 0.5-7 1-0.06 0.58-0.12 1.16-0.18 1.76-0.48 4.44-1.03 8.84-1.82 13.2-1.98-0.33-3.96-0.66-6-1v24c1.98 0.66 3.96 1.32 6 2l1 29 8 3 1 7c2.97-0.5 2.97-0.5 6-1 0.23 0.93 0.45 1.86 0.69 2.81 1.54 3.75 2.77 4.42 6.31 6.19 2.36 2.36 2.49 3.78 3 7l2-1c2.62 1.25 2.62 1.25 5 3v3h2l1 3c0.98-0.03 1.96-0.06 2.97-0.1 3.63-0.1 7.27-0.17 10.9-0.23 1.57-0.03 3.15-0.07 4.72-0.12 2.26-0.08 4.53-0.11 6.79-0.14 1.05-0.04 1.05-0.04 2.13-0.09 2 0 2 0 5.48 0.68 2.27 2.98 2.27 2.98 4 6 5 1.39 9.8 0.97 14.9 0.56 0.68-0.05 1.37-0.1 2.07-0.16 1.66-0.12 3.33-0.26 4.99-0.4l2-6h14c0.14-1.13 0.29-2.27 0.44-3.44 0.56-3.56 0.56-3.56 1.56-4.56 2.33-0.37 4.66-0.7 7-1v-7h7l2-7c2.97-0.5 2.97-0.5 6-1l1-14c1.98-0.66 3.96-1.32 6-2 1.24-2.65 1.12-5.32 1.11-8.22v-2.48c0-0.88-0.01-1.76-0.01-2.66s-0.01-1.81-0.01-2.74c0-2.88-0.01-5.77-0.03-8.65 0-1.96-0.01-3.91-0.01-5.87-0.01-4.79-0.03-9.59-0.05-14.4-3.47-1.49-3.47-1.49-7-3-0.05-1.09-0.1-2.17-0.15-3.29-0.07-1.44-0.15-2.89-0.23-4.33-0.04-1.07-0.04-1.07-0.09-2.17-0.24-4.35-0.75-8.16-2.53-12.2-0.83-0.33-1.65-0.66-2.5-1-0.83-0.33-1.65-0.66-2.5-1-1.31-3.12-1.31-3.12-2-6-2.31-0.33-4.62-0.66-7-1 0.02-0.95 0.04-1.9 0.06-2.88 0.17-3.03 0.17-3.03-1.06-5.12l-5 1c-0.99-3.47-0.99-3.47-2-7-6.4-1.75-6.4-1.75-13-2-0.99-2.31-1.98-4.62-3-7-1.22 0.02-1.22 0.02-2.46 0.04-5.32 0.04-10.6 0.03-15.8-0.54-4.72-0.49-9.39-0.61-14.1-0.62-1.03-0.01-1.03-0.01-2.08-0.02-3.34 0.01-6.27 0.28-9.48 1.14zm-50 2v7h1v-7h-1zm-15 20 1 2z" fill="#12B76A"/>
<path transform="translate(625,385)" d="m0 0c2.25 0.16 4.5 0.25 6.75 0.32 0.68 0.02 1.35 0.04 2.05 0.06 2.22 0.07 4.43 0.12 6.64 0.18 1.51 0.05 3.01 0.09 4.52 0.13 8.96 0.25 17.9 0.41 26.9 0.27 1.72-0.02 3.45 0.01 5.17 0.04l1 1c1.56 0.15 3.13 0.23 4.7 0.28 1.44 0.06 1.44 0.06 2.92 0.11 1.01 0.04 2.02 0.07 3.07 0.11 12 0.42 12 0.42 17.3 1.5v2h-2c0.99 1.32 1.98 2.64 3 4-5.36 2.24-5.36 2.24-8.62 1-1.18-0.5-1.18-0.5-2.38-1-2.08 0.83-2.08 0.83-4 2h-4l5 2v1c-1.24 0.1-2.48 0.21-3.75 0.31-3.53 0.43-5.62 1.17-8.25 3.69l1 3h-4v2l-2-1c-1.36-0.09-2.72-0.12-4.08-0.11h-2.55c-0.91 0-1.82 0.01-2.75 0.01s-1.86 0.01-2.82 0.01c-2.97 0-5.95 0.01-8.92 0.03-2.02 0-4.03 0.01-6.05 0.01-4.94 0.01-9.89 0.03-14.8 0.05v7h-31v7c-8.13 0.86-15.1 1.31-23-1v9l-23 2v5c-2 2-2 2-5.12 2.12-0.95-0.04-1.9-0.08-2.88-0.12 0.03 1.45 0.03 1.45 0.06 2.94-0.06 3.06-0.06 3.06-1.06 4.06-2.35 0.24-4.71 0.41-7.06 0.56-1.29 0.09-2.58 0.17-3.91 0.26-1 0.06-2 0.12-3.03 0.18-0.14 1.13-0.29 2.27-0.44 3.44-0.56 3.56-0.56 3.56-1.56 4.56-2 0.04-4 0.04-6 0-0.7 2.98-0.7 2.98-1 6l-15 1v7c-2.46 1.23-4.28 1.07-7 1-0.75 3.47-0.75 3.47-1 7-1.13 0.14-2.27 0.29-3.44 0.44-3.37 0.17-3.37 0.17-4.56 1.56-0.37 2.33-0.7 4.66-1 7-0.97-0.02-1.94-0.04-2.94-0.06-2.93-0.3-2.93-0.3-4.06 1.06-0.07 3.08 0 6.14 0.06 9.21-0.06 2.79-0.06 2.79-1.06 4.79h-6c-0.14 0.76-0.29 1.53-0.44 2.31-0.56 2.69-0.56 2.69-1.56 5.69h-7v7c-2.31 0.33-4.62 0.66-7 1l-1 16-5-1-2 1c-0.47 1.9-0.47 1.9-0.62 4.06-0.19 1.95-0.19 1.95-0.38 3.94h-7l-1 15c-3.47 0.99-3.47 0.99-7 2l-1 14h-6c-1.11 3.32-1.32 6.2-1.56 9.69-0.09 1.18-0.17 2.36-0.26 3.57-0.09 1.36-0.09 1.36-0.18 2.74h-6c-0.04 1.17-0.04 1.17-0.08 2.35-0.11 3.51-0.23 7.02-0.36 10.5-0.04 1.22-0.08 2.44-0.12 3.7-0.06 1.75-0.06 1.75-0.12 3.54-0.06 1.62-0.06 1.62-0.11 3.27-0.21 2.61-0.21 2.61-1.21 4.61-0.23 1.87-0.41 3.75-0.56 5.62-0.09 1.01-0.17 2.01-0.26 3.04-0.06 0.77-0.12 1.55-0.18 2.34l-5 1v99l6 3c0.86 2.91 0.86 2.91 1.02 6.42 0.11 1.88 0.11 1.88 0.22 3.8 0.04 1.31 0.09 2.62 0.14 3.97 0.06 1.33 0.13 2.67 0.2 4 0.17 3.27 0.31 6.54 0.42 9.81 1.98 0.66 3.96 1.32 6 2 0.06 0.6 0.11 1.19 0.17 1.8 0.25 2.69 0.51 5.38 0.77 8.08 0.13 1.4 0.13 1.4 0.26 2.83 0.09 0.9 0.18 1.8 0.26 2.72 0.08 0.83 0.16 1.65 0.24 2.51 0.2 2.12 0.2 2.12 1.3 4.06 1.21 0.37 1.21 0.37 2.44 0.75 0.84 0.41 1.69 0.83 2.56 1.25 0.46 1.45 0.46 1.45 0.94 2.94 1.41 4.08 3.31 4.23 7.06 6.06 1.61 4.02 1.07 8.72 1 13l7 2c0.25 1.6 0.47 3.21 0.69 4.81 0.13 0.9 0.25 1.79 0.38 2.71-0.07 2.48-0.07 2.48-1.55 4.3-0.5 0.39-1 0.78-1.52 1.18v-6c-1.42-0.34-1.42-0.34-2.88-0.69-3.12-1.31-3.12-1.31-4.5-3.62-0.62-2.67-0.78-4.96-0.62-7.69h-9l-2-4-2 1c0.63 2.52 0.63 2.52 2 5 2.48 0.66 2.48 0.66 5 1l2 3-2 4-1-2h-3v5c-0.56-0.14-1.11-0.29-1.69-0.44-4.6-1.15-4.6-1.15-9.31-1.56-0.06-0.76-0.12-1.52-0.18-2.3-0.09-0.99-0.17-1.99-0.26-3.01-0.08-0.99-0.16-1.97-0.24-2.99-0.24-2.79-0.24-2.79-1.32-5.7l-5-2v-13c-1.11-0.1-2.23-0.21-3.38-0.31-1.79-0.34-1.79-0.34-3.62-0.69-2.28-3.42-2.2-4.57-2.06-8.56 0.23-3.87 0.23-3.87-0.94-7.44h-5c-2.06-3.38-2.19-5.89-2.06-9.81 0.08-4.55-0.13-8.72-0.94-13.2-0.8-0.31-1.61-0.62-2.44-0.94-2.56-1.06-2.56-1.06-3.56-2.06-1.09-5.83-1.21-11.6-1.32-17.5-0.02-0.99-0.04-1.98-0.06-2.99l-0.18-9.42c-0.05-2.13-0.09-4.27-0.13-6.41-0.11-5.21-0.21-10.4-0.31-15.6l-5-1c-0.82-3.6-1.13-6.92-1.13-10.6 0-1.08-0.01-2.16-0.01-3.27 0.01-1.13 0.01-2.26 0.02-3.43v-3.51c0.04-8.76 0.38-17.4 1.12-26.2h6c-0.01-1.14-0.02-2.28-0.03-3.46-0.04-4.22-0.06-8.44-0.08-12.7-0.01-1.82-0.02-3.65-0.04-5.48-0.03-2.63-0.04-5.26-0.05-7.88-0.01-0.82-0.02-1.64-0.03-2.49 0-2.01 0.11-4.02 0.23-6.02 2-2 2-2 5.12-2.12 0.95 0.04 1.9 0.08 2.88 0.12-0.01-0.63-0.01-1.26-0.02-1.91-0.02-2.84-0.03-5.69-0.04-8.53-0.01-0.99-0.02-1.98-0.03-3.01 0-0.94 0-1.89-0.01-2.86 0-0.87-0.01-1.75-0.01-2.65 0.11-2.04 0.11-2.04 1.11-3.04 2.33-0.04 4.67-0.04 7 0-0.01-0.66-0.02-1.31-0.03-1.99-0.04-2.96-0.07-5.92-0.09-8.89-0.02-1.03-0.04-2.06-0.06-3.12 0-0.99-0.01-1.98-0.02-2.99-0.01-0.91-0.02-1.82-0.03-2.76 0.23-2.25 0.23-2.25 2.23-4.25 3.12-0.12 3.12-0.12 6 0-0.02-0.57-0.05-1.14-0.07-1.72-0.12-5.21 0.39-9.35 2.07-14.3h6v-8l4-1v2h3c-0.04-0.97-0.08-1.94-0.12-2.94-0.02-4.51 1.01-8.71 2.12-13.1 4.88-1 4.88-1 6-1l1-7h7v-14c4-2 4-2 6.25-1.62 0.58 0.2 1.15 0.41 1.75 0.62v-7c1.75-1.06 1.75-1.06 4-2 1.98 0.5 1.98 0.5 4 1v-9h7c0.29-1.13 0.58-2.27 0.88-3.44 0.55-1.76 0.55-1.76 1.12-3.56 2.49-1.25 3.41-0.78 6 0v-7c3.29-0.8 4.71-1.1 8 0v-8c2.89-0.83 4.89-1 8-1v-7c0.76-0.14 1.53-0.29 2.31-0.44 2.77-0.52 2.77-0.52 5.69-1.56v-5c2.35-1.43 3.48-2.09 6.25-1.62 0.58 0.2 1.15 0.41 1.75 0.62-0.02-0.95-0.04-1.9-0.06-2.88 0.06-3.12 0.06-3.12 1.06-5.12h14v-6l1-2c2.32-0.41 4.66-0.74 7-1l2-6c4.63-1.04 9.29-1.52 14-2v-6c2.96-0.83 5.7-1.18 8.77-1.32 0.89-0.04 1.77-0.08 2.69-0.12s1.84-0.08 2.79-0.12c0.94-0.05 1.87-0.09 2.84-0.13 2.3-0.11 4.61-0.21 6.91-0.31v-6l15-1v-6c2-2 2-2 4.98-2.23 1.25 0.01 2.49 0.02 3.78 0.03 0.99 0.01 0.99 0.01 2.01 0.01 2.12 0.01 4.24 0.04 6.35 0.07 1.44 0.01 2.88 0.01 4.31 0.02 3.53 0.02 7.05 0.06 10.6 0.1v-6c3.75-1.12 3.75-1.12 6 0z" fill="#12B76A"/>
<path transform="translate(776,1152)" d="m0 0c0.14 15.4-0.19 30.6-1 46-2.97 0.99-2.97 0.99-6 2l-2 22c-2.97 0.99-2.97 0.99-6 2l-1 7h-7l-1 7c-3.47 0.99-3.47 0.99-7 2l-1 6c-15.2 0.33-30.4 0.66-46 1v5c-6.51 0.17-13 0.33-19.5 0.48-2.22 0.06-4.44 0.11-6.66 0.17-3.18 0.08-6.36 0.16-9.54 0.23-1 0.03-1.99 0.05-3.02 0.08-0.92 0.02-1.84 0.04-2.79 0.06-0.81 0.02-1.63 0.04-2.46 0.06-1.99-0.08-1.99-0.08-3.99-1.08-0.72-1.64-1.39-3.31-2-5-5.81-0.95-11.6-1.3-17.4-1.56-1.38-0.07-1.38-0.07-2.79-0.13-2.26-0.11-4.51-0.21-6.77-0.31-0.42-0.96-0.84-1.92-1.27-2.91-1.5-3.46-1.5-3.46-5.42-4.47-1.09-0.2-2.18-0.41-3.31-0.62-0.02-0.76-0.04-1.53-0.06-2.31-0.47-1.33-0.47-1.33-0.94-2.69-1.15-0.49-2.31-0.99-3.5-1.5-1.15-0.49-2.31-0.99-3.5-1.5-0.94-2.69-0.94-2.69-1-5-1.21-0.19-1.21-0.19-2.44-0.38-0.84-0.2-1.69-0.41-2.56-0.62-1.26-2.52-1.21-4.41-1.32-7.23-0.04-1.03-0.08-2.06-0.12-3.12-0.04-1.08-0.08-2.16-0.12-3.27-0.05-1.09-0.09-2.18-0.13-3.3-0.11-2.69-0.21-5.39-0.31-8.08-0.97 0.02-1.94 0.04-2.94 0.06-3.06-0.06-3.06-0.06-4.06-1.06-0.04-2.33-0.04-4.67 0-7l2 1v-23l3 2v3h2l1 2h2v2h-2v4h9c0.42 2.28 0.85 4.56 1.27 6.84 0.61 2.52 0.61 2.52 3.73 4.16 1.48-1.48 1.63-2.97 2-5l-1-2h3l1-3h2c1.23 2.46 1.21 4.26 1.32 7.01 0.04 0.98 0.08 1.97 0.12 2.99 0.04 1.03 0.08 2.06 0.12 3.12 0.05 1.05 0.09 2.09 0.13 3.16 0.11 2.57 0.21 5.15 0.31 7.72 0.95-0.04 1.9-0.08 2.88-0.12 3.12 0.12 3.12 0.12 5.12 2.12 0.4 2.32 0.74 4.66 1 7 0.95-0.04 1.9-0.08 2.88-0.12 3.12 0.12 3.12 0.12 5.12 2.12l1 4c13.4 0.49 13.4 0.49 27 1l4 8h36l2-6c1.62-1.62 3.46-1.22 5.69-1.32 0.95-0.04 1.89-0.08 2.86-0.12 1-0.04 1.99-0.08 3.01-0.12 1-0.05 2-0.09 3.02-0.13 2.48-0.11 4.95-0.21 7.42-0.31l1-7c2.97-0.49 2.97-0.49 6-1 0.13-0.75 0.27-1.5 0.4-2.27 0.18-0.98 0.36-1.97 0.54-2.98 0.17-0.97 0.35-1.95 0.52-2.95 0.44-2.3 0.94-4.54 1.54-6.8l4-1v2h2c0.02-0.93 0.04-1.86 0.06-2.81 0.08-3.44 0.16-6.88 0.26-10.3 0.04-1.49 0.07-2.98 0.1-4.47 0.05-2.14 0.11-4.28 0.17-6.42 0.03-1.29 0.06-2.58 0.09-3.91 0.32-3.07 0.32-3.07 2.32-5.07 3.62 0.38 3.62 0.38 7 1l1-11 5 2v4c0.96 0.37 0.96 0.37 1.94 0.75 2.06 1.25 2.06 1.25 2.81 3.25 0.25 2 0.25 2 0.25 4h-3v6h2v2c0.99-0.33 1.98-0.66 3-1l-1-1c-0.04-2-0.04-4 0-6h2v-2c0.99-0.49 0.99-0.49 2-1 0.09-3.2-0.09-5.93-1-9h2c0.29-0.97 0.58-1.94 0.88-2.94 1.49-4.06 1.49-4.06 4.12-4.06z" fill="#12B76A"/>
<path transform="translate(856,538)" d="m0 0c1.11 3.33 0.84 5.62 0 9h4v-5l13 1v3c0.99 0.5 0.99 0.5 2 1v2h-8c0.5 1.98 0.5 1.98 1 4-3 1-3 1-6 2l4 1c-0.99 0.33-1.98 0.66-3 1v5l-7 2-2 8c-3.47 0.5-3.47 0.5-7 1l-1 14c-3.47 0.5-3.47 0.5-7 1 0.02 0.9 0.05 1.81 0.07 2.74 0.02 1.18 0.04 2.36 0.05 3.57 0.03 1.17 0.05 2.35 0.08 3.55-0.2 3.14-0.2 3.14-2.2 6.14-2.17-0.51-4-1-6-2l1 24c1.98 0.66 3.96 1.32 6 2 0.2 3.9 0.38 7.79 0.56 11.7 0.06 1.1 0.11 2.2 0.17 3.34 0.05 1.07 0.1 2.13 0.15 3.23 0.07 1.47 0.07 1.47 0.14 2.97-0.02 2.73-0.39 5.12-1.02 7.77 1.11 0.12 2.23 0.25 3.38 0.38 3.62 0.62 3.62 0.62 5.62 2.62 0.62 2.62 0.62 2.62 1 5 0.78 0.1 1.57 0.21 2.38 0.31 2.62 0.69 2.62 0.69 4.62 3.69v3c0.58 0.08 1.15 0.16 1.75 0.25 4.01 1.34 5.97 4.33 8.25 7.75 0.8 0.43 1.61 0.87 2.44 1.31 2.56 1.69 2.56 1.69 5.56 7.69h33c0.93 3.7 1.08 4.63 0 8h-2c-0.14 0.76-0.29 1.53-0.44 2.31-0.56 2.69-0.56 2.69-1.56 5.69 0.99 0.33 1.98 0.66 3 1l-2 5c-0.61-0.3-1.23-0.6-1.86-0.91-0.81-0.38-1.62-0.76-2.45-1.15-0.8-0.39-1.6-0.77-2.43-1.16-2.38-1.08-2.38-1.08-5.26 0.22v4l-2 1c-0.65 2.02-0.65 2.02-1 4-1.11-0.19-2.23-0.37-3.38-0.56-3.45-0.76-3.45-0.76-5.62 0.56l-2-1v-2c-0.87-0.07-0.87-0.07-1.76-0.15-4.63-0.44-8.97-0.87-13.2-2.85-1.25-2.06-1.25-2.06-2-4-3.07-1.53-6.3-1.39-9.69-1.62-2.31-0.38-2.31-0.38-4.31-2.38-0.27-0.85-0.54-1.69-0.81-2.56-0.39-0.81-0.79-1.61-1.19-2.44-2.55-0.89-2.55-0.89-5-1l-2-6c-0.76-0.02-1.53-0.04-2.31-0.06-0.89-0.31-1.78-0.62-2.69-0.94-1.03-2.32-2.04-4.65-3-7-2.02-0.73-2.02-0.73-4-1-2.03-2.94-2-4.28-2-8l-7-2-2-14h-5c-2.78-2.78-2.25-4.45-2.26-8.35 0-0.65-0.01-1.3-0.01-1.97-0.01-2.15 0-4.31 0-6.46v-4.48c0-3.14 0-6.27 0.01-9.41 0.01-4.02 0-8.04-0.01-12.1-0.01-3.09 0-6.18 0-9.26v-4.45c-0.01-2.07 0-4.14 0.01-6.21 0-1.18 0-2.36 0.01-3.58 0.25-2.77 0.25-2.77 2.25-4.77 3.62-0.12 3.62-0.12 7 0-0.16-0.55-0.32-1.11-0.49-1.68-0.56-2.54-0.68-4.85-0.7-7.44-0.01-0.87-0.03-1.74-0.04-2.64 0.23-2.24 0.23-2.24 2.23-4.24 2.62-0.62 2.62-0.62 5-1l2-6 5-1c0.31-0.97 0.62-1.94 0.94-2.94 1.06-3.06 1.06-3.06 2.06-4.06 1.67-0.04 3.33-0.04 5 0-0.04-0.95-0.08-1.9-0.12-2.88 0.12-3.12 0.12-3.12 2.12-5.12 3.62-0.12 3.62-0.12 7 0v-6c2.35-1.43 3.48-2.09 6.25-1.62 0.58 0.2 1.15 0.41 1.75 0.62v-2l2-1zm-18 12v7h1v-7h-1zm-15 20 1 2z" fill="#12B76A"/>
<path transform="translate(1119,690)" d="m0 0h1c0.06 1.32 0.11 2.63 0.17 3.99 0.2 4.88 0.42 9.76 0.63 14.6 0.09 2.12 0.18 4.23 0.27 6.34 0.13 3.04 0.26 6.08 0.39 9.11 0.04 0.95 0.08 1.9 0.12 2.87 0.06 1.32 0.06 1.32 0.12 2.67 0.04 0.78 0.07 1.55 0.1 2.35 0.14 2.23 0.14 2.23 1.2 5.03 0.99-0.33 1.98-0.66 3-1l2 1c0.41 2.78 0.41 2.78 0.63 6.44 0.09 1.31 0.17 2.61 0.26 3.96 0.08 1.39 0.16 2.77 0.23 4.16 0.09 1.4 0.18 2.79 0.27 4.18 0.21 3.42 0.41 6.84 0.61 10.3 1.98 0.66 3.96 1.32 6 2v15c-1.98 0.66-3.96 1.32-6 2-0.02 0.59-0.04 1.18-0.06 1.78-0.1 2.72-0.21 5.44-0.32 8.16-0.03 0.92-0.06 1.85-0.09 2.8-0.25 5.99-1.06 11.4-2.53 17.3l-5 1-1 14c-2.31 0.33-4.62 0.66-7 1l-2 8h-6v6h-15l-2-5c-7.33-0.76-14.7-1.41-22-2-0.99-2.31-1.98-4.62-3-7-0.83 0-1.66-0.01-2.52-0.01-3.26-0.11-6.29-0.3-9.48-0.99-2-3-2-3-3-6-2.08-0.96-2.08-0.96-4-1v-8c2.89 0.4 3.82 0.79 5.75 3.06 0.41 0.64 0.83 1.28 1.25 1.94l1-5h5l-2-3c0.49-0.5 0.49-0.5 1-1l-5-2 2-2c0.7-1.32 1.37-2.65 2-4 0.49-0.99 0.49-0.99 1-2h2v4c1.36 0.18 1.36 0.18 2.74 0.37 1.18 0.16 2.36 0.33 3.57 0.51 1.17 0.16 2.35 0.32 3.55 0.49 3.14 0.63 3.14 0.63 6.14 2.63 0.69 2.12 0.69 2.12 1 4 0.85 0.04 0.85 0.04 1.71 0.08 2.56 0.11 5.11 0.23 7.67 0.36 0.88 0.04 1.77 0.08 2.69 0.12 0.85 0.04 1.7 0.08 2.58 0.12 0.78 0.04 1.57 0.08 2.38 0.11 1.97 0.21 1.97 0.21 3.97 1.21v-8c2.97-0.99 2.97-0.99 6-2 1.15-4.59 1.14-9.01 1.13-13.7 0-0.84 0-1.68 0.01-2.54 0-1.77-0.01-3.54-0.01-5.31 0-2.68 0-5.36 0.01-8.04 0-1.73-0.01-3.45-0.01-5.18 0-0.79 0.01-1.58 0.01-2.39-0.02-5.35-0.47-10.5-1.14-15.8h-4c0.25-1.18 0.25-1.18 0.5-2.38 1.21-7.98 1.21-7.98-0.5-15.6h2c-0.49-1.98-0.49-1.98-1-4h2v4c0.99 0.5 0.99 0.5 2 1h-2v2l4 1c0.49 2.48 0.49 2.48 1 5h2c-0.08-0.74-0.17-1.47-0.25-2.23-0.16-1.46-0.16-1.46-0.31-2.96-0.16-1.44-0.16-1.44-0.32-2.92-0.12-2.83 0.2-5.14 0.88-7.89 1.98-0.33 3.96-0.66 6-1v-4l-2-1c0.99-1.32 1.98-2.64 3-4-0.99-1.49-0.99-1.49-2-3 0.99-0.5 0.99-0.5 2-1 0.41-2.32 0.74-4.66 1-7h-2c0-2 0-2 2-4 0-2-0.04-4-0.12-6 0.12-3 0.12-3 2.12-6z" fill="#12B76A"/>
<path transform="translate(974,650)" d="m0 0c1.98 0.07 1.98 0.07 4 1 1.27 2.21 1.27 2.21 2.25 4.94 0.5 1.34 0.5 1.34 1.02 2.71 0.73 2.35 0.73 2.35 0.73 4.35 1.11-0.04 2.23-0.08 3.38-0.12 5.02-0.02 9.74 1 14.6 2.12l-4 2v14c-4 1-4 1-7 1-0.14 1.13-0.29 2.27-0.44 3.44-0.56 3.56-0.56 3.56-1.56 4.56-2.33 0.04-4.67 0.04-7 0v5c-0.57 0.22-1.13 0.44-1.71 0.66-2.26 0.98-4.27 1.93-6.29 3.34-1.13 3.12-1.13 3.12-1 6-0.84 0.06-1.69 0.12-2.55 0.18-1.1 0.09-2.2 0.17-3.33 0.26-1.09 0.08-2.18 0.16-3.3 0.24-2.77 0.15-2.77 0.15-4.82 1.32v5c-7.92 0.5-7.92 0.5-16 1v7h-63l1-4c3.07-1.53 5.7-0.55 9 0l1-3-2-1c1.49-0.5 1.49-0.5 3-1 0.73-2.02 0.73-2.02 1-4 1.56-0.75 1.56-0.75 4-1 2.5 1.13 4.67 2.52 7 4l2-4-3-3 2-2c0.64-2.07 0.64-2.07 1-4h2l1-6c0.35 0.64 0.7 1.28 1.06 1.94 2.76 2.93 4.97 2.68 8.94 3.06 2.65 0.07 5.29 0.09 7.94 0.06 0.68 0 1.37-0.01 2.07-0.01 1.66-0.01 3.33-0.03 4.99-0.05-0.06-0.78-0.12-1.57-0.19-2.38 0.1-1.29 0.1-1.29 0.19-2.62 4.45-2.97 8.91-2.35 14-1.5 0.66 0.16 1.32 0.33 2 0.5-0.04-1.11-0.08-2.23-0.12-3.38 0.12-3.62 0.12-3.62 2.12-5.62 1.99-0.4 3.99-0.74 6-1v-6c3.05-0.98 4.95-0.98 8 0-0.04-0.95-0.08-1.9-0.12-2.88 0.12-3.12 0.12-3.12 2.12-5.12 3.12-0.12 3.12-0.12 6 0-0.02-0.99-0.05-1.97-0.07-2.99-0.02-1.28-0.04-2.56-0.05-3.89-0.03-1.27-0.05-2.55-0.08-3.86 0.2-3.26 0.2-3.26 2.2-5.26z" fill="#12B76A"/>
<path transform="translate(1125 658)" d="m0 0c1.24 0.02 1.24 0.02 2.51 0.03 1.34 0.01 1.34 0.01 2.71 0.02 1.41 0.03 1.41 0.03 2.84 0.05 0.95 0.01 1.89 0.02 2.87 0.03 2.33 0.02 4.67 0.06 7.01 0.1-0.99 0.33-1.98 0.66-3 1 0.49 1.48 0.49 1.48 1 3v2c1.88 1.11 1.88 1.11 4 2l2-1v-3c2.97 0.33 5.94 0.66 9 1v-5c0.99 0.33 1.98 0.66 3 1 0.62 2 0.62 2 1 4l1 1c1.46-0.09 2.92-0.25 4.37-0.44 5.86-0.75 11.7-0.56 17.6-0.56v3h-22l-1 8c-7.59 0.33-15.2 0.66-23 1v7h-7c-0.99 2.64-1.98 5.28-3 8l-5-1c0.04 1.26 0.08 2.51 0.12 3.81 0.12 3.48-0.06 4.1-2.12 7.19l-1-8c-0.22 1.11-0.22 1.11-0.44 2.25-0.33 1.63-0.7 3.26-1.13 4.87-0.55 2.04-0.55 2.04-0.43 4.88h-2v2h2v8c-0.99 0.49-0.99 0.49-2 1l2 3c-0.78 0.58-0.78 0.58-1.57 1.18-0.47 0.6-0.94 1.2-1.43 1.82 0.23 2.65 0.23 2.65 1 5-2.97 0.49-2.97 0.49-6 1-0.1 5.46 0.22 10.6 1 16h-4c-0.5-2.48-0.5-2.48-1-5-0.99-0.33-1.98-0.66-3-1v-7c-1.32 5.32-0.94 10.5-0.75 15.9-0.12 1.52-0.12 1.52-0.25 3.08-1.49 0.99-1.49 0.99-3 2-1.4-2.8-1.14-5.12-1.15-8.26 0-1.31-0.01-2.63-0.02-3.98v-4.33c0-1.47-0.01-2.94-0.01-4.41-0.01-3.09-0.01-6.18-0.01-9.26 0-3.96-0.01-7.92-0.03-11.9-0.01-3.04-0.01-6.08-0.01-9.12 0-1.46-0.01-2.92-0.02-4.38v-6.12-3.52c0.25-2.73 0.25-2.73 2.25-4.73 3.12-0.13 3.12-0.13 6 0-0.04-0.92-0.07-1.83-0.11-2.78-0.03-1.18-0.05-2.37-0.08-3.6-0.04-1.18-0.07-2.36-0.11-3.58 0.1-1.01 0.2-2.01 0.3-3.04 3.63-2.43 5.85-2.39 10.2-2.63 1.28-0.07 2.55-0.15 3.86-0.22 1.46-0.08 1.46-0.08 2.96-0.15-0.21-0.79-0.42-1.57-0.63-2.38-0.12-0.86-0.25-1.73-0.37-2.62 2-2 2-2 4.06-2.23z" fill="#12B76A"/>
<path transform="translate(1119,690)" d="m0 0h1c0.06 1.32 0.11 2.63 0.17 3.99 0.2 4.88 0.42 9.76 0.63 14.6 0.09 2.12 0.18 4.23 0.27 6.34 0.13 3.04 0.26 6.08 0.39 9.11 0.04 0.95 0.08 1.9 0.12 2.87 0.06 1.32 0.06 1.32 0.12 2.67 0.05 1.16 0.05 1.16 0.1 2.35 0.14 2.23 0.14 2.23 1.2 5.03 1.48-0.5 1.48-0.5 3-1l2 1c0.41 2.78 0.41 2.78 0.63 6.44 0.13 1.96 0.13 1.96 0.26 3.96 0.08 1.39 0.16 2.77 0.23 4.16 0.09 1.4 0.18 2.79 0.27 4.18 0.21 3.42 0.41 6.84 0.61 10.3 2.97 0.99 2.97 0.99 6 2v15c-2.97 0.99-2.97 0.99-6 2-0.02 0.59-0.04 1.18-0.06 1.78-0.1 2.72-0.21 5.44-0.32 8.16-0.04 1.39-0.04 1.39-0.09 2.8-0.25 5.99-1.06 11.4-2.53 17.3-2.47 0.5-2.47 0.5-5 1l-1 14c-2.31 0.33-4.62 0.66-7 1l-1 3c-1.38-2.27-2.06-3.5-1.75-6.19 0.75-1.81 0.75-1.81 2.75-2.81-0.19-0.54-0.37-1.07-0.56-1.62-0.55-3-0.05-5.42 0.56-8.38h2v-2l-2-1c0.49-0.99 0.49-0.99 1-2l-3-2c1-3 1-3 3-5h3c-0.07-0.77-0.14-1.54-0.22-2.34-0.14-1.5-0.14-1.5-0.28-3.04-0.09-0.99-0.19-1.99-0.28-3.02-0.22-2.6-0.22-2.6-0.22-4.6l-1-3 1-2c-0.89-2.12-0.89-2.12-2-4h2v-6c-0.63-0.11-1.25-0.23-1.9-0.35-2.97-0.85-4.76-1.6-7.1-3.65-1.45-4.99-1.68-9.82-2-15-0.46-2.33-0.46-2.33-1-4h-6c0.25-1.18 0.25-1.18 0.5-2.38 1.21-7.98 1.21-7.98-0.5-15.6h2l-1-4h2v4l2 1h-2v2l4 1 1 5h2c-0.08-0.74-0.17-1.47-0.25-2.23-0.11-0.98-0.21-1.95-0.31-2.96-0.11-0.96-0.21-1.92-0.32-2.92-0.12-2.83 0.2-5.14 0.88-7.89 2.97-0.5 2.97-0.5 6-1v-4l-2-1c0.99-1.32 1.98-2.64 3-4l-2-3 2-1c0.41-2.32 0.74-4.66 1-7h-2c0-2 0-2 2-4 0-2-0.04-4-0.12-6 0.12-3 0.12-3 2.12-6z" fill="#12B76A"/>
<path transform="translate(891,525)" d="m0 0 2 2c3.18 1.22 5.58 2 9 2v2h2v2h3v2l-4 1c0.93 0.68 0.93 0.68 1.88 1.38 2.12 1.62 2.12 1.62 4.12 3.62 3.07-0.16 3.07-0.16 6-1l1-2 8 1c0.5 2.48 0.5 2.48 1 5l12-1c0.5 0.99 0.5 0.99 1 2-2.2 2.2-3.05 2.39-6 3-0.62 0.17-1.24 0.34-1.88 0.52-5.28 1.2-10.8 0.54-16.2-0.02-4.8-0.48-9.56-0.61-14.4-0.62-0.68-0.01-1.37-0.01-2.08-0.02-3.34 0.01-6.27 0.27-9.48 1.14-1.58 0.07-3.17 0.09-4.75 0.06-0.8-0.01-1.6-0.02-2.42-0.02-0.61-0.02-1.21-0.03-1.83-0.04-0.12 0.78-0.25 1.57-0.38 2.38-0.62 2.62-0.62 2.62-2.62 4.62-3.26 0.2-3.26 0.2-7.12 0.12-1.93-0.02-1.93-0.02-3.89-0.05-0.99-0.02-1.97-0.05-2.99-0.07v-3h5v-4c5.75-1.12 5.75-1.12 8 0l-4-4 1-1c-5.94-0.99-5.94-0.99-12-2v5h-4c0.07-1.99 0.13-3.97 0.2-5.96-0.07-2.35-0.07-2.35-2.2-5.04l1-3c1.94-0.2 3.87-0.38 5.81-0.56 1.08-0.11 2.16-0.21 3.27-0.32 2.92-0.12 2.92-0.12 5.92 0.88-0.04-0.95-0.08-1.9-0.12-2.88 0.12-3.12 0.12-3.12 2.12-5.12 6.08-1.51 12.9-1.33 19 0z" fill="#12B76A"/>
<path transform="translate(1213,602)" d="m0 0h2c0.49 1.98 0.49 1.98 1 4l2-1c1.33-0.67 2.67-1.33 4-2 1.16 3.48 0.71 5.46 0 9-0.8-0.02-1.61-0.04-2.44-0.06-2.49-0.24-2.49-0.24-3.56 1.06-0.16 2.14-0.25 4.29-0.32 6.44-0.04 1.31-0.08 2.61-0.12 3.96-0.04 1.39-0.08 2.77-0.12 4.16-0.05 1.4-0.09 2.79-0.13 4.18-0.11 3.42-0.21 6.84-0.31 10.3-1.69 0.38-1.69 0.38-3.41 0.77-1.18 0.41-2.37 0.81-3.59 1.23-1.54 3.51-1.54 3.51-2 7h-6v6c-3.46 1.07-6.64 1.1-10.2 1.06-1.62-0.01-1.62-0.01-3.27-0.02-0.82-0.02-1.64-0.03-2.48-0.04v6h-14c-2.06 0.15-4.13 0.32-6.19 0.5-1.08 0.09-2.17 0.19-3.29 0.28-1.25 0.11-1.25 0.11-2.52 0.22v-6l-2-1 1 3-1 2h-9l1 3c-2.25 0.75-2.25 0.75-5 1-2.38-1.69-2.38-1.69-4-4 0.31-2.12 0.31-2.12 1-4l-1-2h5c0.12-1.13 0.25-2.27 0.38-3.44 0.3-1.76 0.3-1.76 0.62-3.56 2.71-1.35 5.01-1.07 8-1v-6c3-1.5 5.79-1.09 9.12-1.06 1.29 0.01 2.57 0.02 3.89 0.02 0.99 0.02 1.97 0.03 2.99 0.04l1 2 1-6h3l2 9c-0.99 0.33-1.98 0.66-3 1-1.22 2.5-1.22 2.5-2 5l4 2v2c0.99 0.33 1.98 0.66 3 1 0.77-0.93 0.77-0.93 1.56-1.88 2.98-2.59 5.62-3.24 9.44-4.12l-1-2c2.49-0.69 4.38-1 7-1 1.68-1.32 3.34-2.66 5-4 2.81-1.25 2.81-1.25 5-2-1.48-0.5-1.48-0.5-3-1v-3c2.97-0.66 5.94-1.32 9-2-1.98-0.5-1.98-0.5-4-1-0.99-3.47-0.99-3.47-2-7l5-2c-0.16-0.6-0.33-1.2-0.5-1.81-0.56-2.44-0.5-4.7-0.5-7.19l2-2-4-2v-2l5 1c-0.49-2.48-0.49-2.48-1-5 0.99-0.33 1.98-0.66 3-1-0.49-2.48-0.49-2.48-1-5zm-66 48v1h6v-1h-6z" fill="#12B76A"/>
<path transform="translate(907,691)" d="m0 0c2 3.75 2 3.75 2 6 3.71 2.35 7.49 2.43 11.8 2.62 0.7 0.04 1.39 0.08 2.11 0.12 1.72 0.1 3.43 0.18 5.14 0.26v-2c0.93 0.04 1.86 0.08 2.81 0.12 3.35 0.15 3.35 0.15 6.19-2.12 0.5 0.99 0.5 0.99 1 2h-2l4 6-2 2c5.55 1.03 5.55 1.03 11 0l-3-2 10-2-1 3 2 2v5l-16 1v7h-63l1-4c3.07-1.53 5.7-0.55 9 0l1-3-2-1c0.99-0.33 1.98-0.66 3-1 0.73-2.02 0.73-2.02 1-4 1.56-0.75 1.56-0.75 4-1 2.5 1.13 4.67 2.52 7 4l2-4-3-3 2-2c0.64-2.07 0.64-2.07 1-4h2l1-6z" fill="#12B76A"/>
<path transform="translate(458,518)" d="m0 0v2l2 1c0.37 1.99 0.71 3.99 1 6l1 1c0.04 1.67 0.04 3.33 0 5-0.78-0.19-1.57-0.37-2.38-0.56-2.59-0.7-2.59-0.7-4.62 0.56-0.47 1.9-0.47 1.9-0.62 4.06-0.19 1.95-0.19 1.95-0.38 3.94h-7l-1 15-7 2-2 3c-3-2-3-2-3.51-4.16-0.06-0.82-0.12-1.63-0.18-2.46-0.06-0.82-0.13-1.64-0.2-2.48-0.03-0.63-0.07-1.25-0.11-1.9h-3v3c-1.49 0.5-1.49 0.5-3 1l-3-2h2v-2l-4-1v6c-2.48 0.5-2.48 0.5-5 1l-1 3h-5l-1 21c-1.49 0.5-1.49 0.5-3 1-0.06-3.79-0.09-7.58-0.12-11.4-0.02-1.08-0.04-2.16-0.06-3.27 0-1.03-0.01-2.06-0.02-3.12-0.01-0.96-0.02-1.91-0.03-2.89 0.23-2.34 0.23-2.34 2.23-4.34 3.12-0.12 3.12-0.12 6 0-0.02-0.57-0.05-1.14-0.07-1.72-0.12-5.21 0.39-9.35 2.07-14.3h6c-0.02-0.8-0.04-1.61-0.06-2.44 0.06-2.56 0.06-2.56 1.06-3.56 2.03 0.03 4.06 0.07 6.09 0.16 2.15 0.03 2.15 0.03 3.91-2.16l1 2-1 2c1.96-0.11 1.96-0.11 4-1 0.27-0.8 0.54-1.61 0.81-2.44 0.39-0.84 0.79-1.69 1.19-2.56 3.62-1.31 3.62-1.31 7-2l-2-3c0.38-2.69 0.38-2.69 1-5 1.67-0.22 1.67-0.22 3.38-0.44 3.27-0.51 5.36-1.56 8.62-1.56z" fill="#12B76A"/>
<path transform="translate(1103,752)" d="m0 0 4 1 2 18 4 1c0.17 1.94 0.33 3.87 0.5 5.81 0.09 1.08 0.19 2.16 0.28 3.27 0.31 4.17-0.05 7.81-0.78 11.9h-2v2.81 6.19c-0.99-0.33-1.98-0.66-3-1v8h2v2c-0.99 0.5-0.99 0.5-2 1 0.49 0.74 0.99 1.49 1.5 2.25 1.5 2.75 1.5 2.75 1.5 6.75-0.99 0.33-1.98 0.66-3 1-1.21 2-1.21 2-2 4-4.75 0.12-4.75 0.12-7-1l1 4c-1.48 0.5-1.48 0.5-3 1l1 4h-3v-3c-3.46-0.5-3.46-0.5-7-1 0.99-0.5 0.99-0.5 2-1l1-2 1-1-8-1c0.49-0.99 0.49-0.99 1-2h5v-2c-1.98 0.5-1.98 0.5-4 1l-1-3h-3v4h-4l-1-3-2-2v-2l-2-1v-2c3.63 0.14 7.25 0.29 10.9 0.44 1.03 0.04 2.06 0.08 3.12 0.12 1.48 0.06 1.48 0.06 2.99 0.12 0.91 0.04 1.82 0.08 2.76 0.11 2.25 0.21 2.25 0.21 4.25 1.21v-8c1.98-0.66 3.96-1.32 6-2 1.15-4.59 1.14-9.01 1.13-13.7 0-0.84 0-1.68 0.01-2.54 0-1.77-0.01-3.54-0.01-5.31 0-2.68 0-5.36 0.01-8.04 0-1.73-0.01-3.45-0.01-5.18 0-0.79 0.01-1.58 0.01-2.39-0.02-5.35-0.47-10.5-1.14-15.8z" fill="#12B76A"/>
<path transform="translate(613,1210)" d="m0 0 4 4-1 2c0.96 0.43 0.96 0.43 1.94 0.88 2.06 1.12 2.06 1.12 3.06 3.12v-2c3.26-1.37 5.25-2.17 8.75-1.38 2.57 1.58 3.31 2.55 4.25 5.38v3c0.72-0.21 1.44-0.41 2.19-0.62 2.81-0.38 2.81-0.38 5.1 0.58 3.15 1.21 5.59 1.27 8.96 1.23 1.06-0.01 2.11-0.02 3.2-0.02 2.48 0.12 2.48 0.12 3.55-1.17 2.67-0.14 5.32-0.04 8 0l-4 2c0.28 0.55 0.55 1.11 0.84 1.68 1.39 2.77 2.77 5.55 4.16 8.32-2.31 0.33-4.62 0.66-7 1v2h-5l-1 2c-3.21 0.09-5.91-0.1-9-1-0.66-0.16-1.32-0.33-2-0.5-0.66-0.16-1.32-0.33-2-0.5-0.7-0.14-1.4-0.29-2.12-0.44-1.88-0.56-1.88-0.56-3.88-2.56-0.93 0.25-0.93 0.25-1.88 0.5-2.72 0.64-3.78-0.08-6.12-1.5v-2h-5c-0.4-1.36-0.4-1.36-0.81-2.75-1.64-4.49-3.22-6.6-7.19-9.25l3-2-4-3 1-7z" fill="#12B76A"/>
<path transform="translate(1090,380)" d="m0 0c4.88 0.88 4.88 0.88 6 2 0.19 3.44 0.19 3.44 0 7l-2 2c-0.63 5.32 1 9.17 3 14-2 2-2 2-4.03 2.24-1.22 0-1.22 0-2.47-0.01-1.33 0-1.33 0-2.69-0.01-0.93-0.01-1.85-0.02-2.81-0.03h-2.81c-6.91-0.05-6.91-0.05-9.19-1.19-0.73-2.31-1.4-4.65-2-7-0.66 0.19-1.32 0.37-2 0.56-3.89 0.57-7.11 0.03-11-0.56 0.12-1.75 0.12-1.75 1-4 1.48-0.9 1.48-0.9 3-1.81 3.38-1.95 3.38-1.95 3.75-5.88 0.08-1.09 0.16-2.18 0.25-3.31 2.41-1.2 4.1-1.2 6.79-1.32 1.41-0.06 1.41-0.06 2.85-0.12 1.48-0.06 1.48-0.06 2.98-0.12 1-0.05 1.99-0.09 3.01-0.13 2.46-0.11 4.91-0.21 7.37-0.31l1-2z" fill="#12B76A"/>
<path transform="translate(421,776)" d="m0 0c3.27 0.6 5.22 1.67 7.75 3.81 0.61 0.5 1.23 1.01 1.86 1.52 1.39 1.67 1.39 1.67 1.39 5.67h-4v2h7l2-4c0.23 0.6 0.45 1.2 0.69 1.81 1.99 3.32 4.94 4.5 8.31 6.19 1.3 4.29 1.08 8.57 1 13l7 2c0.25 1.6 0.47 3.21 0.69 4.81 0.19 1.34 0.19 1.34 0.38 2.71-0.07 2.48-0.07 2.48-1.55 4.3-0.5 0.39-1 0.78-1.52 1.18v-6c-1.42-0.34-1.42-0.34-2.88-0.69-3.12-1.31-3.12-1.31-4.5-3.62-0.62-2.67-0.78-4.96-0.62-7.69h-9l-2-4-2 1c0.63 2.52 0.63 2.52 2 5 2.48 0.66 2.48 0.66 5 1l2 3-2 4-1-2h-3v5c-0.56-0.14-1.11-0.29-1.69-0.44-4.6-1.15-4.6-1.15-9.31-1.56-0.06-0.75-0.12-1.5-0.18-2.27-0.13-1.47-0.13-1.47-0.26-2.98-0.08-0.97-0.16-1.95-0.24-2.95-0.27-2.36-0.67-4.52-1.32-6.8 0.99-0.33 1.98-0.66 3-1l1-3-4-2v-2h-4l1-3h2c-0.1-0.61-0.19-1.23-0.29-1.86-0.11-0.81-0.22-1.62-0.33-2.45-0.12-0.8-0.24-1.6-0.36-2.43-0.02-2.26-0.02-2.26 1.98-5.26z" fill="#12B76A"/>
<path transform="translate(617,1197)" d="m0 0h1l1 9c1.42-0.06 1.42-0.06 2.88-0.12 3.12 0.12 3.12 0.12 5.12 2.12 0.4 2.32 0.74 4.66 1 7 0.95-0.04 1.9-0.08 2.88-0.12 3.12 0.12 3.12 0.12 5.12 2.12l1 4c13.4 0.49 13.4 0.49 27 1 0.5 1.48 0.5 1.48 1 3-1.92 0.23-3.84 0.46-5.76 0.68-2.28 0.3-2.28 0.3-4.65 0.85-2.85 0.52-5.5 0.57-8.4 0.53-0.98-0.01-1.95-0.02-2.96-0.02-1.1-0.02-1.1-0.02-2.23-0.04v-2h-7c-0.59-1.7-0.59-1.7-1.19-3.44-1.39-3.68-1.39-3.68-4.19-4.56-2.68 0-5.02 0.33-7.62 1l1 3-2 1c-0.29-0.8-0.58-1.61-0.88-2.44-0.85-2.69-0.85-2.69-3.12-3.56-0.62-2.06-0.62-2.06-1-4l-4-1v-4l-4-1v-5l4-1 1 4 4-1c-0.02-0.8-0.04-1.61-0.06-2.44 0.06-2.56 0.06-2.56 1.06-3.56z" fill="#12B76A"/>
<path transform="translate(857,338)" d="m0 0h4c1.97 4.72 1.97 4.72 2.25 7.06 1.23 3.17 3.93 4.26 6.75 5.94l-2 4-6-3-1 7h2v2h-2v2h-5c0.06 1.11 0.06 1.11 0.12 2.25-0.12 2.84-0.69 4.34-2.12 6.75h-2v-4h-2l-1 2c-2.38-4.76-3.28-7.52-3-13 1-2.94 1-2.94 2-5h6v-12l1 3h2v-5z" fill="#12B76A"/>
<path transform="translate(492,861)" d="m0 0c2 2 2 2 2.19 4.44 0.27 0.84 0.53 1.69 0.81 2.56 3.47 1.87 3.47 1.87 7 3 0.03 1.46 0.05 2.92 0.06 4.38 0.01 0.81 0.03 1.62 0.04 2.46-0.1 2.16-0.1 2.16-1.1 4.16-3.45 0.49-6.57 0.69-10 0-2.08-1.89-3.39-3.75-4.84-6.15-1.03-2-1.03-2-3.16-2.85v-2h-2c-0.45-0.8-0.91-1.61-1.38-2.44-1.35-2.71-1.35-2.71-3.81-3.37-0.6-0.06-1.19-0.13-1.81-0.19v-3c6.41-2.82 11.4-3.65 18-1z" fill="#12B76A"/>
<path transform="translate(846,408)" d="m0 0c0.2 1.94 0.38 3.87 0.56 5.81 0.16 1.62 0.16 1.62 0.32 3.27 0.12 2.92 0.12 2.92-0.88 5.92-2.31-0.33-4.62-0.66-7-1v8c-15.3 1.64-29.8 2.71-45 0 0.5-1.49 0.5-1.49 1-3 1.86 0.03 1.86 0.03 3.75 0.06 2.95 0.01 5.4-0.29 8.25-1.06l2 1-1-4c2.31-0.62 2.31-0.62 5-1l3 2v2h8l2-4c3 1 3 1 5 3 2.99-1 3.95-1.75 6-4h-2c1-2 1-2 2.81-2.62 2.19-0.38 2.19-0.38 6.19-0.38l-2-4h2c-0.5-2.48-0.5-2.48-1-5 2-1 2-1 3-1z" fill="#12B76A"/>
<path transform="translate(867 321)" d="m0 0c1.09 0.02 2.18 0.05 3.3 0.07 1.1 0.02 2.2 0.04 3.32 0.05 0.85 0.03 1.69 0.05 2.56 0.08l1 3h5c1.12 3.75 1.12 3.75 0 6-3.06 0.62-3.06 0.62-6 1v2l-4-2c0.19 0.63 0.37 1.27 0.56 1.93 0.15 0.68 0.29 1.36 0.44 2.07l-1 1 3 2v3h2v4c-4.66 1.11-7.6 0.94-12-1l-1-2h7l-2-2h-3c-0.29-0.64-0.58-1.28-0.88-1.94-0.95-2.22-0.95-2.22-3.12-3.06-0.05-1.96-0.09-3.92-0.13-5.88-0.02-1.09-0.04-2.18-0.07-3.3 0.28-3.92 1.11-4.75 5.02-5.02z" fill="#12B76A"/>
<path transform="translate(812,603)" d="m0 0c1.88 3.52 3.37 6.3 2.5 10.3-0.63 3.41 0 6.27 0.5 9.69-0.19 0.7-0.37 1.4-0.56 2.12-0.64 2.73 0.4 4.42 1.56 6.88h-2c0.28 1.48 0.58 2.96 0.88 4.44 0.16 0.82 0.32 1.64 0.49 2.49 0.21 0.69 0.41 1.37 0.63 2.07l2 1-4 2 7 7-2 6c-1.62 0.22-3.25 0.43-4.88 0.62-0.9 0.12-1.8 0.24-2.74 0.36-1.18 0.01-1.18 0.01-2.38 0.02-2-2-2-2-2.12-4.62 0.04-0.79 0.08-1.57 0.12-2.38l2 1c0.14-4.25 0.29-8.51 0.43-12.8 0.05-1.45 0.09-2.9 0.14-4.35 0.07-2.07 0.14-4.15 0.21-6.23 0.04-1.25 0.09-2.5 0.13-3.79 0.06-1.94 0.06-1.94 0.09-3.87v-16h2v-2z" fill="#12B76A"/>
<path transform="translate(648,1246)" d="m0 0h48c2 4 2 4 2 6-6.51 0.17-13 0.33-19.5 0.48-2.22 0.06-4.44 0.11-6.66 0.17-3.18 0.08-6.36 0.16-9.54 0.23-1.5 0.04-1.5 0.04-3.02 0.08-1.38 0.03-1.38 0.03-2.79 0.06-1.22 0.03-1.22 0.03-2.46 0.06-1.99-0.08-1.99-0.08-3.99-1.08l-2-6z" fill="#12B76A"/>
<path transform="translate(811,590)" d="m0 0h2c2.58 2.78 4 5.17 4 9-1.43 2.4-2.99 3.99-5 6h-2l1 13h1v5h-1l-1 32c-3.38-4.5-3.38-4.5-3.34-8.95v-2.97c0.02-1.06 0.03-2.11 0.05-3.19 0-1.08 0.01-2.16 0.01-3.28 0.02-3.45 0.05-6.91 0.09-10.4 0.02-2.34 0.03-4.68 0.04-7.03 0.04-5.74 0.09-11.5 0.15-17.2h2c0.06-0.78 0.12-1.56 0.18-2.37 0.09-1.01 0.17-2.02 0.26-3.07 0.08-1.01 0.16-2.02 0.24-3.06 0.32-2.5 0.32-2.5 1.32-3.5z" fill="#12B76A"/>
<path transform="translate(719,479)" d="m0 0h1v53l-2-4 1-2c-1.49 0.5-1.49 0.5-3 1-0.84-1.29-1.67-2.58-2.5-3.88-0.46-0.71-0.93-1.43-1.41-2.17-1.09-1.95-1.09-1.95-1.09-3.95 1.49-0.5 1.49-0.5 3-1l-1-7 2-1-3-2v-2l4-1v-4l-2-1c0.99-0.33 1.98-0.66 3-1l-1-7 2-1c0.47-2.36 0.47-2.36 0.62-5.06 0.12-1.38 0.12-1.38 0.23-2.79 0.05-0.71 0.1-1.42 0.15-2.15z" fill="#12B76A"/>
<path transform="translate(842 368)" d="m0 0c3.47 0.4 4.4 1.79 6.69 4.31h2c1.73 3.23 2.89 6.52 4 10h3l1 3c-3.53 1.14-4.68 1.17-8.07-0.56-1.45-0.71-1.45-0.71-2.93-1.44-2.19 0.8-2.19 0.8-4 2-0.99-0.33-1.98-0.66-3-1v-2h-2c-0.03-2.14-0.05-4.29-0.07-6.43-0.01-1.2-0.02-2.39-0.03-3.63 0.13-3.81 0.13-3.81 3.41-4.25z" fill="#12B76A"/>
<path transform="translate(774,1060)" d="m0 0 1 5-3 2c0.64 0.21 1.28 0.41 1.94 0.62 2.06 1.38 2.06 1.38 2.94 4.07 0.14 3.81-0.66 6.71-1.88 10.3-5.02 1-8.26 1.03-13-1-1-1-1-1-1.06-4.06 0.02-0.97 0.04-1.94 0.06-2.94 0.8 0.02 1.61 0.04 2.44 0.06 2.49 0.24 2.49 0.24 3.56-1.06 0.5-2.8 0.9-5.62 1.3-8.43 0.89-3.26 2.21-4.57 5.7-4.57z" fill="#12B76A"/>
<path transform="translate(1135,565)" d="m0 0 10 3 1-2c2 1.38 2 1.38 4 3v2h2l1 2 3-2c1.5 0.97 3 1.96 4.5 2.94 1.25 0.82 1.25 0.82 2.53 1.65 0.98 0.7 0.98 0.7 1.97 1.41v1c-4.49 0.87-8.74 1.13-13.3 1.12-1.24 0.01-2.47 0.01-3.74 0.01-2.95-0.13-2.95-0.13-3.95-1.13v-7h-14l1-2 2 1c0.22-0.96 0.22-0.96 0.44-1.94 0.56-2.06 0.56-2.06 1.56-3.06z" fill="#12B76A"/>
<path transform="translate(696 1108)" d="m0 0c1.67-0.01 1.67-0.01 3.38-0.01 6.79 0.01 13.5 0.33 20.3 0.92 2.72 0.26 2.72 0.26 5.67 0.21 0.5 1.49 0.5 1.49 1 3h-61l1-3c9.9-0.84 19.8-1.1 29.7-1.12z" fill="#12B76A"/>
<path transform="translate(523 446)" d="m0 0c0.89 0.24 1.78 0.48 2.7 0.73 2.18 1.08 2.18 1.08 2.98 3.2 0.06 0.62 0.13 1.24 0.2 1.88h-5v2c0.65 0.33 1.32 0.66 2 1-0.17 0.81-0.34 1.61-0.5 2.44-0.54 2.29-0.54 2.29-0.5 3.56h-10c0.33-0.66 0.65-1.32 1-2-1.18-0.15-1.18-0.15-2.38-0.31-2.62-0.69-2.62-0.69-4.62-3.69v-4h2v2c0.99-0.33 1.98-0.66 3-1 0.33-1.98 0.65-3.96 1-6 3.46-1.15 4.68-0.8 8.12 0.19z" fill="#12B76A"/>
<path transform="translate(911,517)" d="m0 0h4c0.35 1.11 0.7 2.23 1.06 3.38 0.74 1.95 0.74 1.95 1.94 3.62 3.56 1.53 3.56 1.53 7 2l-1 6c2.48 0.5 2.48 0.5 5 1l-2 3c-7.21-0.68-7.21-0.68-10-4-1.33-0.68-2.66-1.35-4-2l-2-2c-2.2-0.46-2.2-0.46-4.62-0.62-0.82-0.08-1.64-0.15-2.48-0.23-0.63-0.05-1.25-0.1-1.9-0.15v-1h10v-2h-2c-0.62-1.81-0.62-1.81-1-4l2-3z" fill="#12B76A"/>
<path transform="translate(1205,565)" d="m0 0 2 1c0.25 0.78 0.49 1.57 0.75 2.38 1.3 3.41 1.3 3.41 7.25 5.62v17h-1c-0.12-0.74-0.25-1.49-0.38-2.25-0.87-3.86-1.93-6.06-4.74-8.87l-1.88-1.88v-2c-0.99-0.33-1.98-0.66-3-1-1.51-2.27-2.78-4.56-4-7-3.03-0.66-3.03-0.66-6-1 3.64-2.33 6.76-2.24 11-2z" fill="#12B76A"/>
<path transform="translate(559,1012)" d="m0 0c3.88 1.75 3.88 1.75 5 4 0.13 2.67 0.04 5.32 0 8h2c-1 2-1 2-3 3 0.34 0.56 0.68 1.12 1.02 1.7 1.15 2.7 1.03 4.18 0.6 7.05-0.16 1.2-0.16 1.2-0.33 2.42-0.1 0.61-0.19 1.21-0.29 1.83l2 1h-7c0.19-0.52 0.37-1.03 0.56-1.56 0.59-2.54 0.59-2.54-0.03-5.5-0.61-4.5-0.64-8.84-0.59-13.4 0-0.82 0.01-1.65 0.01-2.5 0.01-2.02 0.03-4.04 0.05-6.06z" fill="#12B76A"/>
<path transform="translate(486,860)" d="m0 0c1 3 1 3 0.06 5-0.35 0.66-0.7 1.32-1.06 2v3h3c0.1 0.64 0.21 1.28 0.31 1.94 0.23 0.68 0.46 1.36 0.69 2.06 0.99 0.33 1.98 0.66 3 1l1 3c2.5 1.7 2.5 1.7 5 3-2.49 0.69-4.38 1-7 1-1.54-1.71-1.54-1.71-3.06-3.94-2.01-3.05-2.01-3.05-4.94-5.06v-2h-2c-0.45-0.8-0.91-1.61-1.38-2.44-1.35-2.71-1.35-2.71-3.81-3.37-0.6-0.06-1.19-0.13-1.81-0.19v-3c1.43-0.53 2.87-1.05 4.31-1.56 1.2-0.44 1.2-0.44 2.43-0.88 2.26-0.56 2.26-0.56 5.26 0.44z" fill="#12B76A"/>
<path transform="translate(1123,541)" d="m0 0c1.96-0.03 3.92-0.05 5.88-0.06 1.09-0.01 2.18-0.03 3.3-0.04 2.82 0.1 2.82 0.1 4.82 1.1 0.34 1.96 0.34 1.96 0.5 4.38 0.23 3.52 0.45 4.55 2.5 7.62-0.38 2.19-0.38 2.19-1 4-0.56-0.64-1.11-1.28-1.69-1.94-2.53-2.26-3.99-2.69-7.31-3.06l1-3v2l2-2c-1.3-2.59-2.29-3.02-5-4-2.69 0.3-2.69 0.3-5 1v-6z" fill="#12B76A"/>
<path transform="translate(1142,412)" d="m0 0c3 0 3 0 4.44 1.38 0.51 0.53 1.03 1.07 1.56 1.62l4 2v23c-4-5-4-5-4-7l2-1c-0.19-0.62-0.37-1.24-0.56-1.88-0.44-2.12-0.44-2.12 0.56-4.12-0.62-0.04-1.24-0.08-1.88-0.12-1.05-0.44-1.05-0.44-2.12-0.88-1.06-2.75-1.06-2.75-2-6-0.84-1.36-0.84-1.36-1.69-2.75-0.43-0.74-0.86-1.49-1.31-2.25l1-2z" fill="#12B76A"/>
<path transform="translate(586,984)" d="m0 0h1v62c-0.99 0.49-0.99 0.49-2 1-1.04-7.46-1.15-14.8-1.13-22.3 0.01-2.06 0-4.12-0.01-6.18 0-1.3 0.01-2.61 0.01-3.95v-3.59c0.13-2.95 0.13-2.95 1.13-5.95 0.15-1.63 0.25-3.26 0.32-4.89 0.04-0.93 0.08-1.87 0.12-2.84s0.08-1.95 0.12-2.96c0.05-0.99 0.09-1.97 0.13-2.99 0.11-2.44 0.21-4.88 0.31-7.32z" fill="#12B76A"/>
<path transform="translate(798,1027)" d="m0 0 2 1-1 45h-6c0.56-3.27 1.5-4.83 4-7l-2-1c0.16-0.66 0.33-1.32 0.5-2 0.48-2.89 0.51-5.57 0.46-8.49 0.07-4.39 0.52-8.77 0.92-13.1 0.12-3.3-0.33-6.13-0.88-9.37 0.94-2.88 0.94-2.88 2-5z" fill="#12B76A"/>
<path transform="translate(976,652)" d="m0 0h2c0.67 1.46 1.34 2.92 2 4.38 0.56 1.21 0.56 1.21 1.12 2.46 0.88 2.16 0.88 2.16 0.88 4.16h8l1 2c-4.46 0.5-4.46 0.5-9 1l-1 5c-2.87-0.57-3.86-0.86-6-3h3l-1-4h-2c-1.19-1.56-1.19-1.56-2-4 1.38-3.69 1.38-3.69 3-7v-1z" fill="#12B76A"/>
<path transform="translate(645 1222)" d="m0 0c1.68 0.01 1.68 0.01 3.39 0.02 1.75 0.02 1.75 0.02 3.54 0.05 1.76 0.01 1.76 0.01 3.57 0.03 2.91 0.02 5.82 0.05 8.74 0.1l1 3c-1.92 0.22-3.84 0.45-5.76 0.68-2.28 0.29-2.28 0.29-4.65 0.85-2.85 0.51-5.5 0.56-8.4 0.53-0.98-0.01-1.96-0.02-2.96-0.03-1.11-0.02-1.11-0.02-2.23-0.03v-2l-5-1c3.44-2.3 4.71-2.24 8.76-2.2z" fill="#12B76A"/>
<path transform="translate(551,419)" d="m0 0-2 7-4-1-1 3h-2v2l2 1h-5c-0.73-1.98-1.39-3.98-2-6l1-2h-2v-2c0.99-0.33 1.98-0.66 3-1l2 1 3-2c4.56-1.22 4.56-1.22 7 0z" fill="#12B76A"/>
<path transform="translate(616,646)" d="m0 0c3.15 0.7 6.09 1.58 9 3l1 3c1.87 1.02 1.87 1.02 4.06 1.69 0.74 0.25 1.47 0.5 2.23 0.76 0.56 0.18 1.13 0.36 1.71 0.55l-1 2c-2.5 0.41-2.5 0.41-5.56 0.62-1.01 0.08-2.03 0.15-3.07 0.23-0.78 0.05-1.56 0.1-2.37 0.15-3-4.62-3-4.62-3-8h-3v-4z" fill="#12B76A"/>
<path transform="translate(416,554)" d="m0 0h2l-2 5h-5l-1 21c-0.99 0.33-1.98 0.66-3 1-0.06-3.79-0.09-7.58-0.12-11.4-0.02-1.08-0.04-2.16-0.06-3.27 0-1.03-0.01-2.06-0.02-3.12-0.01-0.96-0.02-1.91-0.03-2.89 0.23-2.34 0.23-2.34 2.23-4.34 3.62 0.38 3.62 0.38 7 1v-3z" fill="#12B76A"/>
<path transform="translate(1058,805)" d="m0 0c4.62 0.66 9.24 1.32 14 2v4h-3v4h-9v-4l-2-6z" fill="#12B76A"/>
<path transform="translate(430,544)" d="m0 0c1.98 0.66 3.96 1.32 6 2v3c0.78-0.06 1.57-0.12 2.38-0.19 1.29 0.1 1.29 0.1 2.62 0.19 0.99 1.49 0.99 1.49 2 3-0.99 0.5-0.99 0.5-2 1-0.22 0.9-0.22 0.9-0.44 1.81-0.67 2.6-1.87 4.13-3.56 6.19l-3-2c-0.45-2.32-0.5-4.55-0.59-6.91-0.14-0.69-0.27-1.38-0.41-2.09l-3-2v-4z" fill="#12B76A"/>
<path transform="translate(647 1109)" d="m0 0c5.15 0.53 10.3 0.33 15.5 0.26 0.5 1.48 0.5 1.48 1 3-24.8 0.2-24.8 0.2-36-1l1-2c0.61 0.01 1.21 0.02 1.83 0.03 0.8 0.01 1.6 0.02 2.42 0.03 0.79 0.01 1.58 0.02 2.39 0.04 2.34-0.02 2.34-0.02 4.45-0.63 2.57-0.63 4.82-0.11 7.41 0.27z" fill="#12B76A"/>
<path transform="translate(528,926)" d="m0 0c1.94 0.31 1.94 0.31 4 1l1 3 2-2v3l4 2v2l4 2v7c-0.56-0.64-1.11-1.28-1.69-1.94-2.53-2.26-3.99-2.69-7.31-3.06-2-5.75-2-5.75-2-8h-2l-2-5z" fill="#12B76A"/>
<path transform="translate(510,904)" d="m0 0 2 4h3v2h2v3h2c0.99 1.49 0.99 1.49 2 3l-1 3h-2l-1-2c-1.42 0.06-1.42 0.06-2.88 0.12-3.12-0.12-3.12-0.12-5.12-2.12-0.38-2.33-0.71-4.66-1-7l-1-3c0.99-0.33 1.98-0.66 3-1z" fill="#12B76A"/>
<path transform="translate(790,1073)" d="m0 0h1v39l-4-1c0.33-0.76 0.66-1.53 1-2.31 1.3-3.5 0.97-6.58 0.78-10.2-0.07-1.32-0.07-1.32-0.14-2.67-0.04-0.91-0.09-1.83-0.14-2.77-0.09-1.81-0.19-3.62-0.28-5.44-0.04-0.8-0.09-1.6-0.13-2.43-0.13-3.04-0.09-6.08-0.09-9.13h2v-3z" fill="#12B76A"/>
<path transform="translate(546,940)" d="m0 0 1 2h2v2c0.99 0.33 1.98 0.66 3 1l-1 3 4 1c0.62 1.81 0.62 1.81 1 4-0.99 1.49-0.99 1.49-2 3-2.17-0.51-4-1-6-2v-7l-4-1v-5l2-1z" fill="#12B76A"/>
<path transform="translate(1009,600)" d="m0 0h1c2.6 14 0.68 28.9 0 43-1.94-0.31-1.94-0.31-4-1-0.5-1.49-0.5-1.49-1-3 1.44-2.19 1.44-2.19 3-4l-2-2c0.99-0.5 0.99-0.5 2-1v-20h2c-0.35-1.24-0.7-2.48-1.06-3.75-0.9-3.15-0.95-5.12 0.06-8.25z" fill="#12B76A"/>
<path transform="translate(892,336)" d="m0 0h2v8c-1.13 0.12-2.27 0.25-3.44 0.38-1.76 0.3-1.76 0.3-3.56 0.62-1.15 2.31-1.53 4.47-2 7-7.75-0.88-7.75-0.88-10-2v-2c3-1 3-1 6 0l1-2h2v-4c1.42-0.09 1.42-0.09 2.88-0.19 1.03-0.27 2.06-0.53 3.12-0.81 1.45-2.46 1.45-2.46 2-5z" fill="#12B76A"/>
<path transform="translate(1063,391)" d="m0 0 1 3c-0.56 0.23-1.11 0.45-1.69 0.69-2.94 1.67-4.99 3.86-7.31 6.31-2-1.12-2-1.12-4-3-0.25-3.19-0.25-3.19 0-6 3.98-1.33 7.85-1.07 12-1z" fill="#12B76A"/>
<path transform="translate(830,602)" d="m0 0h1l1 28h-4c0.14-0.96 0.14-0.96 0.29-1.94 0.79-6.07 0.79-6.07-0.35-12-0.31-1.01-0.62-2.02-0.94-3.06l2-3c-1.52-2.63-2.84-4.84-5-7 1.21 0.03 1.21 0.03 2.44 0.06 2.49 0.24 2.49 0.24 3.56-1.06z" fill="#12B76A"/>
<path transform="translate(1213,602)" d="m0 0h2l1 4 2-1c1.33-0.67 2.67-1.33 4-2 1.16 3.48 0.71 5.46 0 9h-10l-1-4c0.99-0.33 1.98-0.66 3-1l-1-5z" fill="#12B76A"/>
<path transform="translate(1154,642)" d="m0 0c1.53 0.25 3.05 0.58 4.56 0.94 0.83 0.19 1.66 0.39 2.51 0.59 0.95 0.23 0.95 0.23 1.93 0.47l-4 2c0.23 0.6 0.45 1.2 0.69 1.81 0.1 0.72 0.2 1.45 0.31 2.19-1.44 1.75-1.44 1.75-3 3v-2h-2l-2 2c-3.62-0.38-3.62-0.38-7-1l1-3h6c-0.02-0.97-0.04-1.94-0.06-2.94 0.06-3.06 0.06-3.06 1.06-4.06z" fill="#12B76A"/>
<path transform="translate(1076 383)" d="m0 0c0.72-0 1.43-0.01 2.17-0.01 3.77 0.04 6.69 0.23 9.89 2.32v1c-2.96 0.2-5.91 0.38-8.87 0.57-0.84 0.05-1.69 0.11-2.55 0.16-0.81 0.05-1.61 0.1-2.44 0.15-0.75 0.05-1.49 0.1-2.26 0.14-1.88-0.02-1.88-0.02-3.88-1.02l-1 2-2-2c2.72-4.01 6.56-3.41 10.9-3.31z" fill="#12B76A"/>
<path transform="translate(637,392)" d="m0 0 2 6c-4.46 1.81-7.31 2.12-12 1 0.38-1.94 0.38-1.94 1-4l2-1-2-2c3.48-1.16 5.46-0.71 9 0z" fill="#12B76A"/>
<path transform="translate(899 543)" d="m0 0c1.68-0 1.68-0 3.4-0.01 2.87 0.12 5.44 0.48 8.22 1.13v3h-20c-0.33-0.99-0.65-1.98-1-3 3.33-1.1 5.88-1.13 9.38-1.12z" fill="#12B76A"/>
<path transform="translate(834,631)" d="m0 0c2.12 0.94 2.12 0.94 4 2 0.18 13.6 0.18 13.6-1 20l-3-3h2l-1.06-2.12c-0.94-2.88-0.94-2.88-0.38-5.88 0.55-3.75-0.45-4.96-2.56-8v-2l2-1z" fill="#12B76A"/>
<path transform="translate(811,590)" d="m0 0h2c2.57 2.78 3.8 5.2 4 9-1.91 2.81-3.8 3.28-7 4-0.03-1.98-0.05-3.96-0.06-5.94-0.01-1.1-0.03-2.2-0.04-3.34 0.1-2.72 0.1-2.72 1.1-3.72z" fill="#12B76A"/>
<path transform="translate(680,563)" d="m0 0 2 1-1 7c-1.58 0.22-3.17 0.43-4.75 0.62-0.88 0.12-1.76 0.24-2.67 0.36-2.81 0.02-4.21-0.53-6.58-1.98l2-3c2.38-0.29 2.38-0.29 5.12-0.19 0.92 0.03 1.83 0.06 2.76 0.08 0.7 0.04 1.4 0.07 2.12 0.11l1-4z" fill="#12B76A"/>
<path transform="translate(423,560)" d="m0 0 4 2v1l8 2 1 4 1-2 1 5h-6c-0.04-0.6-0.08-1.2-0.12-1.81-0.75-2.51-0.75-2.51-3.76-3.88-3.07-1.34-3.07-1.34-6.12-2.31l1-4z" fill="#12B76A"/>
<path transform="translate(818,662)" d="m0 0c2.48 0.99 2.48 0.99 5 2l-1 6h2v3c-2.33 0.04-4.67 0.04-7 0-1-1-1-1-1.06-3.56 0.02-0.81 0.04-1.61 0.06-2.44h1l1-5z" fill="#12B76A"/>
<path transform="translate(535,415)" d="m0 0h4c-0.31 3.41-0.69 5.56-2.69 8.38-2.96 2.08-4.75 1.77-8.31 1.62-2.3 0.9-2.3 0.9-4 2l1-4c3.47-0.5 3.47-0.5 7-1 0.31-0.97 0.62-1.94 0.94-2.94 1.06-3.06 1.06-3.06 2.06-4.06z" fill="#12B76A"/>
<path transform="translate(881,524)" d="m0 0 2 3c-0.71 0.17-1.42 0.34-2.15 0.52-1.38 0.36-1.38 0.36-2.79 0.73-0.91 0.23-1.83 0.46-2.77 0.7-2.48 0.82-2.48 0.82-3.11 3.16-0.06 0.62-0.12 1.25-0.18 1.89h-2c-0.12-3.38-0.12-3.38 0-7 2.4-2.4 3.33-2.34 6.62-2.62 0.82-0.08 1.64-0.15 2.48-0.23 0.63-0.05 1.25-0.1 1.9-0.15z" fill="#12B76A"/>
<path transform="translate(934,689)" d="m0 0c2.48 0.99 2.48 0.99 5 2 0 4 0 4-2.25 6.31-2.75 1.69-2.75 1.69-4.81 1.57-2.01-0.91-3.99-1.84-5.94-2.88h6c-0.04-0.78-0.08-1.57-0.12-2.38 0.12-2.62 0.12-2.62 2.12-4.62z" fill="#12B76A"/>
<path transform="translate(1098,489)" d="m0 0c1.86 0.25 1.86 0.25 4 1 1.27 1.85 1.27 1.85 2.25 4.06 0.5 1.1 0.5 1.1 1.02 2.23 0.24 0.56 0.48 1.13 0.73 1.71l-3 2c-2.5-1-2.5-1-5-3-0.47-2.79-0.23-5.14 0-8z" fill="#12B76A"/>
<path transform="translate(745,1171)" d="m0 0c0.99 0.33 1.98 0.66 3 1 0.12 0.97 0.25 1.94 0.38 2.94 0.3 1.51 0.3 1.51 0.62 3.06l2 1c-0.99 1.48-0.99 1.48-2 3h-2l1 5-2 1c-1.53-3.07-1.1-6.27-1.06-9.62 0-0.71 0.01-1.42 0.01-2.15 0.01-1.74 0.03-3.49 0.05-5.23z" fill="#12B76A"/>
<path transform="translate(707,1108)" d="m0 0c2.47 0.09 4.91 0.24 7.38 0.44 5.3 0.41 5.3 0.41 10.6 0.56l1 3c-2.96 0.08-5.92 0.14-8.88 0.19-1.26 0.04-1.26 0.04-2.55 0.07-0.8 0.01-1.61 0.02-2.44 0.03-0.74 0.02-1.48 0.03-2.25 0.05-0.62-0.11-1.24-0.22-1.88-0.34l-2-3 1-1z" fill="#12B76A"/>
<path transform="translate(1098,502)" d="m0 0c1.15 0.95 2.29 1.91 3.44 2.88 0.64 0.53 1.27 1.06 1.93 1.61 1.63 1.51 1.63 1.51 2.63 3.51l-5 1v2c0.99 0.33 1.98 0.66 3 1v3h-4l-1-8h-1v-7z" fill="#12B76A"/>
<path transform="translate(807,651)" d="m0 0c0.7 0.31 1.4 0.62 2.12 0.94 2.99 1.1 5.72 1.71 8.88 2.06l2-1-1 4c-1.62 0.22-3.25 0.43-4.88 0.62-1.35 0.18-1.35 0.18-2.74 0.36-0.78 0-1.57 0.01-2.38 0.02-2-2-2-2-2.12-4.62 0.04-0.79 0.08-1.57 0.12-2.38z" fill="#12B76A"/>
<path transform="translate(985,645)" d="m0 0c1.49 0.99 1.49 0.99 3 2v2l2 2c1 3 1 3 0 6l2 2-2 2c-1.94-0.62-1.94-0.62-4-2-0.75-3.12-0.75-3.12-1-6h2l-2-8z" fill="#12B76A"/>
<path transform="translate(474,489)" d="m0 0 7 2c-0.6 3.36-1.85 5.38-4 8v-2c-0.64-0.25-1.28-0.5-1.94-0.75-2.06-1.25-2.06-1.25-2.94-3.25-0.04-0.66-0.08-1.32-0.12-2l2-2z" fill="#12B76A"/>
<path transform="translate(911,517)" d="m0 0h4l3 9-8-2-1-4 2-3z" fill="#12B76A"/>
<path transform="translate(811,600)" d="m0 0 2 3-1 2h-2v9c-0.99 0.33-1.98 0.66-3 1v-13l4 1v-3z" fill="#12B76A"/>
<path transform="translate(561,984)" d="m0 0 3 2v2l-4 2 4 2v6c-2.48-0.99-2.48-0.99-5-2v-11l2-1z" fill="#12B76A"/>
<path transform="translate(654,1253)" d="m0 0h43v1h-43v-1z" fill="#12B76A"/>
<path transform="translate(834,388)" d="m0 0c2.06 0.44 2.06 0.44 4 1v2h-3l1 4h2l1 4c-4 0-4 0-5.81-1.62-1.59-3.17-1.09-5.02-0.19-8.38l1-1z" fill="#12B76A"/>
<path transform="translate(573,407)" d="m0 0v2c-8.41 0.5-8.41 0.5-17 1l2-1v-2c5.35-1 9.62-0.85 15 0z" fill="#12B76A"/>
<path transform="translate(431,780)" d="m0 0 2 2c1.65 0.71 3.32 1.38 5 2-1.19 2.44-1.19 2.44-3 5-2.56 0.88-2.56 0.88-5 1l-2-1v-2h4l-1-7z" fill="#12B76A"/>
<path transform="translate(969,669)" d="m0 0 1 2c1.98-0.33 3.96-0.66 6-1l1 5-8 1c-0.99-1.32-1.98-2.64-3-4l3-3z" fill="#12B76A"/>
<path transform="translate(939,549)" d="m0 0 10 5v1h-13c1-3 1-3 3-6z" fill="#12B76A"/>
<path transform="translate(706,419)" d="m0 0 1 4h-2v8c-0.99 0.5-0.99 0.5-2 1l-2-1 1-3c-0.19-0.68-0.37-1.36-0.56-2.06-0.15-0.64-0.29-1.28-0.44-1.94l2-2-2-2c2-1 2-1 5-1z" fill="#12B76A"/>
<path transform="translate(458,852)" d="m0 0 2 3c1.92 2.09 3.6 3.4 6 5-1.38 1.5-1.38 1.5-3 3-2 0-2 0-4.06-2-0.64-0.66-1.28-1.32-1.94-2h-1c-0.12-2.38-0.12-2.38 0-5l2-2z" fill="#12B76A"/>
<path transform="translate(391,721)" d="m0 0c0.99 0.33 1.98 0.66 3 1v13h-3v-14z" fill="#12B76A"/>
<path transform="translate(826,402)" d="m0 0 10 2-1 4c-1.48-0.11-2.96-0.24-4.44-0.38-0.82-0.06-1.64-0.13-2.49-0.21-0.69-0.13-1.37-0.27-2.07-0.41l-1-2 1-3z" fill="#12B76A"/>
<path transform="translate(654 1109)" d="m0 0c1.65 0.02 1.65 0.02 3.34 0.04 1.66 0.01 1.66 0.01 3.35 0.02 0.85 0.01 1.71 0.03 2.59 0.04l1 3c-1.96 0.05-3.92 0.09-5.88 0.12-1.09 0.03-2.18 0.05-3.3 0.07-2.82-0.19-2.82-0.19-4.82-2.19 1-1 1-1 3.72-1.1z" fill="#12B76A"/>
<path transform="translate(1009,600)" d="m0 0h1c1.24 6.66 1.09 13.2 1 20-0.99 0.33-1.98 0.66-3 1v-9h2c-0.35-1.24-0.7-2.48-1.06-3.75-0.9-3.15-0.95-5.12 0.06-8.25z" fill="#12B76A"/>
<path transform="translate(500,473)" d="m0 0 2 4c-1.44 0.17-2.87 0.33-4.31 0.5-0.8 0.09-1.6 0.19-2.43 0.28-2.26 0.22-2.26 0.22-5.26 0.22l1-4c4.45-0.5 4.45-0.5 9-1z" fill="#12B76A"/>
<path transform="translate(753,1155)" d="m0 0c2 2 2 2 2.2 4.6-0.03 1-0.05 2-0.08 3.02-0.01 1.01-0.03 2.01-0.05 3.04-0.03 1.16-0.03 1.16-0.07 2.34l-5 1 2-1c-0.01-0.6-0.02-1.21-0.04-1.83 0-0.8-0.01-1.6-0.02-2.42-0.01-0.79-0.03-1.58-0.04-2.39 0.1-2.27 0.47-4.19 1.1-6.36z" fill="#12B76A"/>
<path transform="translate(560 1e3)" d="m0 0c0.99 0.33 1.98 0.66 3 1 0.73 2.07 0.73 2.07 1.19 4.56 0.16 0.83 0.31 1.66 0.48 2.51 0.11 0.63 0.22 1.27 0.33 1.93-0.99 0.5-0.99 0.5-2 1-3-2-3-2-3.55-3.91-0.19-2.03-0.32-4.06-0.45-6.09l1-1z" fill="#12B76A"/>
<path transform="translate(561,411)" d="m0 0h11v3c-4.04 0.63-7.91 1.12-12 1l1-4z" fill="#12B76A"/>
<path transform="translate(546,940)" d="m0 0 1 2h2v2c0.99 0.33 1.98 0.66 3 1l-2 4-1-2h-5v-6l2-1z" fill="#12B76A"/>
<path transform="translate(528,926)" d="m0 0c1.94 0.31 1.94 0.31 4 1l1 3 2-2v3c0.99 0.33 1.98 0.66 3 1l-1 3h-4l-1-4h-2l-2-5z" fill="#12B76A"/>
<path transform="translate(626,626)" d="m0 0 8 1-1 4h5v2c-2.12 0.75-2.12 0.75-5 1-5.57-2.89-5.57-2.89-6.88-6.25-0.04-0.58-0.08-1.15-0.12-1.75z" fill="#12B76A"/>
<path transform="translate(423,805)" d="m0 0h3v2l2 1c0 3 0 3-1.38 4.69-1.62 1.31-1.62 1.31-3.62 1.31v-9z" fill="#12B76A"/>
<path transform="translate(915,314)" d="m0 0h18v6l-1-2c-3.21-2.31-6.17-2.11-10-2-2.42 0-4.63-0.41-6.97-1v-1z" fill="#12B76A"/>
<path transform="translate(410,560)" d="m0 0 4 1c0.93 2.61 1.15 3.64 0.06 6.25-0.35 0.58-0.7 1.15-1.06 1.75h-3v-9z" fill="#12B76A"/>
<path transform="translate(549,407)" d="m0 0c1.88 0.62 1.88 0.62 4 2 1.25 3.12 1.25 3.12 2 6-2.31 0.33-4.62 0.66-7 1-0.1-6.15-0.1-6.15 0-8l1-1z" fill="#12B76A"/>
<path transform="translate(1105 829)" d="m0 0c1.21 0.03 1.21 0.03 2.44 0.06v5l-5 2c-1-1-1-1-1.13-3.5 0.17-3.4 0.27-3.48 3.69-3.56z" fill="#12B76A"/>
<path transform="translate(666,571)" d="m0 0v8h-8v-3c2.48 0.5 2.48 0.5 5 1l-1-3c2.88-3 2.88-3 4-3z" fill="#12B76A"/>
<path transform="translate(466,502)" d="m0 0c2.97 0.99 5.94 1.98 9 3v3c-3.31 0.25-3.31 0.25-7 0-1.94-2-1.94-2-3-4l1-2z" fill="#12B76A"/>
<path transform="translate(1188,557)" d="m0 0c1.98 0.5 1.98 0.5 4 1v7c-0.99 0.33-1.98 0.66-3 1-1.62-2.57-2.04-3.68-1.62-6.75 0.2-0.74 0.41-1.49 0.62-2.25z" fill="#12B76A"/>
<path transform="translate(1118,522)" d="m0 0h1c1.01 4.16 1.1 8.04 1.06 12.3-0.01 1.26-0.02 2.51-0.02 3.8-0.02 1.43-0.02 1.43-0.04 2.89l-3-3 1-2c-0.16-1.05-0.33-2.1-0.5-3.19-0.51-3.89-0.2-6.97 0.5-10.8z" fill="#12B76A"/>
<path transform="translate(457,508)" d="m0 0c4.45 0.99 4.45 0.99 9 2v3c-3.38 0.12-3.38 0.12-7 0l-2-2v-3z" fill="#12B76A"/>
<path transform="translate(814,411)" d="m0 0 5 3-1 4c-2.97-0.5-2.97-0.5-6-1l-1-3 3-3z" fill="#12B76A"/>
<path transform="translate(1051,392)" d="m0 0c0.99 0.33 1.98 0.66 3 1v2h2l1 4-3 2c-1.5-1.12-1.5-1.12-3-3-0.19-3.19-0.19-3.19 0-6z" fill="#12B76A"/>
<path transform="translate(775,1012)" d="m0 0h1v30h-1v-30z" fill="#12B76A"/>
<path transform="translate(528,924)" d="m0 0 2 1v6l2 1h-6c-0.69-2.31-0.69-2.31-1-5 1.44-1.81 1.44-1.81 3-3z" fill="#12B76A"/>
<path transform="translate(446,806)" d="m0 0c2.31 0.33 4.62 0.66 7 1l1 3h-2v2l-5-1-1-5z" fill="#12B76A"/>
<path transform="translate(1135,673)" d="m0 0c2 2 2 2 2.12 5.62-0.04 1.12-0.08 2.23-0.12 3.38-1.98-0.66-3.96-1.32-6-2l2-1c0.37-1.66 0.71-3.33 1-5l1-1z" fill="#12B76A"/>
<path transform="translate(995,666)" d="m0 0v7c-0.99 0.5-0.99 0.5-2 1v-3c-2.97-0.5-2.97-0.5-6-1v-2c6.88-2 6.88-2 8-2z" fill="#12B76A"/>
<path transform="translate(769,1064)" d="m0 0h1v11h2l-1 3c-2.06-0.94-2.06-0.94-4-3-0.14-3.81 0.29-7.58 2-11z" fill="#12B76A"/>
<path transform="translate(619,652)" d="m0 0c3 1 3 1 5 3 0.99-0.33 1.98-0.66 3-1 2.19 0.94 2.19 0.94 4 2-3.1 1.83-5.41 2.65-9 2-3-4.03-3-4.03-3-6z" fill="#12B76A"/>
<path transform="translate(949,556)" d="m0 0c3.26 1.8 4.89 2.83 7 6-1.98 0.33-3.96 0.66-6 1l-2-6 1-1z" fill="#12B76A"/>
<path transform="translate(867,532)" d="m0 0c-0.12 1.88-0.12 1.88-1 4-3.06 1.25-3.06 1.25-6 2l-2-5c3.2-1.07 5.66-1.07 9-1z" fill="#12B76A"/>
<path transform="translate(846,408)" d="m0 0c0.22 1.96 0.43 3.92 0.62 5.88 0.12 1.09 0.24 2.18 0.36 3.3 0 0.93 0.01 1.86 0.02 2.82l-2 2c-0.31-0.95-0.62-1.9-0.94-2.88-0.93-2.98-0.93-2.98-2.06-5.12h2l-1-5c2-1 2-1 3-1z" fill="#12B76A"/>
<path transform="translate(853,398)" d="m0 0h1l1 9c-2.38 0.19-2.38 0.19-5 0l-2-3 3-2v-2h2v-2z" fill="#12B76A"/>
<path transform="translate(1101,377)" d="m0 0 5 1v8c-0.99-0.33-1.98-0.66-3-1 1-2 1-2 2-3l-5-1 1-4z" fill="#12B76A"/>
<path transform="translate(430,529)" d="m0 0h3v5c-3.69 1.23-6.21 0.64-10 0l1-3h3v2h3v-4z" fill="#12B76A"/>
<path transform="translate(591 391)" d="m0 0c2.02 0.07 4.04 0.13 6.05 0.2v3c-6.05 0.97-6.05 0.97-8 1l-2-2c2-2 2-2 3.95-2.2z" fill="#12B76A"/>
<path transform="translate(569,1065)" d="m0 0 3 2v4l1 3c-0.99 0.33-1.98 0.66-3 1-0.31-0.78-0.62-1.57-0.94-2.38-0.99-2.54-0.99-2.54-2.06-4.62h2v-3z" fill="#12B76A"/>
<path transform="translate(1106,672)" d="m0 0c1.88 0.25 1.88 0.25 4 1 1.25 2.06 1.25 2.06 2 4h2l-1 3c-1.98-0.66-3.96-1.32-6-2l-1-6z" fill="#12B76A"/>
<path transform="translate(818,580)" d="m0 0 4 1v2l2 1-3 3c-1.98-0.66-3.96-1.32-6-2 0.99-0.33 1.98-0.66 3-1v-4z" fill="#12B76A"/>
<path transform="translate(661,551)" d="m0 0c1.94 0.69 1.94 0.69 4 2 0.75 2.62 0.75 2.62 1 5-0.99 0.33-1.98 0.66-3 1-1.56-1.19-1.56-1.19-3-3 0.31-2.69 0.31-2.69 1-5z" fill="#12B76A"/>
<path transform="translate(854,349)" d="m0 0c0.99 0.33 1.98 0.66 3 1l1 5c-1.81 0.69-1.81 0.69-4 1-1.75-1.44-1.75-1.44-3-3 0.99-0.33 1.98-0.66 3-1v-3z" fill="#12B76A"/>
<path transform="translate(488,481)" d="m0 0 3 2 2-2v5l-8-1 1-3 2-1z" fill="#12B76A"/>
<path transform="translate(964,339)" d="m0 0v10h-3l-1-8c3-2 3-2 4-2z" fill="#12B76A"/>
<path transform="translate(422,616)" d="m0 0h1v10h-1v-10z" fill="#12B76A"/>
<path transform="translate(712,755)" d="m0 0h1v5h-1v-5z" fill="#12B76A"/>
<path transform="translate(1120,522)" d="m0 0h1v5h-1v-5z" fill="#12B76A"/>
<path transform="translate(762,1073)" d="m0 0 4 1z" fill="#12B76A"/>
<path transform="translate(1113,834)" d="m0 0 1 4z" fill="#12B76A"/>
<path transform="translate(787,814)" d="m0 0 4 1z" fill="#12B76A"/>
<path transform="translate(1128,810)" d="m0 0 1 4z" fill="#12B76A"/>
<path transform="translate(1104,542)" d="m0 0 1 4z" fill="#12B76A"/>
<path transform="translate(669,681)" d="m0 0c3 1 3 1 3 1z" fill="#12B76A"/>
<path transform="translate(514,462)" d="m0 0c3 1 3 1 3 1z" fill="#12B76A"/>
<path transform="translate(584,422)" d="m0 0c3 1 3 1 3 1z" fill="#12B76A"/>
<path transform="translate(598,1072)" d="m0 0 2 1z" fill="#12B76A"/>
<path transform="translate(458,861)" d="m0 0 2 1z" fill="#12B76A"/>
<path transform="translate(455,861)" d="m0 0 2 1z" fill="#12B76A"/>
<path transform="translate(1119,558)" d="m0 0 2 1z" fill="#12B76A"/>
<path transform="translate(1114,556)" d="m0 0 2 1z" fill="#12B76A"/>
<path transform="translate(1106,548)" d="m0 0 2 1z"/>
<path transform="translate(892,548)" d="m0 0 2 1z" fill="#12B76A"/>
<path transform="translate(912,516)" d="m0 0 2 1z" fill="#12B76A"/>
<path transform="translate(581,422)" d="m0 0 2 1z" fill="#12B76A"/>
<path transform="translate(1138,406)" d="m0 0 2 1z" fill="#12B76A"/>
<path transform="translate(550,406)" d="m0 0 2 1z" fill="#12B76A"/>
</svg>