<svg width="40" height="30" viewBox="0 0 40 30" fill="none" xmlns="http://www.w3.org/2000/svg">
<path d="M33.4062 2.91667C33.7295 2.91667 34.0395 3.04397 34.268 3.27058C34.4966 3.49719 34.625 3.80453 34.625 4.125V22.25H5.375V4.125C5.375 3.80453 5.5034 3.49719 5.73196 3.27058C5.96052 3.04397 6.27052 2.91667 6.59375 2.91667H33.4062ZM6.59375 0.5C5.62405 0.5 4.69407 0.881919 4.00839 1.56174C3.32271 2.24156 2.9375 3.16359 2.9375 4.125V24.6667H37.0625V4.125C37.0625 3.16359 36.6773 2.24156 35.9916 1.56174C35.3059 0.881919 34.3759 0.5 33.4062 0.5H6.59375ZM0.5 25.875H39.5C39.5 26.8364 39.1148 27.7584 38.4291 28.4383C37.7434 29.1181 36.8134 29.5 35.8438 29.5H4.15625C3.18655 29.5 2.25657 29.1181 1.57089 28.4383C0.885211 27.7584 0.5 26.8364 0.5 25.875Z" fill="#667085" stroke="#F9FAFB" stroke-width="0.5" stroke-linecap="round" stroke-linejoin="round"/>
</svg>
