<svg width="21" height="24" viewBox="0 0 21 24" fill="none" xmlns="http://www.w3.org/2000/svg">
<path d="M20.2617 4.00488C20.6719 4.00488 21 4.37402 21 4.78418V16.3916C21 16.8018 20.6719 17.1299 20.2617 17.1299H11.3613V19.7549H15.3809C15.5859 19.7549 15.75 19.96 15.75 20.165V21.2725C15.75 21.3955 15.668 21.4775 15.5449 21.4775H5.45508C5.33203 21.4775 5.25 21.3955 5.25 21.2725V20.165C5.25 19.96 5.41406 19.7549 5.61914 19.7549H9.63867V17.1299H0.738281C0.328125 17.1299 0 16.8018 0 16.3916V4.78418C0 4.37402 0.328125 4.00488 0.738281 4.00488H20.2617ZM19.3184 15.4482V5.72754H1.68164V15.4482H19.3184Z" fill="#3C3E49"/>
</svg>
