<svg width="24" height="24" viewBox="0 0 24 24" fill="none" xmlns="http://www.w3.org/2000/svg">
<path d="M12 2C17.5357 2 22 6.46428 22 12C22 17.5357 17.5357 22 12 22C6.46429 22 2 17.5357 2 12C2 6.46428 6.46429 2 12 2ZM12 20.3036C16.5982 20.3036 20.3036 16.5982 20.3036 12C20.3036 7.40178 16.5982 3.69643 12 3.69643C7.40179 3.69643 3.69643 7.40178 3.69643 12C3.69643 16.5982 7.40179 20.3036 12 20.3036ZM14.5 7.625C15.1696 8.25 15.5714 9.05357 15.5714 9.94643C15.5714 11.2411 14.7232 12.4018 13.3839 12.8929C13.2054 12.9821 13.0268 13.1161 12.8929 13.2946C12.7589 13.4732 12.7143 13.6964 12.7143 13.9196V14.4107C12.7143 14.5 12.625 14.5893 12.5357 14.5893H11.4643C11.375 14.5893 11.2857 14.5 11.2857 14.4107V13.9196C11.2857 13.4286 11.4196 12.8929 11.7321 12.4911C12 12.0893 12.4018 11.7321 12.8929 11.5536C13.6518 11.2857 14.1429 10.6607 14.1429 9.94643C14.1429 8.96429 13.1607 8.16071 12 8.16071C10.8393 8.16071 9.85714 8.96429 9.85714 9.94643V10.125C9.85714 10.2143 9.76786 10.3036 9.67857 10.3036H8.60714C8.51786 10.3036 8.42857 10.2143 8.42857 10.125V9.94643C8.42857 9.05357 8.83036 8.25 9.5 7.625C10.1696 7.04464 11.0625 6.73214 12 6.73214C12.9375 6.73214 13.8304 7.04464 14.5 7.625ZM11.1071 16.9107C11.1071 16.6875 11.1964 16.4643 11.375 16.2857C11.5536 16.1071 11.7768 16.0179 12 16.0179C12.2232 16.0179 12.4464 16.1071 12.625 16.2857C12.8036 16.4643 12.8929 16.6875 12.8929 16.9107C12.8929 17.1339 12.8036 17.3571 12.625 17.5357C12.4464 17.7143 12.2232 17.8036 12 17.8036C11.7768 17.8036 11.5536 17.7143 11.375 17.5357C11.1964 17.3571 11.1071 17.1339 11.1071 16.9107Z" fill="#3C3E49"/>
</svg>
