<svg width="61" height="60" viewBox="0 0 61 60" fill="none" xmlns="http://www.w3.org/2000/svg">
<g clip-path="url(#clip0_8845_9070)">
<path opacity="0.5" d="M0.603516 29.9922C0.603516 13.4236 14.035 -0.0078125 30.6035 -0.0078125C47.1721 -0.0078125 60.6035 13.4236 60.6035 29.9922C60.6035 46.5607 47.1721 59.9922 30.6035 59.9922C14.035 59.9922 0.603516 46.5607 0.603516 29.9922Z" fill="#E1CEB4"/>
<path d="M30.6035 4.99219C16.791 4.99219 5.60352 16.1797 5.60352 29.9922C5.60352 43.8047 16.791 54.9922 30.6035 54.9922C44.416 54.9922 55.6035 43.8047 55.6035 29.9922C55.6035 16.1797 44.416 4.99219 30.6035 4.99219ZM25.6035 41.2422V18.7422L40.6035 29.9922L25.6035 41.2422Z" fill="black"/>
</g>
<defs>
<clipPath id="clip0_8845_9070">
<rect width="60" height="60" fill="white" transform="translate(0.603516 -0.0078125)"/>
</clipPath>
</defs>
</svg>
