<svg width="36" height="36" viewBox="0 0 36 36" fill="none" xmlns="http://www.w3.org/2000/svg">
<rect width="36" height="36" rx="18" fill="#F6FEF9"/>
<g clip-path="url(#clip0_8117_79684)">
<path d="M15.9793 19.0471H9.41426C9.20208 19.0471 8.9986 18.9628 8.84857 18.8128C8.69854 18.6628 8.61426 18.4593 8.61426 18.2471V13.2831C8.61426 12.8588 8.78283 12.4518 9.08289 12.1517C9.38295 11.8517 9.78991 11.6831 10.2143 11.6831H25.4243C26.3093 11.6831 27.0263 12.3991 27.0263 13.2831V18.2471C27.0263 18.4593 26.942 18.6628 26.7919 18.8128C26.6419 18.9628 26.4384 19.0471 26.2263 19.0471H19.6603" stroke="#027A48"/>
<path d="M21.5027 11.683H14.1377V10.915C14.1588 10.2845 14.4292 9.68824 14.8894 9.25687C15.3497 8.8255 15.9622 8.5943 16.5927 8.61399H19.0477C19.6781 8.59403 20.2906 8.825 20.7509 9.25621C21.2112 9.68742 21.4816 10.2836 21.5027 10.914V11.682V11.683ZM16.5927 16.593C16.43 16.593 16.274 16.6575 16.1589 16.7725C16.0438 16.8874 15.979 17.0433 15.9787 17.206V19.047C15.9787 19.5354 16.1727 20.0038 16.5181 20.3491C16.8634 20.6945 17.3318 20.8885 17.8202 20.8885C18.3086 20.8885 18.777 20.6945 19.1223 20.3491C19.4677 20.0038 19.6617 19.5354 19.6617 19.047V17.207C19.6617 17.1264 19.6458 17.0465 19.615 16.972C19.5841 16.8975 19.5389 16.8298 19.4819 16.7728C19.4248 16.7158 19.3572 16.6706 19.2827 16.6397C19.2082 16.6089 19.1283 16.593 19.0477 16.593H16.5927Z" stroke="#027A48"/>
<path d="M25.7987 19.0469L26.8087 25.6119C26.8357 25.7869 26.8245 25.9658 26.7758 26.1361C26.7271 26.3064 26.6421 26.4642 26.5267 26.5985C26.4112 26.7329 26.268 26.8407 26.107 26.9144C25.9459 26.9882 25.7708 27.0262 25.5937 27.0259H10.0457C9.86872 27.0259 9.69383 26.9877 9.53303 26.9138C9.37222 26.8399 9.2293 26.7321 9.11408 26.5978C8.99885 26.4635 8.91404 26.3058 8.86547 26.1356C8.8169 25.9654 8.80572 25.7868 8.83269 25.6119L9.84069 19.0479" stroke="#027A48"/>
</g>
<defs>
<clipPath id="clip0_8117_79684">
<rect width="20" height="20" fill="white" transform="translate(8 8)"/>
</clipPath>
</defs>
</svg>
