<svg width="36" height="36" viewBox="0 0 36 36" fill="none" xmlns="http://www.w3.org/2000/svg">
<rect width="36" height="36" rx="18" fill="#F6FEF9"/>
<g clip-path="url(#clip0_8117_79623)">
<path d="M14.798 16.5291L13.94 15.6741C13.2469 16.006 12.4678 16.115 11.7102 15.986C10.9525 15.857 10.2534 15.4964 9.70917 14.9538C9.16489 14.4111 8.80215 13.7132 8.67086 12.9559C8.53957 12.1986 8.64619 11.4193 8.97603 10.7251L10.142 11.8881C10.3741 12.1208 10.6891 12.2518 11.0178 12.2523C11.1805 12.2525 11.3417 12.2207 11.4921 12.1587C11.6426 12.0966 11.7793 12.0055 11.8945 11.8906C12.0098 11.7757 12.1012 11.6392 12.1637 11.489C12.2262 11.3387 12.2585 11.1776 12.2587 11.0149C12.259 10.8521 12.2271 10.6909 12.1651 10.5405C12.103 10.3901 12.0119 10.2533 11.897 10.1381L10.732 8.9761C11.4251 8.64489 12.2037 8.53653 12.9608 8.6659C13.718 8.79527 14.4164 9.15603 14.9602 9.69856C15.5039 10.2411 15.8662 10.9388 15.9973 11.6956C16.1283 12.4525 16.0217 13.2313 15.692 13.9251L16.486 14.7161M20.536 18.7501L21.699 19.9101C22.3921 19.5784 23.171 19.4695 23.9284 19.5985C24.6859 19.7275 25.3848 20.088 25.929 20.6305C26.4732 21.1729 26.836 21.8707 26.9674 22.6277C27.0989 23.3848 26.9925 24.164 26.663 24.8581L25.497 23.6961C25.2638 23.4694 24.9507 23.3435 24.6254 23.3457C24.3001 23.3478 23.9887 23.4778 23.7585 23.7076C23.5282 23.9373 23.3975 24.2484 23.3946 24.5737C23.3917 24.8989 23.5169 25.2123 23.743 25.4461L24.908 26.6071C24.2152 26.9379 23.4369 27.046 22.6802 26.9167C21.9234 26.7873 21.2252 26.4268 20.6816 25.8846C20.138 25.3424 19.7757 24.6452 19.6443 23.8888C19.513 23.1324 19.6191 22.3538 19.948 21.6601L18.784 20.5001" stroke="#027A48"/>
<path d="M9.1823 26.494C9.01156 26.3242 8.87607 26.1224 8.78361 25.9C8.69115 25.6777 8.64355 25.4393 8.64355 25.1985C8.64355 24.9577 8.69115 24.7193 8.78361 24.497C8.87607 24.2747 9.01156 24.0728 9.1823 23.903L13.0253 20.068C13.1403 19.9536 13.296 19.8893 13.4583 19.8893C13.6206 19.8893 13.7762 19.9536 13.8913 20.068L15.6243 21.796C15.6811 21.8527 15.7262 21.92 15.757 21.9941C15.7878 22.0683 15.8036 22.1478 15.8036 22.228C15.8036 22.3083 15.7878 22.3878 15.757 22.4619C15.7262 22.536 15.6811 22.6034 15.6243 22.66L11.7823 26.494C11.4371 26.8379 10.9696 27.031 10.4823 27.031C9.99499 27.031 9.52753 26.8379 9.1823 26.494ZM21.5733 8.97202L26.6633 14.046C26.777 14.1593 26.8671 14.2938 26.9287 14.442C26.9902 14.5902 27.0219 14.7491 27.0219 14.9095C27.0219 15.07 26.9902 15.2288 26.9287 15.377C26.8671 15.5252 26.777 15.6598 26.6633 15.773L24.9313 17.503C24.7012 17.7322 24.3896 17.8609 24.0648 17.8609C23.74 17.8609 23.4284 17.7322 23.1983 17.503L18.1083 12.429C17.9944 12.3158 17.904 12.1812 17.8423 12.0329C17.7806 11.8846 17.7488 11.7256 17.7488 11.565C17.7488 11.4044 17.7806 11.2454 17.8423 11.0971C17.904 10.9488 17.9944 10.8142 18.1083 10.701L19.8383 8.97402C20.0681 8.74403 20.3798 8.61463 20.7049 8.61426C21.03 8.61388 21.342 8.74256 21.5723 8.97202H21.5733Z" stroke="#027A48"/>
<path d="M20.7058 15.019L14.6758 20.85" stroke="#027A48"/>
</g>
<defs>
<clipPath id="clip0_8117_79623">
<rect width="20" height="20" fill="white" transform="translate(8 8)"/>
</clipPath>
</defs>
</svg>
