<svg width="55" height="54" viewBox="0 0 55 54" fill="none" xmlns="http://www.w3.org/2000/svg">
<rect x="0.5" width="54" height="54" rx="27" fill="#F6FEF9"/>
<path d="M26.299 35.6364V19.2727H27.3473V35.6364H26.299ZM29.5781 24.348C29.5099 23.7429 29.2287 23.2741 28.7344 22.9418C28.2401 22.6051 27.6179 22.4368 26.8679 22.4368C26.331 22.4368 25.8665 22.522 25.4744 22.6925C25.0824 22.8587 24.7777 23.0888 24.5604 23.3828C24.3473 23.6726 24.2408 24.0028 24.2408 24.3736C24.2408 24.6847 24.3132 24.9531 24.4581 25.179C24.6072 25.4048 24.8011 25.5945 25.0398 25.7479C25.2827 25.897 25.5426 26.0227 25.8196 26.125C26.0966 26.223 26.3629 26.304 26.6186 26.3679L27.897 26.7003C28.3146 26.8026 28.7429 26.9411 29.1818 27.1158C29.6207 27.2905 30.0277 27.5206 30.4027 27.8061C30.7777 28.0916 31.0803 28.4453 31.3104 28.8672C31.5447 29.2891 31.6619 29.794 31.6619 30.3821C31.6619 31.1236 31.4702 31.782 31.0866 32.3572C30.7074 32.9325 30.1555 33.3864 29.4311 33.7188C28.7109 34.0511 27.8395 34.2173 26.8168 34.2173C25.8366 34.2173 24.9886 34.0618 24.2727 33.7507C23.5568 33.4396 22.9964 32.9986 22.5916 32.4276C22.1868 31.8523 21.9631 31.1705 21.9205 30.3821H23.902C23.9403 30.8551 24.0938 31.2493 24.3622 31.5646C24.6349 31.8757 24.9822 32.108 25.4041 32.2614C25.8303 32.4105 26.2969 32.4851 26.804 32.4851C27.3622 32.4851 27.8587 32.3977 28.2933 32.223C28.7322 32.044 29.0774 31.7969 29.3288 31.4815C29.5803 31.1619 29.706 30.7891 29.706 30.3629C29.706 29.9751 29.5952 29.6577 29.3736 29.4105C29.1563 29.1634 28.8601 28.9588 28.4851 28.7969C28.1143 28.6349 27.6946 28.4922 27.2259 28.3686L25.679 27.9467C24.6307 27.6612 23.7997 27.2415 23.1861 26.6875C22.5767 26.1335 22.272 25.4006 22.272 24.4886C22.272 23.7344 22.4766 23.076 22.8857 22.5135C23.2947 21.951 23.8487 21.5142 24.5476 21.2031C25.2464 20.8878 26.0348 20.7301 26.9126 20.7301C27.799 20.7301 28.581 20.8857 29.2585 21.1967C29.9403 21.5078 30.4773 21.9361 30.8693 22.4815C31.2614 23.0227 31.4659 23.6449 31.483 24.348H29.5781Z" fill="#054F31"/>
</svg>
