<svg width="36" height="36" viewBox="0 0 36 36" fill="none" xmlns="http://www.w3.org/2000/svg">
<rect width="36" height="36" rx="18" fill="#F6FEF9"/>
<g clip-path="url(#clip0_8117_79691)">
<path d="M13.5243 27.0269H10.4553L8.61426 13.5249H19.0473L18.7483 15.7199" stroke="#027A48"/>
<path d="M12.9102 22.1172L14.7512 8.61523L18.4342 9.22823" stroke="#027A48"/>
<path d="M17.2055 24.5721H25.7995M17.2055 24.5721L17.2065 25.8001C17.2065 26.4771 17.7565 27.0271 18.4345 27.0271H24.5715C25.2495 27.0271 25.7995 26.4781 25.7995 25.8001V24.5721M17.2055 24.5721C16.5275 24.5721 15.9785 24.0221 15.9785 23.3451C15.9785 22.6671 16.5275 22.1171 17.2055 22.1171M25.7995 24.5721C26.4765 24.5721 27.0255 24.0231 27.0255 23.3451C27.0255 22.6671 26.4765 22.1171 25.7985 22.1171M25.7985 22.1171V20.8901C25.7985 19.5341 24.6985 18.4351 23.3435 18.4351H19.6605C18.3055 18.4351 17.2055 19.5341 17.2055 20.8901V22.1171M25.7985 22.1171H17.2055" stroke="#027A48"/>
</g>
<defs>
<clipPath id="clip0_8117_79691">
<rect width="20" height="20" fill="white" transform="translate(8 8)"/>
</clipPath>
</defs>
</svg>
