<svg width="49" height="48" viewBox="0 0 49 48" fill="none" xmlns="http://www.w3.org/2000/svg">
<circle cx="24.5" cy="24" r="24" fill="#ECFDF3"/>
<path d="M36.9973 28.9767C36.9854 28.7584 36.9243 28.5457 36.8187 28.3544C36.713 28.163 36.5656 27.998 36.3873 27.8716C36.209 27.7452 36.0045 27.6606 35.789 27.6243C35.5735 27.5879 35.3525 27.6007 35.1426 27.6616C35.8173 26.7404 36.1684 25.632 36.1684 24.3955C36.1684 22.1212 34.2531 18.9971 32.5406 17.7231C32.4879 17.6838 32.4405 17.6378 32.3995 17.5864C32.8672 17.5211 33.3439 17.5763 33.7843 17.7469C34.2247 17.9174 34.6142 18.1977 34.916 18.561C34.976 18.6324 35.0618 18.6771 35.1547 18.6851C35.2476 18.6932 35.3399 18.6641 35.4113 18.6041C35.4827 18.5442 35.5274 18.4583 35.5355 18.3654C35.5436 18.2725 35.5145 18.1802 35.4545 18.1088C35.0872 17.6705 34.6188 17.3282 34.0896 17.1116C33.717 16.9606 33.3209 16.8759 32.9191 16.8613C33.2356 16.6603 33.6421 16.4995 34.1145 16.5286C34.4948 16.5564 34.8596 16.6903 35.1676 16.9151C35.2051 16.9427 35.2477 16.9625 35.2929 16.9735C35.3381 16.9845 35.385 16.9863 35.431 16.979C35.477 16.9717 35.521 16.9553 35.5606 16.9309C35.6002 16.9064 35.6345 16.8743 35.6616 16.8365C35.6887 16.7987 35.708 16.7558 35.7184 16.7105C35.7288 16.6651 35.7301 16.6182 35.7222 16.5723C35.7143 16.5264 35.6974 16.4826 35.6725 16.4433C35.6475 16.404 35.615 16.3701 35.5769 16.3435C35.1617 16.0409 34.6695 15.8618 34.157 15.8267C33.6554 15.7992 33.1564 15.9157 32.7188 16.1624L33.7449 14.6581C33.8431 14.5141 33.9015 14.3467 33.9141 14.1728C33.9267 13.9989 33.8931 13.8248 33.8167 13.6681C33.7404 13.5114 33.6239 13.3777 33.4792 13.2805C33.3344 13.1833 33.1666 13.1262 32.9926 13.1148C32.7851 13.1015 32.5786 13.1536 32.4022 13.2637L31.4566 13.8568C31.3229 13.9415 31.1643 13.9779 31.007 13.9601C30.8498 13.9423 30.7033 13.8713 30.5919 13.7589L30.1797 13.3468C30.0699 13.2369 29.9394 13.1496 29.7959 13.0901C29.6523 13.0306 29.4984 13 29.343 13C29.1876 13 29.0337 13.0307 28.8901 13.0902C28.7466 13.1497 28.6161 13.237 28.5063 13.3469L28.1007 13.753C27.9883 13.8663 27.8404 13.9375 27.6817 13.9547C27.5231 13.9718 27.3634 13.934 27.2293 13.8473L26.3632 13.2926C26.1922 13.1823 25.9912 13.1279 25.7879 13.1368L25.7347 13.1391C25.5585 13.1463 25.3875 13.2006 25.2393 13.2962C25.0911 13.3918 24.9712 13.5254 24.892 13.683C24.8128 13.8406 24.7772 14.0165 24.7889 14.1924C24.8007 14.3684 24.8592 14.538 24.9586 14.6838L26.3223 16.6834C26.3818 16.7698 26.4226 16.8677 26.4419 16.9709C26.4612 17.074 26.4586 17.18 26.4344 17.2821C26.3933 17.4586 26.291 17.6149 26.1456 17.7231C24.749 18.7614 23.2913 20.967 22.755 22.8532C22.6054 23.3539 22.5256 23.873 22.5178 24.3955C22.5178 25.3201 22.7146 26.1755 23.102 26.9404C22.5963 26.9485 22.0943 27.0268 21.6102 27.1729L20.9364 27.3754C20.8336 27.1735 20.6732 27.0068 20.4755 26.8962C20.2777 26.7856 20.0517 26.7361 19.8258 26.7541L16.9941 26.9786L16.993 26.9786L13.3227 27.2817C13.2766 27.2855 13.2318 27.2983 13.1908 27.3194C13.1497 27.3405 13.1132 27.3695 13.0834 27.4048C13.0535 27.44 13.0309 27.4807 13.0168 27.5247C13.0027 27.5687 12.9974 27.615 13.0012 27.661C13.005 27.707 13.0178 27.7518 13.0389 27.7929C13.06 27.8339 13.089 27.8704 13.1243 27.9003C13.1595 27.9301 13.2002 27.9528 13.2442 27.9669C13.2882 27.981 13.3345 27.9863 13.3805 27.9825L16.7 27.7083L17.2536 34.5204L13.3238 34.832C13.2333 34.8392 13.1492 34.8812 13.0889 34.9491C13.0287 35.0169 12.997 35.1055 13.0006 35.1961C13.0041 35.2868 13.0426 35.3726 13.1079 35.4356C13.1733 35.4986 13.2605 35.5338 13.3512 35.534C13.3605 35.534 13.3699 35.5336 13.3793 35.5329L20.4922 34.969C20.7948 34.9446 21.0753 34.8011 21.2721 34.5701C21.469 34.339 21.5662 34.0393 21.5424 33.7367L21.5281 33.5618C21.6411 33.5602 21.7538 33.5716 21.8642 33.5958L28.0922 34.9683C28.5045 35.059 28.9313 35.0619 29.3448 34.9769C29.7583 34.8919 30.1493 34.7209 30.4924 34.4749L36.3918 30.2443C36.592 30.1018 36.7527 29.9106 36.8586 29.6889C36.9646 29.4671 37.0123 29.222 36.9973 28.9767ZM20.4365 34.2681L17.9546 34.4648L17.4008 27.6516L19.8815 27.455C19.9394 27.4505 19.9975 27.4574 20.0527 27.4753C20.1079 27.4933 20.159 27.522 20.2031 27.5597C20.2471 27.5974 20.2834 27.6435 20.3096 27.6952C20.3359 27.7469 20.3517 27.8033 20.3561 27.8612L20.4095 28.5132C20.4097 28.516 20.4098 28.5188 20.4102 28.5215L20.8416 33.7932C20.8507 33.9099 20.8131 34.0254 20.7372 34.1144C20.6613 34.2034 20.5531 34.2587 20.4365 34.2681ZM25.5396 14.2877C25.5108 14.2455 25.4939 14.1965 25.4905 14.1456C25.4872 14.0947 25.4975 14.0439 25.5205 13.9984C25.5434 13.9528 25.5781 13.9143 25.621 13.8867C25.6639 13.8591 25.7134 13.8435 25.7644 13.8416L25.8181 13.8392C25.8767 13.8367 25.9347 13.8525 25.9838 13.8845L26.8501 14.4395C27.1189 14.6133 27.4392 14.6893 27.7574 14.6549C28.0756 14.6205 28.3722 14.4777 28.5976 14.2505L29.0038 13.8439C29.0483 13.7993 29.1012 13.7639 29.1595 13.7397C29.2177 13.7156 29.2801 13.7031 29.3432 13.7032C29.4062 13.7032 29.4687 13.7156 29.5269 13.7398C29.5851 13.764 29.638 13.7994 29.6826 13.8441L30.0948 14.2562C30.3185 14.4817 30.6125 14.6241 30.9281 14.6598C31.2438 14.6954 31.5621 14.6222 31.8305 14.4523L32.7751 13.8598C32.8262 13.8274 32.8864 13.8122 32.9468 13.8165C32.997 13.8198 33.0454 13.8363 33.0872 13.8643C33.129 13.8923 33.1627 13.931 33.1847 13.9762C33.2068 14.0214 33.2165 14.0717 33.2128 14.1219C33.2092 14.1721 33.1923 14.2205 33.1639 14.262L31.7825 16.2874C31.6253 16.5169 31.5374 16.7866 31.5292 17.0646C30.7939 17.2507 30.0383 17.3449 29.2797 17.345H29.2767C28.5626 17.3446 27.8511 17.2609 27.1565 17.0955C27.1535 16.807 27.0654 16.5258 26.9031 16.2872L25.5396 14.2877ZM23.4313 23.0456C23.9304 21.2902 25.2777 19.2446 26.5653 18.2873C26.7453 18.1531 26.8921 17.9795 26.9947 17.7798C27.7422 17.9577 28.508 18.0477 29.2764 18.0481H29.2797C30.088 18.048 30.8932 17.9488 31.6773 17.7525C31.7802 17.9638 31.9323 18.1472 32.121 18.2873C33.6675 19.4378 35.4653 22.3566 35.4653 24.3955C35.4653 25.8756 34.8922 27.1435 33.8078 28.0671L29.4802 29.3838C29.3235 29.1785 29.117 29.0167 28.8802 28.9136L25.3843 27.3945C24.9231 27.1943 24.4365 27.0585 23.9382 26.9909C23.8749 26.891 23.8155 26.7886 23.7601 26.684C23.4023 26.0038 23.2209 25.2338 23.2209 24.3955C23.2288 23.938 23.2996 23.4838 23.4313 23.0456ZM35.9823 29.6727L30.0826 33.9036C29.8197 34.0919 29.5201 34.223 29.2033 34.2881C28.8865 34.3532 28.5595 34.351 28.2436 34.2816L22.0159 32.9093C21.8369 32.8701 21.6538 32.8536 21.4708 32.8604L21.11 28.4521V28.4518L21.0785 28.067L21.8127 27.8462C22.8983 27.52 24.0643 27.5884 25.1043 28.0395L28.6001 29.5586C28.7861 29.639 28.9353 29.7859 29.0187 29.9706C29.102 30.1552 29.1133 30.3644 29.0504 30.557C28.9876 30.7496 28.855 30.9118 28.6788 31.0117C28.5026 31.1117 28.2954 31.1423 28.0978 31.0974L26.1122 30.6495C26.0213 30.629 25.9259 30.6454 25.8471 30.6952C25.7682 30.7451 25.7124 30.8241 25.6919 30.9151C25.6714 31.0061 25.6879 31.1014 25.7377 31.1803C25.7875 31.2591 25.8666 31.3149 25.9575 31.3354L27.9426 31.7832C28.1871 31.8385 28.4415 31.8323 28.683 31.7651C28.9244 31.6979 29.1455 31.5719 29.3263 31.3983C29.5071 31.2247 29.642 31.0089 29.7189 30.7704C29.7959 30.5318 29.8124 30.2779 29.7671 30.0314L34.0825 28.7184C34.087 28.7171 34.0915 28.7156 34.0961 28.7141L35.3252 28.3402C35.496 28.2884 35.6795 28.299 35.8432 28.3699C36.007 28.4409 36.1401 28.5677 36.219 28.7277C36.298 28.8877 36.3175 29.0706 36.2741 29.2437C36.2308 29.4168 36.1274 29.5688 35.9823 29.6728L35.9823 29.6727ZM29.3432 27.7399C30.1371 27.7398 30.9132 27.5042 31.5732 27.063C32.2333 26.6218 32.7477 25.9947 33.0514 25.2612C33.3551 24.5276 33.4345 23.7205 33.2795 22.9418C33.1245 22.1632 32.7421 21.4479 32.1807 20.8866C31.6192 20.3252 30.9039 19.943 30.1252 19.7882C29.3465 19.6333 28.5394 19.7129 27.8059 20.0168C27.0724 20.3206 26.4455 20.8352 26.0044 21.4953C25.5633 22.1555 25.3279 22.9316 25.3279 23.7255C25.3292 24.7899 25.7527 25.8104 26.5055 26.563C27.2582 27.3156 28.2787 27.7388 29.3432 27.7399ZM29.3432 20.4143C29.9981 20.4144 30.6382 20.6088 31.1826 20.9727C31.7271 21.3367 32.1513 21.8539 32.4018 22.459C32.6523 23.0641 32.7178 23.7298 32.5899 24.3721C32.462 25.0144 32.1466 25.6043 31.6835 26.0673C31.2203 26.5303 30.6303 26.8456 29.988 26.9733C29.3457 27.101 28.6799 27.0354 28.0749 26.7847C27.4699 26.5341 26.9528 26.1096 26.589 25.5651C26.2252 25.0206 26.031 24.3804 26.031 23.7255C26.0321 22.8475 26.3815 22.0058 27.0024 21.385C27.6233 20.7642 28.4652 20.4151 29.3432 20.4143ZM27.977 23.1376C27.977 23.2308 28.014 23.3202 28.0799 23.3862C28.1459 23.4521 28.2353 23.4891 28.3285 23.4891H29.3654C29.3013 23.6108 29.2052 23.7127 29.0875 23.7838C28.9698 23.8549 28.8349 23.8925 28.6974 23.8926H28.3285C28.2597 23.8926 28.1924 23.9128 28.1349 23.9508C28.0775 23.9887 28.0324 24.0426 28.0053 24.1059C27.9783 24.1692 27.9704 24.2391 27.9826 24.3068C27.9949 24.3746 28.0268 24.4372 28.0743 24.487L29.5502 26.0318C29.615 26.0975 29.703 26.1351 29.7953 26.1365C29.8875 26.1378 29.9766 26.1029 30.0434 26.0392C30.1101 25.9754 30.1491 25.888 30.1519 25.7958C30.1547 25.7035 30.1212 25.6139 30.0585 25.5462L29.0974 24.54C29.3438 24.4691 29.5674 24.3348 29.7455 24.1503C29.9237 23.9659 30.0503 23.7379 30.1127 23.4891H30.3578C30.4511 23.4891 30.5405 23.4521 30.6064 23.3862C30.6723 23.3202 30.7094 23.2308 30.7094 23.1376C30.7094 23.0443 30.6723 22.9549 30.6064 22.889C30.5405 22.823 30.4511 22.786 30.3578 22.786H30.1128C30.0775 22.6438 30.0209 22.5077 29.9448 22.3825H30.3578C30.451 22.3825 30.5404 22.3455 30.6064 22.2795C30.6723 22.2136 30.7093 22.1242 30.7093 22.031C30.7093 21.9377 30.6723 21.8483 30.6064 21.7824C30.5404 21.7164 30.451 21.6794 30.3578 21.6794H28.3285C28.2353 21.6794 28.1459 21.7164 28.0799 21.7824C28.014 21.8483 27.977 21.9377 27.977 22.031C27.977 22.1242 28.014 22.2136 28.0799 22.2795C28.1459 22.3455 28.2353 22.3825 28.3285 22.3825H28.6974C28.8349 22.3826 28.9698 22.4203 29.0875 22.4914C29.2052 22.5625 29.3013 22.6643 29.3654 22.786H28.3285C28.2353 22.786 28.1459 22.823 28.0799 22.889C28.014 22.9549 27.977 23.0443 27.977 23.1376Z" fill="#027A48"/>
</svg>
