<svg width="49" height="48" viewBox="0 0 49 48" fill="none" xmlns="http://www.w3.org/2000/svg">
<circle cx="24.5" cy="24" r="24" fill="#ECFDF3"/>
<g clip-path="url(#clip0_8268_6594)">
<path d="M17 22.5C16.17 22.5 15.5 23.17 15.5 24C15.5 24.83 16.17 25.5 17 25.5C17.83 25.5 18.5 24.83 18.5 24C18.5 23.17 17.83 22.5 17 22.5ZM17 16.5C16.17 16.5 15.5 17.17 15.5 18C15.5 18.83 16.17 19.5 17 19.5C17.83 19.5 18.5 18.83 18.5 18C18.5 17.17 17.83 16.5 17 16.5ZM17 28.5C16.17 28.5 15.5 29.18 15.5 30C15.5 30.82 16.18 31.5 17 31.5C17.82 31.5 18.5 30.82 18.5 30C18.5 29.18 17.83 28.5 17 28.5ZM21 31H33C33.55 31 34 30.55 34 30C34 29.45 33.55 29 33 29H21C20.45 29 20 29.45 20 30C20 30.55 20.45 31 21 31ZM21 25H33C33.55 25 34 24.55 34 24C34 23.45 33.55 23 33 23H21C20.45 23 20 23.45 20 24C20 24.55 20.45 25 21 25ZM20 18C20 18.55 20.45 19 21 19H33C33.55 19 34 18.55 34 18C34 17.45 33.55 17 33 17H21C20.45 17 20 17.45 20 18Z" fill="#027A48"/>
</g>
<defs>
<clipPath id="clip0_8268_6594">
<rect width="24" height="24" fill="white" transform="translate(13 12)"/>
</clipPath>
</defs>
</svg>
