<svg width="49" height="48" viewBox="0 0 49 48" fill="none" xmlns="http://www.w3.org/2000/svg">
<circle cx="24.5" cy="24" r="24" fill="#ECFDF3"/>
<g clip-path="url(#clip0_8268_6577)">
<g clip-path="url(#clip1_8268_6577)">
<path d="M27.375 19.5V19.875C27.375 19.9745 27.4145 20.0698 27.4848 20.1402C27.5552 20.2105 27.6505 20.25 27.75 20.25C27.8495 20.25 27.9448 20.2105 28.0152 20.1402C28.0855 20.0698 28.125 19.9745 28.125 19.875V19.5C28.4183 19.4999 28.7051 19.4139 28.95 19.2525C29.1602 19.1112 29.3328 18.9207 29.4525 18.6975C29.5673 18.4831 29.6266 18.2433 29.625 18C29.6238 17.6025 29.4654 17.2217 29.1843 16.9407C28.9033 16.6596 28.5225 16.5012 28.125 16.5H27.375C27.1761 16.5 26.9853 16.421 26.8447 16.2803C26.704 16.1397 26.625 15.9489 26.625 15.75C26.625 15.5511 26.704 15.3603 26.8447 15.2197C26.9853 15.079 27.1761 15 27.375 15H28.125C28.3239 15 28.5147 15.079 28.6553 15.2197C28.796 15.3603 28.875 15.5511 28.875 15.75C28.875 15.8495 28.9145 15.9448 28.9848 16.0152C29.0552 16.0855 29.1505 16.125 29.25 16.125C29.3495 16.125 29.4448 16.0855 29.5152 16.0152C29.5855 15.9448 29.625 15.8495 29.625 15.75C29.6238 15.3525 29.4654 14.9717 29.1843 14.6907C28.9033 14.4096 28.5225 14.2512 28.125 14.25V13.875C28.125 13.7755 28.0855 13.6802 28.0152 13.6098C27.9448 13.5395 27.8495 13.5 27.75 13.5C27.6505 13.5 27.5552 13.5395 27.4848 13.6098C27.4145 13.6802 27.375 13.7755 27.375 13.875V14.25C26.9772 14.25 26.5956 14.408 26.3143 14.6893C26.033 14.9706 25.875 15.3522 25.875 15.75C25.875 16.1478 26.033 16.5294 26.3143 16.8107C26.5956 17.092 26.9772 17.25 27.375 17.25H28.125C28.3239 17.25 28.5147 17.329 28.6553 17.4697C28.796 17.6103 28.875 17.8011 28.875 18C28.8759 18.1039 28.8528 18.2065 28.8075 18.3C28.7502 18.4335 28.655 18.5473 28.5337 18.6273C28.4124 18.7072 28.2703 18.7499 28.125 18.75H27.375C27.2075 18.7499 27.0449 18.6937 26.913 18.5904C26.7812 18.4871 26.6877 18.3426 26.6475 18.18C26.6326 18.1212 26.6251 18.0607 26.625 18C26.628 17.9005 26.5913 17.804 26.5231 17.7315C26.4549 17.6591 26.3607 17.6167 26.2612 17.6137C26.1618 17.6108 26.0652 17.6474 25.9928 17.7156C25.9204 17.7838 25.878 17.878 25.875 17.9775V18C25.8762 18.3975 26.0346 18.7783 26.3157 19.0593C26.5967 19.3404 26.9775 19.4988 27.375 19.5ZM35.625 23.25C35.5255 23.25 35.4302 23.2895 35.3598 23.3598C35.2895 23.4302 35.25 23.5255 35.25 23.625C35.25 24.1223 35.0525 24.5992 34.7008 24.9508C34.3492 25.3025 33.8723 25.5 33.375 25.5C33.3435 25.5 33.309 25.4895 33.2775 25.488C33.2834 25.4347 33.2859 25.3811 33.285 25.3275C33.2669 23.4394 32.5448 21.6261 31.26 20.2425C32.1373 19.3414 32.6273 18.1327 32.625 16.875C32.625 15.5821 32.1114 14.3421 31.1971 13.4279C30.2829 12.5136 29.0429 12 27.75 12C26.4571 12 25.2171 12.5136 24.3029 13.4279C23.3886 14.3421 22.875 15.5821 22.875 16.875C22.8738 16.9077 22.8763 16.9404 22.8825 16.9725C21.7029 17.0248 20.5399 17.2705 19.44 17.7L17.07 16.2525C17.0137 16.2184 16.9493 16.1998 16.8835 16.1985C16.8177 16.1972 16.7527 16.2132 16.695 16.245C16.6363 16.2779 16.5873 16.3258 16.5531 16.3838C16.5188 16.4417 16.5005 16.5077 16.5 16.575V19.4475C15.1144 20.6176 14.1655 22.2221 13.8075 24H13.125C12.8266 24 12.5405 24.1185 12.3295 24.3295C12.1185 24.5405 12 24.8266 12 25.125V27.375C12 27.6734 12.1185 27.9595 12.3295 28.1705C12.5405 28.3815 12.8266 28.5 13.125 28.5H14.415C15.0637 29.8193 16.0398 30.9503 17.25 31.785V34.875C17.25 35.1734 17.3685 35.4595 17.5795 35.6705C17.7905 35.8815 18.0766 36 18.375 36H20.625C20.9234 36 21.2095 35.8815 21.4205 35.6705C21.6315 35.4595 21.75 35.1734 21.75 34.875V33.57C22.9939 33.7664 24.2621 33.7486 25.5 33.5175V34.875C25.5 35.1734 25.6185 35.4595 25.8295 35.6705C26.0405 35.8815 26.3266 36 26.625 36H28.875C29.1734 36 29.4595 35.8815 29.6705 35.6705C29.8815 35.4595 30 35.1734 30 34.875V31.575C30.8646 30.9448 31.5951 30.1486 32.1488 29.2331C32.7025 28.3176 33.0684 27.3009 33.225 26.2425V26.232C33.2738 26.232 33.3248 26.25 33.375 26.25C33.7197 26.25 34.0611 26.1821 34.3795 26.0502C34.698 25.9183 34.9874 25.7249 35.2312 25.4812C35.4749 25.2374 35.6683 24.948 35.8002 24.6295C35.9321 24.3111 36 23.9697 36 23.625C36 23.5255 35.9605 23.4302 35.8902 23.3598C35.8198 23.2895 35.7245 23.25 35.625 23.25ZM27.75 12.75C28.5568 12.7485 29.3463 12.984 30.0203 13.4275C30.6944 13.8709 31.2233 14.5026 31.5413 15.2441C31.8593 15.9856 31.9524 16.8042 31.8091 17.5982C31.6657 18.3922 31.2922 19.1265 30.735 19.71C30.568 19.8919 30.3819 20.0554 30.18 20.1975C29.4785 20.7214 28.6256 21.0031 27.75 21C26.7999 20.9971 25.8796 20.6676 25.1436 20.0668C24.4076 19.4659 23.9005 18.6303 23.7075 17.7C23.6558 17.4534 23.6307 17.202 23.6325 16.95C23.6263 16.9255 23.6238 16.9002 23.625 16.875C23.627 15.7816 24.0622 14.7335 24.8354 13.9604C25.6085 13.1872 26.6566 12.752 27.75 12.75ZM32.52 25.725C32.5138 25.7546 32.5113 25.7848 32.5125 25.815C32.4087 26.8655 32.0771 27.8808 31.5409 28.7901C31.0046 29.6994 30.2766 30.4808 29.4075 31.08C29.3594 31.1158 29.3202 31.1621 29.2929 31.2154C29.2656 31.2687 29.2509 31.3276 29.25 31.3875V34.875C29.25 34.9745 29.2105 35.0698 29.1402 35.1402C29.0698 35.2105 28.9745 35.25 28.875 35.25H26.625C26.5255 35.25 26.4302 35.2105 26.3598 35.1402C26.2895 35.0698 26.25 34.9745 26.25 34.875V33.06C26.2509 33.0035 26.2385 32.9475 26.2138 32.8967C26.189 32.8459 26.1526 32.8016 26.1075 32.7675C26.043 32.712 25.9601 32.6825 25.875 32.685C25.8473 32.6838 25.8195 32.6863 25.7925 32.6925C24.3626 33.016 22.8808 33.0364 21.4425 32.7525C21.3883 32.742 21.3325 32.7439 21.2792 32.7582C21.2259 32.7725 21.1766 32.7988 21.135 32.835C21.0932 32.8699 21.0594 32.9134 21.0361 32.9626C21.0128 33.0118 21.0005 33.0655 21 33.12V34.875C21 34.9745 20.9605 35.0698 20.8902 35.1402C20.8198 35.2105 20.7245 35.25 20.625 35.25H18.375C18.2755 35.25 18.1802 35.2105 18.1098 35.1402C18.0395 35.0698 18 34.9745 18 34.875V31.59C18.0001 31.5291 17.985 31.4691 17.9562 31.4155C17.9274 31.3618 17.8858 31.3161 17.835 31.2825C16.5978 30.4685 15.6152 29.3221 15 27.975C14.9703 27.9082 14.922 27.8514 14.8608 27.8115C14.7995 27.7716 14.7281 27.7502 14.655 27.75H13.125C13.0255 27.75 12.9302 27.7105 12.8598 27.6402C12.7895 27.5698 12.75 27.4745 12.75 27.375V25.125C12.75 25.0255 12.7895 24.9302 12.8598 24.8598C12.9302 24.7895 13.0255 24.75 13.125 24.75H14.1225C14.2133 24.7501 14.3011 24.7176 14.3699 24.6584C14.4387 24.5992 14.484 24.5173 14.4975 24.4275C14.7818 22.6486 15.7141 21.0377 17.115 19.905C17.1571 19.8704 17.191 19.8268 17.2143 19.7776C17.2377 19.7283 17.2498 19.6745 17.25 19.62V17.2425L19.2075 18.435C19.2569 18.4674 19.3136 18.4872 19.3725 18.4924C19.4314 18.4976 19.4906 18.4882 19.545 18.465C20.6283 18.0206 21.7803 17.7669 22.95 17.715C23.1489 18.8442 23.7388 19.8673 24.6165 20.6051C25.4941 21.3429 26.6035 21.7482 27.75 21.75C28.8205 21.7522 29.8608 21.3957 30.705 20.7375C31.8661 21.9857 32.5188 23.6228 32.535 25.3275C32.535 25.4625 32.5275 25.59 32.52 25.725ZM17.25 23.25C17.1017 23.25 16.9567 23.294 16.8333 23.3764C16.71 23.4588 16.6139 23.5759 16.5571 23.713C16.5003 23.85 16.4855 24.0008 16.5144 24.1463C16.5433 24.2918 16.6148 24.4254 16.7197 24.5303C16.8246 24.6352 16.9582 24.7066 17.1037 24.7356C17.2492 24.7645 17.4 24.7497 17.537 24.6929C17.6741 24.6361 17.7912 24.54 17.8736 24.4167C17.956 24.2933 18 24.1483 18 24C18 23.8011 17.921 23.6103 17.7803 23.4697C17.6397 23.329 17.4489 23.25 17.25 23.25Z" fill="#027A48"/>
</g>
</g>
<defs>
<clipPath id="clip0_8268_6577">
<rect width="24" height="24" fill="white" transform="translate(12 12)"/>
</clipPath>
<clipPath id="clip1_8268_6577">
<rect width="24" height="24" fill="white" transform="translate(12 12)"/>
</clipPath>
</defs>
</svg>
