<svg width="49" height="48" viewBox="0 0 49 48" fill="none" xmlns="http://www.w3.org/2000/svg">
<circle cx="24.5" cy="24" r="24" fill="white"/>
<g clip-path="url(#clip0_8268_6564)">
<path d="M35.125 13.875H14.875C14.2546 13.875 13.75 14.3796 13.75 15V29.25C13.75 29.8704 14.2546 30.375 14.875 30.375H20.9243L19.9243 31.875H19.375C18.7546 31.875 18.25 32.3796 18.25 33C18.25 33.6204 18.7546 34.125 19.375 34.125H30.625C31.2454 34.125 31.75 33.6204 31.75 33C31.75 32.3796 31.2454 31.875 30.625 31.875H30.0757L29.0757 30.375H35.125C35.7454 30.375 36.25 29.8704 36.25 29.25V15C36.25 14.3796 35.7454 13.875 35.125 13.875ZM14.875 14.625H35.125C35.3317 14.625 35.5 14.7933 35.5 15V26.625H14.5V15C14.5 14.7933 14.6683 14.625 14.875 14.625ZM31 33C31 33.2067 30.8317 33.375 30.625 33.375H19.375C19.1683 33.375 19 33.2067 19 33C19 32.7933 19.1683 32.625 19.375 32.625H20.125H29.875H30.625C30.8317 32.625 31 32.7933 31 33ZM29.1742 31.875H20.8258L21.8257 30.375H28.1743L29.1742 31.875ZM35.125 29.625H28.375H21.625H14.875C14.6683 29.625 14.5 29.4567 14.5 29.25V27.375H35.5V29.25C35.5 29.4567 35.3317 29.625 35.125 29.625Z" fill="#027A48"/>
<path d="M24.625 28.6875V28.3125C24.625 28.209 24.709 28.125 24.8125 28.125H25.1875C25.291 28.125 25.375 28.209 25.375 28.3125V28.6875C25.375 28.791 25.291 28.875 25.1875 28.875H24.8125C24.709 28.875 24.625 28.791 24.625 28.6875ZM26.875 18.7721V17.25C26.875 16.799 26.5461 15.75 23.5 15.75C20.4539 15.75 20.125 16.799 20.125 17.25V24C20.125 24.451 20.4539 25.5 23.5 25.5C24.2373 25.5 24.8678 25.4334 25.3869 25.3074C25.736 25.4299 26.1095 25.5 26.5 25.5C28.3611 25.5 29.875 23.9859 29.875 22.125C29.875 20.391 28.5601 18.9594 26.875 18.7721ZM23.5 16.5C25.4259 16.5 26.125 16.9486 26.125 17.25C26.125 17.5514 25.4259 18 23.5 18C21.5741 18 20.875 17.5514 20.875 17.25C20.875 16.9486 21.5741 16.5 23.5 16.5ZM20.875 18.2916C21.3686 18.5522 22.1778 18.75 23.5 18.75C24.8222 18.75 25.6314 18.5522 26.125 18.2916V18.7721C25.1152 18.8844 24.2384 19.4428 23.6979 20.2464C23.632 20.2477 23.569 20.25 23.5 20.25C21.5741 20.25 20.875 19.8014 20.875 19.5V18.2916ZM20.875 20.5416C21.3454 20.7899 22.109 20.9787 23.3233 20.9961C23.1973 21.3497 23.125 21.7287 23.125 22.125C23.125 22.25 23.133 22.3731 23.1463 22.4946C21.488 22.4432 20.875 22.0321 20.875 21.75V20.5416ZM23.5 24.75C21.5741 24.75 20.875 24.3014 20.875 24V22.7916C21.345 23.0397 22.1079 23.2283 23.3205 23.2461C23.5244 23.8227 23.878 24.3288 24.3383 24.7138C24.0782 24.7361 23.8019 24.75 23.5 24.75ZM26.5 24.75C25.0527 24.75 23.875 23.5725 23.875 22.125C23.875 20.6775 25.0527 19.5 26.5 19.5C27.9473 19.5 29.125 20.6775 29.125 22.125C29.125 23.5725 27.9473 24.75 26.5 24.75Z" fill="#027A48"/>
<path d="M27.4924 20.8674L27.7576 21.1326C27.8308 21.2058 27.8308 21.3245 27.7576 21.3977L27.0303 22.125L27.7576 22.8523C27.8308 22.9255 27.8308 23.0442 27.7576 23.1174L27.4924 23.3826C27.4192 23.4558 27.3005 23.4558 27.2273 23.3826L26.5 22.6553L25.7727 23.3826C25.6995 23.4558 25.5808 23.4558 25.5076 23.3826L25.2424 23.1174C25.1692 23.0442 25.1692 22.9255 25.2424 22.8523L25.9697 22.125L25.2424 21.3977C25.1692 21.3245 25.1692 21.2058 25.2424 21.1326L25.5076 20.8674C25.5808 20.7942 25.6995 20.7942 25.7727 20.8674L26.5 21.5947L27.2273 20.8674C27.3005 20.7942 27.4192 20.7942 27.4924 20.8674Z" fill="#027A48"/>
</g>
<defs>
<clipPath id="clip0_8268_6564">
<rect width="24" height="24" fill="white" transform="translate(13 12)"/>
</clipPath>
</defs>
</svg>
