<svg width="36" height="36" viewBox="0 0 36 36" fill="none" xmlns="http://www.w3.org/2000/svg">
<rect width="36" height="36" rx="18" fill="#F6FEF9"/>
<path d="M14.7512 15.3652C14.4259 15.0395 14.2432 14.598 14.2432 14.1377C14.2432 13.6773 14.4259 13.2358 14.7512 12.9102" stroke="#027A48"/>
<path d="M26.0079 21.7101C22.0959 26.3101 12.9849 25.1851 9.30294 22.7301C7.87794 21.7801 8.94894 17.9531 9.95794 15.2101C10.4718 13.8047 11.2212 12.497 12.1739 11.3431C12.4048 11.0647 12.6942 10.8408 13.0216 10.6873C13.349 10.5338 13.7063 10.4545 14.0679 10.4551H16.5929C17.244 10.4551 17.8685 10.7137 18.3289 11.1741C18.7893 11.6345 19.0479 12.259 19.0479 12.9101C19.0479 13.5612 18.7893 14.1856 18.3289 14.646C17.8685 15.1064 17.244 15.3651 16.5929 15.3651H14.7499C14.297 15.8573 13.9534 16.44 13.742 17.0746C13.5305 17.7093 13.4558 18.3815 13.5229 19.0471C14.9799 17.5321 16.8849 16.7971 19.0469 19.0471C19.0458 18.3995 19.2023 17.7613 19.503 17.1877C19.8037 16.6141 20.2394 16.1223 20.7727 15.7548C21.3059 15.3873 21.9206 15.1551 22.5637 15.0783C23.2068 15.0014 23.8588 15.0823 24.4637 15.3139C25.0685 15.5455 25.6078 15.9208 26.0351 16.4074C26.4624 16.8941 26.7649 17.4774 26.9163 18.1071C27.0678 18.7368 27.0636 19.3938 26.9043 20.0216C26.745 20.6493 26.4353 21.2288 26.0019 21.7101H26.0079Z" stroke="#027A48"/>
<path d="M23.3442 17.8198V20.2748M22.1162 19.0468H24.5712" stroke="#027A48"/>
</svg>
