<svg width="36" height="36" viewBox="0 0 36 36" fill="none" xmlns="http://www.w3.org/2000/svg">
<rect width="36" height="36" rx="18" fill="#F6FEF9"/>
<g clip-path="url(#clip0_8117_79706)">
<path d="M24.5713 17.8198V15.3648C24.5713 13.5743 23.8601 11.8571 22.594 10.5911C21.328 9.32503 19.6108 8.61377 17.8203 8.61377C16.0299 8.61377 14.3127 9.32503 13.0467 10.5911C11.7806 11.8571 11.0693 13.5743 11.0693 15.3648V17.8198" stroke="#027A48"/>
<path d="M27.0261 20.2748C27.0263 19.8645 26.9236 19.4607 26.7274 19.1003C26.5313 18.7399 26.2479 18.4344 25.9033 18.2117C25.5586 17.9891 25.1636 17.8564 24.7545 17.8257C24.3453 17.7951 23.935 17.8675 23.561 18.0363C23.187 18.2051 22.8613 18.465 22.6137 18.7922C22.366 19.1193 22.2043 19.5034 22.1434 19.9091C22.0824 20.3149 22.1241 20.7295 22.2647 21.115C22.4053 21.5005 22.6402 21.8446 22.9481 22.1158H12.6911C13.0806 21.772 13.351 21.3134 13.4633 20.8061C13.5756 20.2988 13.5241 19.7689 13.3161 19.2928C13.1081 18.8166 12.7544 18.4187 12.306 18.1564C11.8575 17.894 11.3373 17.7807 10.8204 17.8328C10.3034 17.8848 9.81626 18.0996 9.42909 18.4461C9.04193 18.7926 8.77468 19.253 8.66582 19.7611C8.55696 20.2691 8.61209 20.7986 8.82329 21.2733C9.03449 21.748 9.39086 22.1435 9.84111 22.4028V24.5708C9.84111 25.2488 10.3911 25.7988 11.0691 25.7988H24.5701C25.2481 25.7988 25.7981 25.2488 25.7981 24.5708V22.4028C26.1715 22.1871 26.4815 21.8769 26.6969 21.5033C26.9123 21.1298 27.0265 20.706 27.0261 20.2748Z" stroke="#027A48"/>
<path d="M11.0693 25.7992V27.0262M24.5713 25.7992V27.0262M16.5923 14.1382L19.0473 16.5932M19.0473 14.1382L16.5923 16.5932" stroke="#027A48"/>
</g>
<defs>
<clipPath id="clip0_8117_79706">
<rect width="20" height="20" fill="white" transform="translate(8 8)"/>
</clipPath>
</defs>
</svg>
