<svg width="36" height="36" viewBox="0 0 36 36" fill="none" xmlns="http://www.w3.org/2000/svg">
<rect width="36" height="36" rx="18" fill="#F6FEF9"/>
<path d="M26.5361 12.384C26.2021 11.7311 25.7189 11.166 25.1256 10.7348C24.5323 10.3036 23.8457 10.0184 23.1215 9.90228C22.3973 9.78616 21.656 9.84244 20.9576 10.0665C20.2592 10.2906 19.6236 10.6762 19.1021 11.192L17.8201 12.36L16.5401 11.19C16.0185 10.6741 15.3826 10.2885 14.684 10.0645C13.9854 9.84055 13.2438 9.78449 12.5194 9.90091C11.7951 10.0173 11.1084 10.303 10.5151 10.7346C9.9219 11.1662 9.43882 11.7317 9.10514 12.385C8.66949 13.2479 8.519 14.2269 8.67535 15.1808C8.8317 16.1347 9.28682 17.0144 9.97514 17.693L17.8211 25.798L25.6671 17.691C26.3553 17.0123 26.8104 16.1326 26.9667 15.1787C27.123 14.2249 26.9726 13.246 26.5371 12.383L26.5361 12.384Z" stroke="#027A48"/>
<path d="M12.2959 16.5932H14.5619C14.6779 16.5932 14.7839 16.6582 14.8359 16.7622L16.2869 19.6642C16.3133 19.7172 16.3545 19.7615 16.4055 19.7917C16.4565 19.8218 16.5151 19.8366 16.5744 19.8341C16.6336 19.8317 16.6908 19.8122 16.7392 19.778C16.7875 19.7437 16.8249 19.6962 16.8469 19.6412L18.7939 14.7712C18.8161 14.7165 18.8536 14.6693 18.9019 14.6354C18.9502 14.6014 19.0073 14.5821 19.0663 14.5798C19.1253 14.5775 19.1837 14.5922 19.2345 14.6223C19.2854 14.6523 19.3265 14.6964 19.3529 14.7492L20.1929 16.4232C20.2459 16.5272 20.3519 16.5932 20.4679 16.5932H23.3439" stroke="#027A48"/>
</svg>
