<svg width="36" height="36" viewBox="0 0 36 36" fill="none" xmlns="http://www.w3.org/2000/svg">
<rect width="36" height="36" rx="18" fill="#F6FEF9"/>
<path d="M8.61426 19.3198C8.61426 18.922 8.77229 18.5405 9.0536 18.2592C9.3349 17.9779 9.71643 17.8198 10.1143 17.8198H20.6163C21.0141 17.8198 21.3956 17.9779 21.6769 18.2592C21.9582 18.5405 22.1163 18.922 22.1163 19.3198V24.9128C22.1163 25.3106 21.9582 25.6922 21.6769 25.9735C21.3956 26.2548 21.0141 26.4128 20.6163 26.4128H10.1143C9.71643 26.4128 9.3349 26.2548 9.0536 25.9735C8.77229 25.6922 8.61426 25.3106 8.61426 24.9128V19.3198ZM22.1163 24.2298L26.1973 25.7598C26.2902 25.7947 26.3902 25.8066 26.4887 25.7944C26.5872 25.7822 26.6813 25.7463 26.7629 25.6898C26.8445 25.6333 26.9112 25.5578 26.9572 25.4698C27.0033 25.3819 27.0273 25.2841 27.0273 25.1848V19.5908C27.0272 19.4916 27.0031 19.394 26.957 19.3061C26.9109 19.2183 26.8441 19.143 26.7625 19.0867C26.6809 19.0303 26.5868 18.9946 26.4884 18.9826C26.3899 18.9706 26.29 18.9827 26.1973 19.0178L22.1173 20.5478V24.2288L22.1163 24.2298Z" stroke="#027A48"/>
<path d="M11.6826 20.2749H18.4326" stroke="#027A48"/>
<path d="M11.6825 15.365C12.0902 15.3724 12.4952 15.2985 12.8739 15.1476C13.2526 14.9967 13.5975 14.7718 13.8884 14.4861C14.1793 14.2005 14.4103 13.8597 14.568 13.4838C14.7257 13.1078 14.8069 12.7042 14.8069 12.2965C14.8069 11.8889 14.7257 11.4852 14.568 11.1093C14.4103 10.7334 14.1793 10.3926 13.8884 10.1069C13.5975 9.82126 13.2526 9.59642 12.8739 9.44551C12.4952 9.29461 12.0902 9.22068 11.6825 9.22804C10.8783 9.24256 10.1119 9.57223 9.54834 10.1461C8.98473 10.72 8.66895 11.4922 8.66895 12.2965C8.66895 13.1009 8.98473 13.8731 9.54834 14.447C10.1119 15.0209 10.8783 15.3505 11.6825 15.365ZM19.6605 15.365C20.3117 15.365 20.9361 15.1064 21.3965 14.646C21.8569 14.1856 22.1155 13.5611 22.1155 12.91C22.1155 12.2589 21.8569 11.6345 21.3965 11.1741C20.9361 10.7137 20.3117 10.455 19.6605 10.455C19.0094 10.455 18.385 10.7137 17.9246 11.1741C17.4642 11.6345 17.2055 12.2589 17.2055 12.91C17.2055 13.5611 17.4642 14.1856 17.9246 14.646C18.385 15.1064 19.0094 15.365 19.6605 15.365Z" stroke="#027A48"/>
</svg>
