<svg width="36" height="36" viewBox="0 0 36 36" fill="none" xmlns="http://www.w3.org/2000/svg">
<rect width="36" height="36" rx="18" fill="#F6FEF9"/>
<path d="M12.9102 23.6498H21.0282C21.6282 23.6498 22.1382 23.2188 22.2382 22.6288L24.3972 9.94383C24.4972 9.35383 25.0092 8.92283 25.6072 8.92383H26.4122M14.4442 25.4918C14.5256 25.4918 14.6037 25.5242 14.6612 25.5817C14.7188 25.6393 14.7512 25.7174 14.7512 25.7988C14.7512 25.8803 14.7188 25.9583 14.6612 26.0159C14.6037 26.0735 14.5256 26.1058 14.4442 26.1058C14.3627 26.1058 14.2846 26.0735 14.2271 26.0159C14.1695 25.9583 14.1372 25.8803 14.1372 25.7988C14.1372 25.7174 14.1695 25.6393 14.2271 25.5817C14.2846 25.5242 14.3627 25.4918 14.4442 25.4918ZM20.5822 25.4918C20.6636 25.4918 20.7417 25.5242 20.7992 25.5817C20.8568 25.6393 20.8892 25.7174 20.8892 25.7988C20.8892 25.8803 20.8568 25.9583 20.7992 26.0159C20.7417 26.0735 20.6636 26.1058 20.5822 26.1058C20.5007 26.1058 20.4226 26.0735 20.3651 26.0159C20.3075 25.9583 20.2752 25.8803 20.2752 25.7988C20.2752 25.7174 20.3075 25.6393 20.3651 25.5817C20.4226 25.5242 20.5007 25.4918 20.5822 25.4918Z" stroke="#027A48"/>
<path d="M22.6909 19.9681H12.8129C12.2655 19.9679 11.7338 19.7847 11.3024 19.4477C10.871 19.1107 10.5646 18.6392 10.4319 18.1081L9.24492 13.3641C9.22226 13.2735 9.22056 13.179 9.23992 13.0877C9.25929 12.9964 9.29922 12.9107 9.35669 12.8371C9.41415 12.7635 9.48763 12.7041 9.57153 12.6632C9.65544 12.6223 9.74757 12.601 9.84092 12.6011H23.9439" stroke="#027A48"/>
</svg>
