<svg width="36" height="36" viewBox="0 0 36 36" fill="none" xmlns="http://www.w3.org/2000/svg">
<rect width="36" height="36" rx="18" fill="#F6FEF9"/>
<path d="M14.1372 17.8199C14.5854 17.8276 15.0306 17.746 15.4469 17.5798C15.8632 17.4136 16.2422 17.1662 16.5619 16.852C16.8816 16.5378 17.1355 16.1631 17.3088 15.7497C17.4821 15.3363 17.5713 14.8926 17.5713 14.4444C17.5713 13.9961 17.4821 13.5524 17.3088 13.139C17.1355 12.7256 16.8816 12.3509 16.5619 12.0367C16.2422 11.7225 15.8632 11.4751 15.4469 11.3089C15.0306 11.1428 14.5854 11.0611 14.1372 11.0689C13.2521 11.0841 12.4083 11.4464 11.7877 12.0778C11.1671 12.7092 10.8193 13.5591 10.8193 14.4444C10.8193 15.3297 11.1671 16.1796 11.7877 16.8109C12.4083 17.4423 13.2521 17.8046 14.1372 17.8199Z" stroke="#027A48"/>
<path d="M8.61426 24.5712C8.6338 23.1192 9.22433 21.7332 10.2581 20.7133C11.2918 19.6934 12.6856 19.1215 14.1378 19.1215C15.5899 19.1215 16.9837 19.6934 18.0174 20.7133C19.0512 21.7332 19.6417 23.1192 19.6613 24.5712M19.6623 11.6142C20.172 11.2829 20.7618 11.0954 21.3693 11.0715C21.9768 11.0475 22.5795 11.1881 23.1137 11.4784C23.6479 11.7686 24.0938 12.1977 24.4044 12.7204C24.715 13.243 24.8786 13.8399 24.8781 14.4478C24.8775 15.0558 24.7128 15.6523 24.4014 16.1745C24.0899 16.6966 23.6432 17.1249 23.1084 17.4142C22.5737 17.7035 21.9708 17.843 21.3633 17.818C20.7559 17.793 20.1664 17.6044 19.6573 17.2722M20.2753 19.1842C21.0842 19.0011 21.9239 19.0023 22.7324 19.1877C23.5408 19.3731 24.2971 19.7379 24.9454 20.2552C25.5937 20.7725 26.1174 21.4291 26.4776 22.1762C26.8378 22.9233 27.0253 23.7418 27.0263 24.5712" stroke="#027A48"/>
</svg>
