<svg width="49" height="48" viewBox="0 0 49 48" fill="none" xmlns="http://www.w3.org/2000/svg">
<circle cx="24.5" cy="24" r="24" fill="#ECFDF3"/>
<g clip-path="url(#clip0_8268_6961)">
<path fill-rule="evenodd" clip-rule="evenodd" d="M33.6363 24.748C33.6392 23.5359 33.4032 22.335 32.9418 21.2141C32.4804 20.0932 31.8026 19.0742 30.9473 18.2154C30.0919 17.3565 29.0757 16.6746 27.9567 16.2086C26.8377 15.7426 25.6379 15.5017 24.4257 15.4996C23.3155 15.4985 22.2133 15.6888 21.1677 16.0622C21.0885 16.09 21.0156 16.1333 20.9533 16.1896C20.891 16.2459 20.8405 16.314 20.8048 16.39C20.7691 16.466 20.7488 16.5483 20.7452 16.6322C20.7416 16.7161 20.7547 16.7998 20.7838 16.8786C20.8129 16.9574 20.8574 17.0296 20.9146 17.091C20.9719 17.1524 21.0408 17.2018 21.1173 17.2363C21.1939 17.2708 21.2765 17.2898 21.3604 17.2921C21.4444 17.2944 21.5279 17.2799 21.6062 17.2496C22.5118 16.9277 23.4647 16.7591 24.4257 16.7509C28.8241 16.7809 32.376 20.3509 32.3831 24.7496C32.3786 26.0374 32.0629 27.3051 31.4627 28.4445C30.8625 29.584 29.9958 30.5615 28.9363 31.2937C27.8769 32.0258 26.6561 32.491 25.378 32.6496C24.1 32.8081 22.8025 32.6553 21.5963 32.2042C20.39 31.753 19.3107 31.017 18.4504 30.0587C17.59 29.1004 16.974 27.9483 16.655 26.7006C16.336 25.4529 16.3233 24.1465 16.6182 22.8929C16.913 21.6392 17.5065 20.4754 18.3482 19.5007C18.4033 19.44 18.4455 19.3687 18.4723 19.2913C18.4991 19.2138 18.5099 19.1317 18.5041 19.0499C18.4982 18.9682 18.4759 18.8884 18.4384 18.8155C18.4009 18.7427 18.349 18.6781 18.2859 18.6259C18.1565 18.5291 17.9967 18.4822 17.8356 18.4936C17.6745 18.5051 17.5229 18.5741 17.4086 18.6882C15.9561 20.3739 15.156 22.5244 15.1531 24.7496C15.1554 26.0071 15.4182 27.2505 15.925 28.4014C16.4319 29.5522 17.1717 30.5855 18.0979 31.4361L16.1554 35.0604C16.1127 35.1338 16.0852 35.215 16.0746 35.2993C16.0641 35.3836 16.0706 35.4691 16.0939 35.5508C16.1172 35.6325 16.1567 35.7087 16.2101 35.7747C16.2635 35.8407 16.3297 35.8953 16.4047 35.9352C16.501 35.9857 16.6098 36.0072 16.7179 35.9975C16.8307 35.9982 16.9418 35.97 17.0406 35.9154C17.1393 35.8608 17.2223 35.7818 17.2817 35.6858L19.0986 32.3116C20.6576 33.4095 22.5177 33.9989 24.4245 33.9989C26.3312 33.9989 28.1914 33.4095 29.7503 32.3116L31.5672 35.6858C31.6267 35.7818 31.7098 35.8608 31.8086 35.9154C31.9073 35.97 32.0185 35.9982 32.1313 35.9975C32.2392 36.0069 32.3473 35.9853 32.443 35.9352C32.518 35.8953 32.5841 35.8407 32.6375 35.7746C32.6909 35.7086 32.7304 35.6325 32.7537 35.5508C32.777 35.4691 32.7835 35.3836 32.773 35.2993C32.7624 35.215 32.735 35.1338 32.6923 35.0604L30.6924 31.4346C31.6234 30.5879 32.3665 29.5553 32.8736 28.4035C33.3806 27.2518 33.6405 26.0064 33.6363 24.748ZM35.4532 15.3747C34.6386 13.5001 32.6337 12.0627 30.8168 12.0627C30.3391 12.058 29.8655 12.1497 29.4241 12.3322C28.9827 12.5148 28.5826 12.7845 28.2478 13.1251C28.1885 13.1815 28.1412 13.2493 28.1089 13.3245C28.0766 13.3997 28.0599 13.4807 28.0599 13.5625C28.0599 13.6444 28.0766 13.7254 28.1089 13.8006C28.1412 13.8758 28.1885 13.9436 28.2478 14L33.7616 19.4991C33.8735 19.6225 34.0337 19.6911 34.2001 19.6861C34.3732 19.6743 34.543 19.6321 34.7015 19.5614C35.8291 18.4367 36.0796 16.937 35.4532 15.3747ZM34.2001 18.1244L29.6263 13.5627C29.9893 13.3572 30.3996 13.2498 30.8168 13.2511C32.1326 13.2511 33.6363 14.3758 34.2627 15.8132C34.4384 16.1752 34.5244 16.5742 34.5135 16.9764C34.5026 17.3787 34.3951 17.7724 34.2001 18.1244ZM20.7292 13.5001C20.7314 13.4181 20.7158 13.3367 20.6835 13.2614C20.6512 13.1861 20.603 13.1187 20.5422 13.0637C19.8522 12.395 18.9332 12.0144 17.9723 11.9998C16.0924 11.9998 14.1502 13.4371 13.3356 15.3117C12.7091 16.8737 12.9597 18.3737 14.0876 19.4985C14.1995 19.6219 14.3597 19.6905 14.5261 19.6855C14.623 19.6841 14.7183 19.6609 14.8051 19.6178C14.8919 19.5746 14.9679 19.5126 15.0275 19.4362L20.5413 13.9373C20.665 13.8264 20.7339 13.6662 20.7292 13.5001ZM14.5897 18.1244C14.0885 17.2496 14.3403 16.3121 14.5273 15.8122C15.0914 14.3749 16.6578 13.2501 17.9736 13.2501C18.3897 13.2571 18.798 13.364 19.1641 13.5618L14.5897 18.1244ZM20.1661 24.748C20.1615 24.8313 20.1746 24.9147 20.2046 24.9926C20.2345 25.0705 20.2806 25.1412 20.3398 25.2001C20.3989 25.2589 20.4699 25.3046 20.548 25.3341C20.626 25.3636 20.7095 25.3763 20.7928 25.3713H24.4267C24.51 25.3763 24.5934 25.3636 24.6715 25.3341C24.7495 25.3046 24.8205 25.2589 24.8797 25.2001C24.9389 25.1412 24.9849 25.0705 25.0149 24.9926C25.0448 24.9147 25.0579 24.8313 25.0534 24.748V18.6866C25.0497 18.5229 24.9821 18.367 24.865 18.2525C24.7479 18.138 24.5906 18.0739 24.4268 18.0739C24.263 18.0739 24.1057 18.138 23.9886 18.2525C23.8715 18.367 23.8039 18.5229 23.8002 18.6866V24.1231H20.7928C20.7093 24.118 20.6256 24.1306 20.5473 24.1601C20.469 24.1897 20.3978 24.2355 20.3385 24.2945C20.2792 24.3536 20.2331 24.4245 20.2032 24.5027C20.1733 24.5808 20.1603 24.6645 20.1651 24.748H20.1661Z" fill="#027A48"/>
</g>
<defs>
<clipPath id="clip0_8268_6961">
<rect width="24" height="24" fill="white" transform="translate(12 12)"/>
</clipPath>
</defs>
</svg>
