<svg width="36" height="36" viewBox="0 0 36 36" fill="none" xmlns="http://www.w3.org/2000/svg">
<rect width="36" height="36" rx="18" fill="#F6FEF9"/>
<path d="M8.61426 16.5229C8.61426 15.7273 8.93033 14.9642 9.49294 14.4016C10.0555 13.839 10.8186 13.5229 11.6143 13.5229H24.0263C24.8219 13.5229 25.585 13.839 26.1476 14.4016C26.7102 14.9642 27.0263 15.7273 27.0263 16.5229V22.7979C27.0263 23.5936 26.7102 24.3567 26.1476 24.9193C25.585 25.4819 24.8219 25.7979 24.0263 25.7979H11.6143C10.8186 25.7979 10.0555 25.4819 9.49294 24.9193C8.93033 24.3567 8.61426 23.5936 8.61426 22.7979V16.5229Z" stroke="#027A48"/>
<path d="M13.5244 13.5228V25.7978M22.1164 13.5228V25.7978M20.8894 13.5228V11.0678C20.8894 10.3898 20.3394 9.83984 19.6624 9.83984H15.9794C15.3014 9.83984 14.7514 10.3898 14.7514 11.0678V13.5228" stroke="#027A48"/>
</svg>
